<svg width="384" height="236" viewBox="0 0 384 236" fill="none" xmlns="http://www.w3.org/2000/svg">
<rect x="3" y="160.545" width="160" height="72" rx="6" fill="white" fill-opacity="0.5" stroke="#666666" stroke-width="4" stroke-linecap="round"/>
<path d="M23.9295 193.909H27.0716L29.5318 198.778H29.6341L32.0943 193.909H35.2363L30.9806 201.659V205.545H28.1852V201.659L23.9295 193.909ZM38.2975 205.71C37.3809 205.71 36.593 205.523 35.9339 205.148C35.2786 204.769 34.7729 204.242 34.4169 203.568C34.0646 202.89 33.8885 202.104 33.8885 201.21C33.8885 200.312 34.0646 199.526 34.4169 198.852C34.7729 198.174 35.2786 197.648 35.9339 197.273C36.593 196.894 37.3809 196.705 38.2975 196.705C39.2142 196.705 40.0002 196.894 40.6555 197.273C41.3146 197.648 41.8203 198.174 42.1725 198.852C42.5286 199.526 42.7066 200.312 42.7066 201.21C42.7066 202.104 42.5286 202.89 42.1725 203.568C41.8203 204.242 41.3146 204.769 40.6555 205.148C40.0002 205.523 39.2142 205.71 38.2975 205.71ZM38.3146 203.614C38.6479 203.614 38.9301 203.511 39.1612 203.307C39.3922 203.102 39.5684 202.818 39.6896 202.455C39.8146 202.091 39.8771 201.67 39.8771 201.193C39.8771 200.708 39.8146 200.284 39.6896 199.92C39.5684 199.557 39.3922 199.273 39.1612 199.068C38.9301 198.864 38.6479 198.761 38.3146 198.761C37.9699 198.761 37.6782 198.864 37.4396 199.068C37.2047 199.273 37.0248 199.557 36.8998 199.92C36.7786 200.284 36.718 200.708 36.718 201.193C36.718 201.67 36.7786 202.091 36.8998 202.455C37.0248 202.818 37.2047 203.102 37.4396 203.307C37.6782 203.511 37.9699 203.614 38.3146 203.614ZM49.5846 201.778V196.818H52.3573V205.545H49.7096V203.92H49.6187C49.4255 204.455 49.096 204.879 48.6301 205.193C48.1679 205.504 47.6092 205.659 46.9539 205.659C46.3592 205.659 45.8365 205.523 45.3857 205.25C44.935 204.977 44.5846 204.597 44.3346 204.108C44.0846 203.615 43.9577 203.04 43.9539 202.381V196.818H46.7323V201.835C46.7361 202.309 46.8611 202.682 47.1073 202.955C47.3536 203.227 47.6888 203.364 48.113 203.364C48.3895 203.364 48.6376 203.303 48.8573 203.182C49.0808 203.057 49.257 202.877 49.3857 202.642C49.5183 202.403 49.5846 202.115 49.5846 201.778ZM53.9498 205.545V196.818H56.6487V198.409H56.7396C56.8987 197.833 57.1581 197.405 57.518 197.125C57.8778 196.841 58.2964 196.699 58.7737 196.699C58.9025 196.699 59.035 196.708 59.1714 196.727C59.3078 196.742 59.4347 196.767 59.5521 196.801V199.216C59.4195 199.17 59.2453 199.134 59.0294 199.108C58.8172 199.081 58.6278 199.068 58.4612 199.068C58.1316 199.068 57.8343 199.142 57.5691 199.29C57.3078 199.434 57.1013 199.636 56.9498 199.898C56.8021 200.155 56.7282 200.458 56.7282 200.807V205.545H53.9498ZM71.389 199.483L68.8379 199.551C68.8113 199.369 68.7394 199.208 68.622 199.068C68.5045 198.924 68.3511 198.812 68.1617 198.733C67.9761 198.65 67.7602 198.608 67.514 198.608C67.192 198.608 66.9174 198.672 66.6901 198.801C66.4667 198.93 66.3568 199.104 66.3606 199.324C66.3568 199.494 66.425 199.642 66.5651 199.767C66.7091 199.892 66.9648 199.992 67.3322 200.068L69.014 200.386C69.8852 200.553 70.5329 200.83 70.9572 201.216C71.3852 201.602 71.6011 202.114 71.6049 202.75C71.6011 203.348 71.4231 203.869 71.0708 204.312C70.7223 204.756 70.2451 205.1 69.639 205.347C69.0329 205.589 68.3398 205.71 67.5595 205.71C66.3132 205.71 65.3303 205.455 64.6106 204.943C63.8947 204.428 63.4856 203.739 63.3833 202.875L66.1276 202.807C66.1882 203.125 66.3454 203.367 66.5992 203.534C66.853 203.701 67.1769 203.784 67.5708 203.784C67.9269 203.784 68.2167 203.718 68.4401 203.585C68.6636 203.453 68.7773 203.276 68.781 203.057C68.7773 202.86 68.6901 202.703 68.5197 202.585C68.3492 202.464 68.0822 202.369 67.7185 202.301L66.1958 202.011C65.3208 201.852 64.6693 201.559 64.2413 201.131C63.8132 200.699 63.6011 200.15 63.6049 199.483C63.6011 198.9 63.7564 198.401 64.0708 197.989C64.3852 197.572 64.8322 197.254 65.4117 197.034C65.9913 196.814 66.675 196.705 67.4629 196.705C68.6447 196.705 69.5765 196.953 70.2583 197.449C70.9401 197.941 71.317 198.619 71.389 199.483ZM72.7968 205.545V196.818H75.4389V198.42H75.5354C75.7173 197.89 76.0241 197.472 76.4559 197.165C76.8877 196.858 77.4029 196.705 78.0014 196.705C78.6074 196.705 79.1264 196.86 79.5582 197.17C79.99 197.481 80.2646 197.898 80.382 198.42H80.4729C80.6358 197.901 80.954 197.487 81.4275 197.176C81.901 196.862 82.4597 196.705 83.1036 196.705C83.9294 196.705 84.5998 196.97 85.115 197.5C85.6301 198.026 85.8877 198.75 85.8877 199.67V205.545H83.1093V200.307C83.1093 199.871 82.9976 199.54 82.7741 199.312C82.5506 199.081 82.2608 198.966 81.9048 198.966C81.5222 198.966 81.2211 199.091 81.0014 199.341C80.7854 199.587 80.6775 199.919 80.6775 200.335V205.545H78.007V200.278C78.007 199.873 77.8972 199.553 77.6775 199.318C77.4578 199.083 77.168 198.966 76.8082 198.966C76.5657 198.966 76.3517 199.025 76.1661 199.142C75.9805 199.256 75.8347 199.419 75.7286 199.631C75.6264 199.843 75.5752 200.093 75.5752 200.381V205.545H72.7968ZM89.8935 205.693C89.3367 205.693 88.8424 205.6 88.4106 205.415C87.9826 205.225 87.6435 204.941 87.3935 204.562C87.1473 204.18 87.0242 203.701 87.0242 203.125C87.0242 202.64 87.1094 202.231 87.2799 201.898C87.4504 201.564 87.6852 201.294 87.9844 201.085C88.2837 200.877 88.6284 200.72 89.0185 200.614C89.4087 200.504 89.8254 200.43 90.2685 200.392C90.7647 200.347 91.1644 200.299 91.4674 200.25C91.7704 200.197 91.9901 200.123 92.1265 200.028C92.2666 199.93 92.3367 199.792 92.3367 199.614V199.585C92.3367 199.294 92.2363 199.068 92.0356 198.909C91.8348 198.75 91.564 198.67 91.2231 198.67C90.8557 198.67 90.5602 198.75 90.3367 198.909C90.1132 199.068 89.9712 199.288 89.9106 199.568L87.3481 199.477C87.4238 198.947 87.6189 198.473 87.9333 198.057C88.2515 197.636 88.6871 197.307 89.2401 197.068C89.7969 196.826 90.4655 196.705 91.2458 196.705C91.8026 196.705 92.3159 196.771 92.7856 196.903C93.2553 197.032 93.6644 197.222 94.0129 197.472C94.3613 197.718 94.6303 198.021 94.8197 198.381C95.0129 198.74 95.1094 199.151 95.1094 199.614V205.545H92.4958V204.33H92.4276C92.2723 204.625 92.0735 204.875 91.831 205.08C91.5924 205.284 91.3102 205.437 90.9844 205.54C90.6625 205.642 90.2988 205.693 89.8935 205.693ZM90.7515 203.875C91.0507 203.875 91.3197 203.814 91.5583 203.693C91.8007 203.572 91.9939 203.405 92.1379 203.193C92.2818 202.977 92.3538 202.727 92.3538 202.443V201.614C92.2742 201.655 92.1776 201.693 92.064 201.727C91.9541 201.761 91.8329 201.794 91.7004 201.824C91.5678 201.854 91.4314 201.881 91.2913 201.903C91.1511 201.926 91.0166 201.947 90.8879 201.966C90.6265 202.008 90.403 202.072 90.2174 202.159C90.0356 202.246 89.8954 202.36 89.7969 202.5C89.7022 202.636 89.6549 202.799 89.6549 202.989C89.6549 203.276 89.7572 203.496 89.9617 203.648C90.1701 203.799 90.4333 203.875 90.7515 203.875ZM96.6323 205.545V196.818H99.3312V198.409H99.4221C99.5812 197.833 99.8406 197.405 100.2 197.125C100.56 196.841 100.979 196.699 101.456 196.699C101.585 196.699 101.718 196.708 101.854 196.727C101.99 196.742 102.117 196.767 102.235 196.801V199.216C102.102 199.17 101.928 199.134 101.712 199.108C101.5 199.081 101.31 199.068 101.144 199.068C100.814 199.068 100.517 199.142 100.252 199.29C99.9903 199.434 99.7838 199.636 99.6323 199.898C99.4846 200.155 99.4107 200.458 99.4107 200.807V205.545H96.6323ZM108.523 196.818V198.864H103.017V196.818H108.523ZM104.171 194.727H106.949V202.801C106.949 202.972 106.976 203.11 107.029 203.216C107.086 203.318 107.167 203.392 107.273 203.437C107.379 203.479 107.506 203.5 107.654 203.5C107.76 203.5 107.872 203.49 107.989 203.472C108.11 203.449 108.201 203.43 108.262 203.415L108.682 205.42C108.55 205.458 108.362 205.506 108.12 205.562C107.881 205.619 107.595 205.655 107.262 205.67C106.61 205.701 106.051 205.625 105.586 205.443C105.123 205.258 104.769 204.97 104.523 204.58C104.281 204.189 104.163 203.699 104.171 203.108V194.727ZM115.805 200.568V205.545H113.026V193.909H115.714V198.42H115.81C116.007 197.883 116.329 197.462 116.776 197.159C117.227 196.856 117.778 196.705 118.43 196.705C119.043 196.705 119.577 196.841 120.032 197.114C120.486 197.383 120.839 197.763 121.089 198.256C121.342 198.748 121.467 199.324 121.464 199.983V205.545H118.685V200.528C118.689 200.044 118.568 199.665 118.322 199.392C118.075 199.119 117.729 198.983 117.282 198.983C116.99 198.983 116.733 199.047 116.509 199.176C116.289 199.301 116.117 199.481 115.992 199.716C115.871 199.951 115.808 200.235 115.805 200.568ZM128.653 201.778V196.818H131.425V205.545H128.778V203.92H128.687C128.494 204.455 128.164 204.879 127.698 205.193C127.236 205.504 126.677 205.659 126.022 205.659C125.427 205.659 124.905 205.523 124.454 205.25C124.003 204.977 123.653 204.597 123.403 204.108C123.153 203.615 123.026 203.04 123.022 202.381V196.818H125.8V201.835C125.804 202.309 125.929 202.682 126.175 202.955C126.422 203.227 126.757 203.364 127.181 203.364C127.458 203.364 127.706 203.303 127.925 203.182C128.149 203.057 128.325 202.877 128.454 202.642C128.586 202.403 128.653 202.115 128.653 201.778ZM133.018 205.545V193.909H135.796V198.312H135.853C135.967 198.047 136.128 197.792 136.336 197.545C136.548 197.299 136.817 197.098 137.143 196.943C137.472 196.784 137.866 196.705 138.325 196.705C138.931 196.705 139.497 196.864 140.024 197.182C140.554 197.5 140.982 197.99 141.308 198.653C141.633 199.316 141.796 200.161 141.796 201.187C141.796 202.176 141.639 203.004 141.325 203.67C141.014 204.337 140.594 204.837 140.063 205.17C139.537 205.504 138.952 205.67 138.308 205.67C137.868 205.67 137.488 205.598 137.166 205.455C136.844 205.311 136.573 205.121 136.353 204.886C136.137 204.651 135.971 204.4 135.853 204.131H135.768V205.545H133.018ZM135.74 201.182C135.74 201.651 135.802 202.061 135.927 202.409C136.056 202.758 136.24 203.028 136.478 203.222C136.721 203.411 137.01 203.506 137.347 203.506C137.688 203.506 137.978 203.411 138.217 203.222C138.455 203.028 138.635 202.758 138.757 202.409C138.882 202.061 138.944 201.651 138.944 201.182C138.944 200.712 138.882 200.305 138.757 199.96C138.635 199.615 138.455 199.348 138.217 199.159C137.982 198.97 137.692 198.875 137.347 198.875C137.007 198.875 136.717 198.968 136.478 199.153C136.24 199.339 136.056 199.604 135.927 199.949C135.802 200.294 135.74 200.705 135.74 201.182Z" fill="black" fill-opacity="0.8"/>
<rect x="221" y="160.545" width="160" height="72" rx="6" fill="white" fill-opacity="0.5" stroke="#666666" stroke-width="4" stroke-linecap="round"/>
<path d="M233.699 193.909H236.841L239.302 198.778H239.404L241.864 193.909H245.006L240.75 201.659V205.545H237.955V201.659L233.699 193.909ZM248.067 205.71C247.151 205.71 246.363 205.523 245.704 205.148C245.048 204.769 244.543 204.242 244.187 203.568C243.834 202.89 243.658 202.104 243.658 201.21C243.658 200.312 243.834 199.526 244.187 198.852C244.543 198.174 245.048 197.648 245.704 197.273C246.363 196.894 247.151 196.705 248.067 196.705C248.984 196.705 249.77 196.894 250.425 197.273C251.084 197.648 251.59 198.174 251.942 198.852C252.298 199.526 252.476 200.312 252.476 201.21C252.476 202.104 252.298 202.89 251.942 203.568C251.59 204.242 251.084 204.769 250.425 205.148C249.77 205.523 248.984 205.71 248.067 205.71ZM248.084 203.614C248.418 203.614 248.7 203.511 248.931 203.307C249.162 203.102 249.338 202.818 249.459 202.455C249.584 202.091 249.647 201.67 249.647 201.193C249.647 200.708 249.584 200.284 249.459 199.92C249.338 199.557 249.162 199.273 248.931 199.068C248.7 198.864 248.418 198.761 248.084 198.761C247.74 198.761 247.448 198.864 247.209 199.068C246.974 199.273 246.795 199.557 246.67 199.92C246.548 200.284 246.488 200.708 246.488 201.193C246.488 201.67 246.548 202.091 246.67 202.455C246.795 202.818 246.974 203.102 247.209 203.307C247.448 203.511 247.74 203.614 248.084 203.614ZM259.354 201.778V196.818H262.127V205.545H259.479V203.92H259.388C259.195 204.455 258.866 204.879 258.4 205.193C257.938 205.504 257.379 205.659 256.724 205.659C256.129 205.659 255.606 205.523 255.156 205.25C254.705 204.977 254.354 204.597 254.104 204.108C253.854 203.615 253.727 203.04 253.724 202.381V196.818H256.502V201.835C256.506 202.309 256.631 202.682 256.877 202.955C257.123 203.227 257.459 203.364 257.883 203.364C258.159 203.364 258.407 203.303 258.627 203.182C258.851 203.057 259.027 202.877 259.156 202.642C259.288 202.403 259.354 202.115 259.354 201.778ZM263.72 205.545V196.818H266.418V198.409H266.509C266.668 197.833 266.928 197.405 267.288 197.125C267.648 196.841 268.066 196.699 268.543 196.699C268.672 196.699 268.805 196.708 268.941 196.727C269.078 196.742 269.204 196.767 269.322 196.801V199.216C269.189 199.17 269.015 199.134 268.799 199.108C268.587 199.081 268.398 199.068 268.231 199.068C267.901 199.068 267.604 199.142 267.339 199.29C267.078 199.434 266.871 199.636 266.72 199.898C266.572 200.155 266.498 200.458 266.498 200.807V205.545H263.72ZM277.841 205.545H273.539V193.909H277.835C279.02 193.909 280.041 194.142 280.897 194.608C281.757 195.07 282.42 195.737 282.886 196.608C283.352 197.475 283.585 198.513 283.585 199.722C283.585 200.934 283.352 201.975 282.886 202.847C282.424 203.718 281.763 204.386 280.903 204.852C280.043 205.314 279.022 205.545 277.841 205.545ZM276.352 203.148H277.733C278.384 203.148 278.935 203.038 279.386 202.818C279.841 202.595 280.183 202.233 280.414 201.733C280.649 201.229 280.767 200.559 280.767 199.722C280.767 198.884 280.649 198.218 280.414 197.722C280.18 197.222 279.833 196.862 279.375 196.642C278.92 196.419 278.36 196.307 277.693 196.307H276.352V203.148ZM285.051 205.545V193.909H293.165V196.193H287.863V198.58H292.75V200.869H287.863V203.261H293.165V205.545H285.051ZM294.75 205.545V193.909H299.557C300.428 193.909 301.18 194.066 301.812 194.381C302.449 194.691 302.939 195.138 303.284 195.722C303.629 196.301 303.801 196.989 303.801 197.784C303.801 198.591 303.625 199.276 303.273 199.841C302.92 200.401 302.42 200.83 301.773 201.125C301.125 201.417 300.358 201.562 299.472 201.562H296.432V199.347H298.949C299.373 199.347 299.727 199.292 300.011 199.182C300.299 199.068 300.517 198.898 300.665 198.67C300.812 198.439 300.886 198.144 300.886 197.784C300.886 197.424 300.812 197.127 300.665 196.892C300.517 196.653 300.299 196.475 300.011 196.358C299.723 196.237 299.369 196.176 298.949 196.176H297.562V205.545H294.75ZM301.301 200.227L304.199 205.545H301.131L298.29 200.227H301.301ZM311.617 205.67C310.973 205.67 310.388 205.504 309.861 205.17C309.334 204.837 308.914 204.337 308.6 203.67C308.285 203.004 308.128 202.176 308.128 201.187C308.128 200.161 308.291 199.316 308.617 198.653C308.942 197.99 309.369 197.5 309.895 197.182C310.425 196.864 310.995 196.705 311.605 196.705C312.064 196.705 312.456 196.784 312.781 196.943C313.107 197.098 313.376 197.299 313.588 197.545C313.8 197.792 313.961 198.047 314.071 198.312H314.128V193.909H316.906V205.545H314.156V204.131H314.071C313.954 204.4 313.787 204.651 313.571 204.886C313.355 205.121 313.084 205.311 312.759 205.455C312.437 205.598 312.056 205.67 311.617 205.67ZM312.583 203.506C312.92 203.506 313.208 203.411 313.446 203.222C313.685 203.028 313.869 202.758 313.997 202.409C314.126 202.061 314.191 201.651 314.191 201.182C314.191 200.705 314.126 200.294 313.997 199.949C313.872 199.604 313.689 199.339 313.446 199.153C313.208 198.968 312.92 198.875 312.583 198.875C312.238 198.875 311.946 198.97 311.708 199.159C311.469 199.348 311.287 199.615 311.162 199.96C311.041 200.305 310.98 200.712 310.98 201.182C310.98 201.651 311.043 202.061 311.168 202.409C311.293 202.758 311.473 203.028 311.708 203.222C311.946 203.411 312.238 203.506 312.583 203.506ZM322.567 205.71C321.654 205.71 320.866 205.53 320.203 205.17C319.544 204.807 319.037 204.29 318.681 203.619C318.328 202.945 318.152 202.144 318.152 201.216C318.152 200.314 318.33 199.526 318.686 198.852C319.042 198.174 319.544 197.648 320.192 197.273C320.84 196.894 321.603 196.705 322.482 196.705C323.103 196.705 323.671 196.801 324.186 196.994C324.702 197.187 325.147 197.473 325.522 197.852C325.897 198.231 326.188 198.699 326.397 199.256C326.605 199.809 326.709 200.443 326.709 201.159V201.852H319.124V200.239H324.124C324.12 199.943 324.05 199.68 323.914 199.449C323.777 199.218 323.59 199.038 323.351 198.909C323.116 198.776 322.846 198.71 322.539 198.71C322.228 198.71 321.95 198.78 321.703 198.92C321.457 199.057 321.262 199.244 321.118 199.483C320.974 199.718 320.899 199.985 320.891 200.284V201.926C320.891 202.282 320.961 202.595 321.101 202.864C321.241 203.129 321.44 203.335 321.698 203.483C321.955 203.631 322.262 203.705 322.618 203.705C322.864 203.705 323.088 203.67 323.289 203.602C323.489 203.534 323.662 203.434 323.806 203.301C323.95 203.169 324.058 203.006 324.13 202.812L326.681 202.886C326.575 203.458 326.342 203.956 325.982 204.381C325.626 204.801 325.158 205.129 324.578 205.364C323.999 205.595 323.328 205.71 322.567 205.71ZM336.184 196.818L333.189 205.545H330.008L327.019 196.818H329.945L331.553 202.83H331.644L333.258 196.818H336.184ZM337.073 205.545V196.818H339.851V205.545H337.073ZM338.465 195.801C338.075 195.801 337.74 195.672 337.459 195.415C337.179 195.153 337.039 194.839 337.039 194.472C337.039 194.108 337.179 193.797 337.459 193.54C337.74 193.278 338.075 193.148 338.465 193.148C338.859 193.148 339.194 193.278 339.471 193.54C339.751 193.797 339.891 194.108 339.891 194.472C339.891 194.839 339.751 195.153 339.471 195.415C339.194 195.672 338.859 195.801 338.465 195.801ZM345.518 205.71C344.597 205.71 343.808 205.521 343.148 205.142C342.493 204.763 341.989 204.237 341.637 203.562C341.285 202.884 341.109 202.1 341.109 201.21C341.109 200.316 341.285 199.532 341.637 198.858C341.993 198.18 342.499 197.651 343.154 197.273C343.813 196.894 344.599 196.705 345.512 196.705C346.319 196.705 347.022 196.85 347.62 197.142C348.222 197.434 348.692 197.847 349.029 198.381C349.37 198.911 349.55 199.534 349.569 200.25H346.972C346.919 199.803 346.768 199.453 346.518 199.199C346.272 198.945 345.95 198.818 345.552 198.818C345.23 198.818 344.948 198.909 344.705 199.091C344.463 199.269 344.273 199.534 344.137 199.886C344.005 200.235 343.938 200.667 343.938 201.182C343.938 201.697 344.005 202.133 344.137 202.489C344.273 202.841 344.463 203.108 344.705 203.29C344.948 203.468 345.23 203.557 345.552 203.557C345.809 203.557 346.037 203.502 346.234 203.392C346.434 203.282 346.599 203.121 346.728 202.909C346.857 202.693 346.938 202.432 346.972 202.125H349.569C349.542 202.845 349.362 203.473 349.029 204.011C348.7 204.549 348.236 204.968 347.637 205.267C347.042 205.562 346.336 205.71 345.518 205.71ZM354.894 205.71C353.981 205.71 353.194 205.53 352.531 205.17C351.872 204.807 351.364 204.29 351.008 203.619C350.656 202.945 350.48 202.144 350.48 201.216C350.48 200.314 350.658 199.526 351.014 198.852C351.37 198.174 351.872 197.648 352.519 197.273C353.167 196.894 353.93 196.705 354.809 196.705C355.43 196.705 355.999 196.801 356.514 196.994C357.029 197.187 357.474 197.473 357.849 197.852C358.224 198.231 358.516 198.699 358.724 199.256C358.932 199.809 359.036 200.443 359.036 201.159V201.852H351.451V200.239H356.451C356.447 199.943 356.377 199.68 356.241 199.449C356.105 199.218 355.917 199.038 355.678 198.909C355.444 198.776 355.173 198.71 354.866 198.71C354.555 198.71 354.277 198.78 354.031 198.92C353.785 199.057 353.589 199.244 353.445 199.483C353.302 199.718 353.226 199.985 353.218 200.284V201.926C353.218 202.282 353.288 202.595 353.428 202.864C353.569 203.129 353.767 203.335 354.025 203.483C354.283 203.631 354.589 203.705 354.945 203.705C355.192 203.705 355.415 203.67 355.616 203.602C355.817 203.534 355.989 203.434 356.133 203.301C356.277 203.169 356.385 203.006 356.457 202.812L359.008 202.886C358.902 203.458 358.669 203.956 358.309 204.381C357.953 204.801 357.485 205.129 356.906 205.364C356.326 205.595 355.656 205.71 354.894 205.71ZM367.899 199.483L365.348 199.551C365.321 199.369 365.249 199.208 365.132 199.068C365.014 198.924 364.861 198.812 364.671 198.733C364.486 198.65 364.27 198.608 364.024 198.608C363.702 198.608 363.427 198.672 363.2 198.801C362.976 198.93 362.867 199.104 362.87 199.324C362.867 199.494 362.935 199.642 363.075 199.767C363.219 199.892 363.475 199.992 363.842 200.068L365.524 200.386C366.395 200.553 367.043 200.83 367.467 201.216C367.895 201.602 368.111 202.114 368.115 202.75C368.111 203.348 367.933 203.869 367.581 204.312C367.232 204.756 366.755 205.1 366.149 205.347C365.543 205.589 364.85 205.71 364.069 205.71C362.823 205.71 361.84 205.455 361.12 204.943C360.404 204.428 359.995 203.739 359.893 202.875L362.637 202.807C362.698 203.125 362.855 203.367 363.109 203.534C363.363 203.701 363.687 203.784 364.081 203.784C364.437 203.784 364.726 203.718 364.95 203.585C365.173 203.453 365.287 203.276 365.291 203.057C365.287 202.86 365.2 202.703 365.029 202.585C364.859 202.464 364.592 202.369 364.228 202.301L362.706 202.011C361.831 201.852 361.179 201.559 360.751 201.131C360.323 200.699 360.111 200.15 360.115 199.483C360.111 198.9 360.266 198.401 360.581 197.989C360.895 197.572 361.342 197.254 361.921 197.034C362.501 196.814 363.185 196.705 363.973 196.705C365.154 196.705 366.086 196.953 366.768 197.449C367.45 197.941 367.827 198.619 367.899 199.483Z" fill="black" fill-opacity="0.8"/>
<rect x="221" y="83" width="160" height="40" rx="3" fill="white" fill-opacity="0.5" stroke="#666666" stroke-width="4" stroke-linecap="round"/>
<path d="M266.928 101.58H264.088C264.05 101.288 263.972 101.025 263.855 100.79C263.737 100.555 263.582 100.354 263.389 100.188C263.195 100.021 262.966 99.8939 262.701 99.8068C262.44 99.7159 262.15 99.6705 261.832 99.6705C261.267 99.6705 260.781 99.8087 260.372 100.085C259.966 100.362 259.654 100.761 259.434 101.284C259.218 101.807 259.11 102.439 259.11 103.182C259.11 103.955 259.22 104.602 259.44 105.125C259.663 105.644 259.976 106.036 260.377 106.301C260.783 106.562 261.262 106.693 261.815 106.693C262.125 106.693 262.408 106.653 262.661 106.574C262.919 106.494 263.144 106.379 263.338 106.227C263.534 106.072 263.695 105.884 263.82 105.665C263.949 105.441 264.038 105.189 264.088 104.909L266.928 104.926C266.879 105.441 266.73 105.949 266.48 106.449C266.233 106.949 265.894 107.405 265.463 107.818C265.031 108.227 264.504 108.553 263.883 108.795C263.266 109.038 262.557 109.159 261.758 109.159C260.705 109.159 259.762 108.928 258.928 108.466C258.099 108 257.444 107.322 256.963 106.432C256.481 105.542 256.241 104.458 256.241 103.182C256.241 101.902 256.485 100.816 256.974 99.9261C257.463 99.036 258.124 98.3598 258.957 97.8977C259.79 97.4356 260.724 97.2045 261.758 97.2045C262.463 97.2045 263.114 97.303 263.713 97.5C264.311 97.6932 264.838 97.9773 265.292 98.3523C265.747 98.7235 266.116 99.1799 266.4 99.7216C266.684 100.263 266.86 100.883 266.928 101.58ZM272.436 109.165C271.519 109.165 270.731 108.977 270.072 108.602C269.417 108.223 268.911 107.697 268.555 107.023C268.203 106.345 268.027 105.559 268.027 104.665C268.027 103.767 268.203 102.981 268.555 102.307C268.911 101.629 269.417 101.102 270.072 100.727C270.731 100.348 271.519 100.159 272.436 100.159C273.352 100.159 274.138 100.348 274.794 100.727C275.453 101.102 275.958 101.629 276.311 102.307C276.667 102.981 276.845 103.767 276.845 104.665C276.845 105.559 276.667 106.345 276.311 107.023C275.958 107.697 275.453 108.223 274.794 108.602C274.138 108.977 273.352 109.165 272.436 109.165ZM272.453 107.068C272.786 107.068 273.068 106.966 273.299 106.761C273.53 106.557 273.707 106.273 273.828 105.909C273.953 105.545 274.015 105.125 274.015 104.648C274.015 104.163 273.953 103.739 273.828 103.375C273.707 103.011 273.53 102.727 273.299 102.523C273.068 102.318 272.786 102.216 272.453 102.216C272.108 102.216 271.816 102.318 271.578 102.523C271.343 102.727 271.163 103.011 271.038 103.375C270.917 103.739 270.856 104.163 270.856 104.648C270.856 105.125 270.917 105.545 271.038 105.909C271.163 106.273 271.343 106.557 271.578 106.761C271.816 106.966 272.108 107.068 272.453 107.068ZM278.092 109V100.273H280.734V101.875H280.831C281.013 101.345 281.319 100.926 281.751 100.619C282.183 100.312 282.698 100.159 283.297 100.159C283.903 100.159 284.422 100.314 284.853 100.625C285.285 100.936 285.56 101.352 285.677 101.875H285.768C285.931 101.356 286.249 100.941 286.723 100.631C287.196 100.316 287.755 100.159 288.399 100.159C289.225 100.159 289.895 100.424 290.41 100.955C290.925 101.481 291.183 102.205 291.183 103.125V109H288.405V103.761C288.405 103.326 288.293 102.994 288.069 102.767C287.846 102.536 287.556 102.42 287.2 102.42C286.817 102.42 286.516 102.545 286.297 102.795C286.081 103.042 285.973 103.373 285.973 103.79V109H283.302V103.733C283.302 103.328 283.192 103.008 282.973 102.773C282.753 102.538 282.463 102.42 282.103 102.42C281.861 102.42 281.647 102.479 281.461 102.597C281.276 102.71 281.13 102.873 281.024 103.085C280.922 103.297 280.87 103.547 280.87 103.835V109H278.092ZM292.729 109V100.273H295.371V101.875H295.467C295.649 101.345 295.956 100.926 296.388 100.619C296.819 100.312 297.335 100.159 297.933 100.159C298.539 100.159 299.058 100.314 299.49 100.625C299.922 100.936 300.196 101.352 300.314 101.875H300.405C300.568 101.356 300.886 100.941 301.359 100.631C301.833 100.316 302.391 100.159 303.035 100.159C303.861 100.159 304.532 100.424 305.047 100.955C305.562 101.481 305.819 102.205 305.819 103.125V109H303.041V103.761C303.041 103.326 302.929 102.994 302.706 102.767C302.482 102.536 302.193 102.42 301.837 102.42C301.454 102.42 301.153 102.545 300.933 102.795C300.717 103.042 300.609 103.373 300.609 103.79V109H297.939V103.733C297.939 103.328 297.829 103.008 297.609 102.773C297.39 102.538 297.1 102.42 296.74 102.42C296.497 102.42 296.283 102.479 296.098 102.597C295.912 102.71 295.766 102.873 295.66 103.085C295.558 103.297 295.507 103.547 295.507 103.835V109H292.729ZM312.996 105.233V100.273H315.768V109H313.121V107.375H313.03C312.837 107.909 312.507 108.333 312.041 108.648C311.579 108.958 311.02 109.114 310.365 109.114C309.77 109.114 309.248 108.977 308.797 108.705C308.346 108.432 307.996 108.051 307.746 107.562C307.496 107.07 307.369 106.494 307.365 105.835V100.273H310.143V105.29C310.147 105.763 310.272 106.136 310.518 106.409C310.765 106.682 311.1 106.818 311.524 106.818C311.801 106.818 312.049 106.758 312.268 106.636C312.492 106.511 312.668 106.331 312.797 106.097C312.929 105.858 312.996 105.57 312.996 105.233ZM320.139 104.023V109H317.361V100.273H320.003V101.875H320.1C320.293 101.341 320.622 100.922 321.088 100.619C321.554 100.312 322.109 100.159 322.753 100.159C323.367 100.159 323.899 100.297 324.35 100.574C324.804 100.847 325.156 101.229 325.406 101.722C325.66 102.21 325.785 102.782 325.781 103.438V109H323.003V103.983C323.007 103.498 322.884 103.119 322.634 102.847C322.387 102.574 322.045 102.438 321.605 102.438C321.314 102.438 321.056 102.502 320.833 102.631C320.613 102.756 320.442 102.936 320.321 103.17C320.204 103.405 320.143 103.689 320.139 104.023ZM327.326 109V100.273H330.104V109H327.326ZM328.718 99.2557C328.327 99.2557 327.992 99.1269 327.712 98.8693C327.432 98.608 327.291 98.2936 327.291 97.9261C327.291 97.5625 327.432 97.2519 327.712 96.9943C327.992 96.733 328.327 96.6023 328.718 96.6023C329.112 96.6023 329.447 96.733 329.723 96.9943C330.004 97.2519 330.144 97.5625 330.144 97.9261C330.144 98.2936 330.004 98.608 329.723 98.8693C329.447 99.1269 329.112 99.2557 328.718 99.2557ZM336.623 100.273V102.318H331.117V100.273H336.623ZM332.27 98.1818H335.049V106.256C335.049 106.426 335.075 106.564 335.128 106.67C335.185 106.773 335.267 106.847 335.373 106.892C335.479 106.934 335.606 106.955 335.753 106.955C335.859 106.955 335.971 106.945 336.088 106.926C336.21 106.903 336.301 106.884 336.361 106.869L336.782 108.875C336.649 108.913 336.462 108.96 336.219 109.017C335.981 109.074 335.695 109.11 335.361 109.125C334.71 109.155 334.151 109.08 333.685 108.898C333.223 108.712 332.869 108.424 332.623 108.034C332.38 107.644 332.263 107.153 332.27 106.562V98.1818ZM339.563 112.273C339.23 112.273 338.915 112.246 338.62 112.193C338.324 112.144 338.071 112.078 337.859 111.994L338.472 109.977C338.745 110.068 338.991 110.121 339.211 110.136C339.434 110.152 339.626 110.116 339.785 110.028C339.948 109.945 340.073 109.795 340.16 109.58L340.268 109.318L337.165 100.273H340.074L341.682 106.5H341.773L343.404 100.273H346.33L343.04 109.835C342.881 110.313 342.656 110.733 342.364 111.097C342.076 111.464 341.703 111.752 341.245 111.96C340.79 112.169 340.23 112.273 339.563 112.273Z" fill="black" fill-opacity="0.8"/>
<path d="M86.2614 148H84.3977L88.5852 136.364H90.6136L94.8011 148H92.9375L89.6477 138.477H89.5568L86.2614 148ZM86.5739 143.443H92.6193V144.92H86.5739V143.443ZM96.3055 148V136.364H100.453C101.359 136.364 102.109 136.528 102.703 136.858C103.298 137.187 103.743 137.638 104.038 138.21C104.334 138.778 104.482 139.419 104.482 140.131C104.482 140.847 104.332 141.491 104.033 142.062C103.737 142.631 103.29 143.081 102.692 143.415C102.097 143.744 101.349 143.909 100.448 143.909H97.5953V142.42H100.288C100.86 142.42 101.324 142.322 101.681 142.125C102.037 141.924 102.298 141.652 102.465 141.307C102.631 140.962 102.715 140.57 102.715 140.131C102.715 139.691 102.631 139.301 102.465 138.96C102.298 138.619 102.035 138.352 101.675 138.159C101.319 137.966 100.849 137.869 100.266 137.869H98.0612V148H96.3055ZM108.12 136.364V148H106.364V136.364H108.12Z" fill="#B3B3B3"/>
<rect x="3" y="83" width="160" height="40" rx="3" fill="#FF6F00" fill-opacity="0.75" stroke="#757575" stroke-width="6" stroke-linecap="round"/>
<path d="M34.2456 109H29.9445V97.3636H34.2399C35.4256 97.3636 36.4464 97.5966 37.3024 98.0625C38.1623 98.5246 38.8252 99.1913 39.2911 100.062C39.757 100.93 39.9899 101.968 39.9899 103.176C39.9899 104.388 39.757 105.43 39.2911 106.301C38.829 107.172 38.168 107.841 37.3081 108.307C36.4483 108.769 35.4274 109 34.2456 109ZM32.757 106.602H34.1377C34.7892 106.602 35.3403 106.492 35.7911 106.273C36.2456 106.049 36.5884 105.688 36.8195 105.188C37.0543 104.684 37.1718 104.013 37.1718 103.176C37.1718 102.339 37.0543 101.672 36.8195 101.176C36.5846 100.676 36.2381 100.316 35.7797 100.097C35.3252 99.8731 34.7646 99.7614 34.0979 99.7614H32.757V106.602ZM41.456 109V97.3636H49.5696V99.6477H44.2685V102.034H49.1549V104.324H44.2685V106.716H49.5696V109H41.456ZM51.155 109V97.3636H55.9618C56.833 97.3636 57.5849 97.5208 58.2175 97.8352C58.8539 98.1458 59.3444 98.5928 59.6891 99.1761C60.0338 99.7557 60.2061 100.443 60.2061 101.239C60.2061 102.045 60.03 102.731 59.6777 103.295C59.3255 103.856 58.8255 104.284 58.1777 104.58C57.53 104.871 56.763 105.017 55.8766 105.017H52.8368V102.801H55.3539C55.7781 102.801 56.1323 102.746 56.4164 102.636C56.7042 102.523 56.922 102.352 57.0698 102.125C57.2175 101.894 57.2914 101.598 57.2914 101.239C57.2914 100.879 57.2175 100.581 57.0698 100.347C56.922 100.108 56.7042 99.9299 56.4164 99.8125C56.1285 99.6913 55.7743 99.6307 55.3539 99.6307H53.9675V109H51.155ZM57.7061 103.682L60.6039 109H57.5357L54.6948 103.682H57.7061ZM69.1354 109H64.8342V97.3636H69.1297C70.3153 97.3636 71.3361 97.5966 72.1922 98.0625C73.052 98.5246 73.7149 99.1913 74.1808 100.062C74.6467 100.93 74.8797 101.968 74.8797 103.176C74.8797 104.388 74.6467 105.43 74.1808 106.301C73.7187 107.172 73.0577 107.841 72.1979 108.307C71.338 108.769 70.3172 109 69.1354 109ZM67.6467 106.602H69.0274C69.6789 106.602 70.2301 106.492 70.6808 106.273C71.1354 106.049 71.4782 105.688 71.7092 105.188C71.9441 104.684 72.0615 104.013 72.0615 103.176C72.0615 102.339 71.9441 101.672 71.7092 101.176C71.4744 100.676 71.1278 100.316 70.6695 100.097C70.2149 99.8731 69.6543 99.7614 68.9877 99.7614H67.6467V106.602ZM76.3457 109V100.273H79.1241V109H76.3457ZM77.7378 99.2557C77.3476 99.2557 77.0124 99.1269 76.7321 98.8693C76.4518 98.608 76.3116 98.2936 76.3116 97.9261C76.3116 97.5625 76.4518 97.2519 76.7321 96.9943C77.0124 96.733 77.3476 96.6023 77.7378 96.6023C78.1317 96.6023 78.467 96.733 78.7435 96.9943C79.0238 97.2519 79.1639 97.5625 79.1639 97.9261C79.1639 98.2936 79.0238 98.608 78.7435 98.8693C78.467 99.1269 78.1317 99.2557 77.7378 99.2557ZM80.7166 109V100.273H83.4155V101.864H83.5064C83.6655 101.288 83.925 100.86 84.2848 100.58C84.6446 100.295 85.0632 100.153 85.5405 100.153C85.6693 100.153 85.8018 100.163 85.9382 100.182C86.0746 100.197 86.2015 100.222 86.3189 100.256V102.67C86.1863 102.625 86.0121 102.589 85.7962 102.562C85.584 102.536 85.3946 102.523 85.228 102.523C84.8984 102.523 84.6011 102.597 84.3359 102.744C84.0746 102.888 83.8681 103.091 83.7166 103.352C83.5689 103.61 83.495 103.913 83.495 104.261V109H80.7166ZM90.9014 109.165C89.9885 109.165 89.2007 108.985 88.5378 108.625C87.8787 108.261 87.3711 107.744 87.0151 107.074C86.6628 106.4 86.4866 105.598 86.4866 104.67C86.4866 103.769 86.6647 102.981 87.0207 102.307C87.3768 101.629 87.8787 101.102 88.5264 100.727C89.1741 100.348 89.9374 100.159 90.8162 100.159C91.4374 100.159 92.0056 100.256 92.5207 100.449C93.0359 100.642 93.481 100.928 93.856 101.307C94.231 101.686 94.5226 102.153 94.731 102.71C94.9393 103.263 95.0435 103.898 95.0435 104.614V105.307H87.4582V103.693H92.4582C92.4545 103.398 92.3844 103.134 92.248 102.903C92.1116 102.672 91.9241 102.492 91.6855 102.364C91.4507 102.231 91.1798 102.165 90.873 102.165C90.5624 102.165 90.284 102.235 90.0378 102.375C89.7916 102.511 89.5965 102.699 89.4526 102.938C89.3086 103.172 89.2329 103.439 89.2253 103.739V105.381C89.2253 105.737 89.2954 106.049 89.4355 106.318C89.5757 106.583 89.7745 106.79 90.0321 106.938C90.2897 107.085 90.5965 107.159 90.9526 107.159C91.1988 107.159 91.4223 107.125 91.623 107.057C91.8238 106.989 91.9961 106.888 92.1401 106.756C92.284 106.623 92.392 106.46 92.4639 106.267L95.0151 106.341C94.909 106.913 94.676 107.411 94.3162 107.835C93.9601 108.256 93.4923 108.583 92.9128 108.818C92.3332 109.049 91.6628 109.165 90.9014 109.165ZM100.36 109.165C99.4399 109.165 98.6501 108.975 97.991 108.597C97.3357 108.218 96.832 107.691 96.4797 107.017C96.1274 106.339 95.9513 105.555 95.9513 104.665C95.9513 103.771 96.1274 102.987 96.4797 102.312C96.8357 101.634 97.3414 101.106 97.9967 100.727C98.6558 100.348 99.4418 100.159 100.355 100.159C101.161 100.159 101.864 100.305 102.463 100.597C103.065 100.888 103.535 101.301 103.872 101.835C104.213 102.366 104.393 102.989 104.411 103.705H101.815C101.762 103.258 101.61 102.907 101.36 102.653C101.114 102.4 100.792 102.273 100.394 102.273C100.072 102.273 99.7903 102.364 99.5479 102.545C99.3054 102.723 99.116 102.989 98.9797 103.341C98.8471 103.689 98.7808 104.121 98.7808 104.636C98.7808 105.152 98.8471 105.587 98.9797 105.943C99.116 106.295 99.3054 106.562 99.5479 106.744C99.7903 106.922 100.072 107.011 100.394 107.011C100.652 107.011 100.879 106.956 101.076 106.847C101.277 106.737 101.442 106.576 101.571 106.364C101.699 106.148 101.781 105.886 101.815 105.58H104.411C104.385 106.299 104.205 106.928 103.872 107.466C103.542 108.004 103.078 108.422 102.48 108.722C101.885 109.017 101.179 109.165 100.36 109.165ZM110.584 100.273V102.318H105.078V100.273H110.584ZM106.231 98.1818H109.01V106.256C109.01 106.426 109.036 106.564 109.089 106.67C109.146 106.773 109.227 106.847 109.334 106.892C109.44 106.934 109.566 106.955 109.714 106.955C109.82 106.955 109.932 106.945 110.049 106.926C110.171 106.903 110.262 106.884 110.322 106.869L110.743 108.875C110.61 108.913 110.423 108.96 110.18 109.017C109.941 109.074 109.655 109.11 109.322 109.125C108.671 109.155 108.112 109.08 107.646 108.898C107.184 108.712 106.83 108.424 106.584 108.034C106.341 107.644 106.224 107.153 106.231 106.562V98.1818ZM115.805 109.165C114.889 109.165 114.101 108.977 113.442 108.602C112.786 108.223 112.281 107.697 111.925 107.023C111.572 106.345 111.396 105.559 111.396 104.665C111.396 103.767 111.572 102.981 111.925 102.307C112.281 101.629 112.786 101.102 113.442 100.727C114.101 100.348 114.889 100.159 115.805 100.159C116.722 100.159 117.508 100.348 118.163 100.727C118.822 101.102 119.328 101.629 119.68 102.307C120.036 102.981 120.214 103.767 120.214 104.665C120.214 105.559 120.036 106.345 119.68 107.023C119.328 107.697 118.822 108.223 118.163 108.602C117.508 108.977 116.722 109.165 115.805 109.165ZM115.822 107.068C116.156 107.068 116.438 106.966 116.669 106.761C116.9 106.557 117.076 106.273 117.197 105.909C117.322 105.545 117.385 105.125 117.385 104.648C117.385 104.163 117.322 103.739 117.197 103.375C117.076 103.011 116.9 102.727 116.669 102.523C116.438 102.318 116.156 102.216 115.822 102.216C115.478 102.216 115.186 102.318 114.947 102.523C114.712 102.727 114.533 103.011 114.408 103.375C114.286 103.739 114.226 104.163 114.226 104.648C114.226 105.125 114.286 105.545 114.408 105.909C114.533 106.273 114.712 106.557 114.947 106.761C115.186 106.966 115.478 107.068 115.822 107.068ZM121.462 109V100.273H124.16V101.864H124.251C124.41 101.288 124.67 100.86 125.03 100.58C125.39 100.295 125.808 100.153 126.285 100.153C126.414 100.153 126.547 100.163 126.683 100.182C126.82 100.197 126.946 100.222 127.064 100.256V102.67C126.931 102.625 126.757 102.589 126.541 102.562C126.329 102.536 126.14 102.523 125.973 102.523C125.643 102.523 125.346 102.597 125.081 102.744C124.82 102.888 124.613 103.091 124.462 103.352C124.314 103.61 124.24 103.913 124.24 104.261V109H121.462ZM129.984 112.273C129.651 112.273 129.337 112.246 129.041 112.193C128.746 112.144 128.492 112.078 128.28 111.994L128.894 109.977C129.166 110.068 129.413 110.121 129.632 110.136C129.856 110.152 130.047 110.116 130.206 110.028C130.369 109.945 130.494 109.795 130.581 109.58L130.689 109.318L127.587 100.273H130.496L132.104 106.5H132.195L133.825 100.273H136.752L133.462 109.835C133.303 110.313 133.077 110.733 132.786 111.097C132.498 111.464 132.125 111.752 131.666 111.96C131.212 112.169 130.651 112.273 129.984 112.273Z" fill="white"/>
<rect x="3" y="3" width="70" height="40" rx="3" fill="white" fill-opacity="0.5" stroke="#666666" stroke-width="4" stroke-linecap="round"/>
<path d="M20.5758 17.3636L23.1781 25.8864H23.2747L25.8769 17.3636H29.0247L25.0985 29H21.3542L17.4281 17.3636H20.5758ZM30.1015 29V17.3636H34.9083C35.7795 17.3636 36.5314 17.5341 37.164 17.875C37.8004 18.2121 38.2909 18.6837 38.6356 19.2898C38.9803 19.892 39.1526 20.5928 39.1526 21.392C39.1526 22.1951 38.9765 22.8977 38.6242 23.5C38.2757 24.0985 37.7776 24.5625 37.1299 24.892C36.4822 25.2216 35.7132 25.3864 34.8231 25.3864H31.8572V23.1705H34.3004C34.7246 23.1705 35.0788 23.0966 35.3629 22.9489C35.6507 22.8011 35.8685 22.5947 36.0163 22.3295C36.164 22.0606 36.2379 21.7481 36.2379 21.392C36.2379 21.0322 36.164 20.7216 36.0163 20.4602C35.8685 20.1951 35.6507 19.9905 35.3629 19.8466C35.075 19.7027 34.7208 19.6307 34.3004 19.6307H32.914V29H30.1015ZM40.363 29V17.3636H45.1698C46.041 17.3636 46.7929 17.5341 47.4255 17.875C48.0619 18.2121 48.5524 18.6837 48.8971 19.2898C49.2418 19.892 49.4141 20.5928 49.4141 21.392C49.4141 22.1951 49.238 22.8977 48.8857 23.5C48.5372 24.0985 48.0391 24.5625 47.3914 24.892C46.7437 25.2216 45.9747 25.3864 45.0846 25.3864H42.1187V23.1705H44.5619C44.9861 23.1705 45.3403 23.0966 45.6244 22.9489C45.9122 22.8011 46.13 22.5947 46.2778 22.3295C46.4255 22.0606 46.4994 21.7481 46.4994 21.392C46.4994 21.0322 46.4255 20.7216 46.2778 20.4602C46.13 20.1951 45.9122 19.9905 45.6244 19.8466C45.3365 19.7027 44.9823 19.6307 44.5619 19.6307H43.1755V29H40.363ZM58.2438 22.9375L55.6927 23.0057C55.6662 22.8239 55.5942 22.6629 55.4768 22.5227C55.3593 22.3788 55.2059 22.267 55.0165 22.1875C54.8309 22.1042 54.615 22.0625 54.3688 22.0625C54.0468 22.0625 53.7722 22.1269 53.5449 22.2557C53.3215 22.3845 53.2116 22.5587 53.2154 22.7784C53.2116 22.9489 53.2798 23.0966 53.4199 23.2216C53.5639 23.3466 53.8196 23.447 54.187 23.5227L55.8688 23.8409C56.74 24.0076 57.3878 24.2841 57.812 24.6705C58.24 25.0568 58.4559 25.5682 58.4597 26.2045C58.4559 26.803 58.2779 27.3239 57.9256 27.767C57.5771 28.2102 57.0999 28.5549 56.4938 28.8011C55.8878 29.0436 55.1946 29.1648 54.4143 29.1648C53.1681 29.1648 52.1851 28.9091 51.4654 28.3977C50.7495 27.8826 50.3404 27.1932 50.2381 26.3295L52.9824 26.2614C53.0431 26.5795 53.2003 26.822 53.454 26.9886C53.7078 27.1553 54.0317 27.2386 54.4256 27.2386C54.7817 27.2386 55.0715 27.1723 55.2949 27.0398C55.5184 26.9072 55.6321 26.7311 55.6359 26.5114C55.6321 26.3144 55.5449 26.1572 55.3745 26.0398C55.204 25.9186 54.937 25.8239 54.5734 25.7557L53.0506 25.4659C52.1756 25.3068 51.5241 25.0133 51.0961 24.5852C50.6681 24.1534 50.4559 23.6042 50.4597 22.9375C50.4559 22.3542 50.6112 21.8561 50.9256 21.4432C51.24 21.0265 51.687 20.7083 52.2665 20.4886C52.8461 20.2689 53.5298 20.1591 54.3177 20.1591C55.4995 20.1591 56.4313 20.4072 57.1131 20.9034C57.7949 21.3958 58.1718 22.0739 58.2438 22.9375Z" fill="black" fill-opacity="0.8"/>
<rect x="93" y="3" width="70" height="40" rx="3" fill="white" fill-opacity="0.5" stroke="#666666" stroke-width="4" stroke-linecap="round"/>
<path d="M116.893 23.1818C116.893 24.4621 116.647 25.5473 116.155 26.4375C115.662 27.3277 114.996 28.0038 114.155 28.4659C113.318 28.928 112.378 29.1591 111.336 29.1591C110.291 29.1591 109.35 28.9261 108.513 28.4602C107.675 27.9943 107.011 27.3182 106.518 26.4318C106.03 25.5417 105.785 24.4583 105.785 23.1818C105.785 21.9015 106.03 20.8163 106.518 19.9261C107.011 19.036 107.675 18.3598 108.513 17.8977C109.35 17.4356 110.291 17.2045 111.336 17.2045C112.378 17.2045 113.318 17.4356 114.155 17.8977C114.996 18.3598 115.662 19.036 116.155 19.9261C116.647 20.8163 116.893 21.9015 116.893 23.1818ZM114.018 23.1818C114.018 22.4242 113.91 21.7841 113.694 21.2614C113.482 20.7386 113.175 20.3428 112.774 20.0739C112.376 19.8049 111.897 19.6705 111.336 19.6705C110.78 19.6705 110.3 19.8049 109.899 20.0739C109.497 20.3428 109.189 20.7386 108.973 21.2614C108.761 21.7841 108.655 22.4242 108.655 23.1818C108.655 23.9394 108.761 24.5795 108.973 25.1023C109.189 25.625 109.497 26.0208 109.899 26.2898C110.3 26.5587 110.78 26.6932 111.336 26.6932C111.897 26.6932 112.376 26.5587 112.774 26.2898C113.175 26.0208 113.482 25.625 113.694 25.1023C113.91 24.5795 114.018 23.9394 114.018 23.1818ZM118.359 29V17.3636H126.473V19.6477H121.172V22.0341H126.058V24.3239H121.172V26.7159H126.473V29H118.359ZM128.058 17.3636H131.541L134.496 24.5682H134.632L137.587 17.3636H141.07V29H138.331V21.8523H138.234L135.439 28.9261H133.689L130.894 21.8125H130.797V29H128.058V17.3636ZM150.267 22.9375L147.716 23.0057C147.69 22.8239 147.618 22.6629 147.5 22.5227C147.383 22.3788 147.229 22.267 147.04 22.1875C146.854 22.1042 146.638 22.0625 146.392 22.0625C146.07 22.0625 145.796 22.1269 145.568 22.2557C145.345 22.3845 145.235 22.5587 145.239 22.7784C145.235 22.9489 145.303 23.0966 145.443 23.2216C145.587 23.3466 145.843 23.447 146.21 23.5227L147.892 23.8409C148.763 24.0076 149.411 24.2841 149.835 24.6705C150.263 25.0568 150.479 25.5682 150.483 26.2045C150.479 26.803 150.301 27.3239 149.949 27.767C149.601 28.2102 149.123 28.5549 148.517 28.8011C147.911 29.0436 147.218 29.1648 146.438 29.1648C145.191 29.1648 144.209 28.9091 143.489 28.3977C142.773 27.8826 142.364 27.1932 142.262 26.3295L145.006 26.2614C145.066 26.5795 145.224 26.822 145.477 26.9886C145.731 27.1553 146.055 27.2386 146.449 27.2386C146.805 27.2386 147.095 27.1723 147.318 27.0398C147.542 26.9072 147.656 26.7311 147.659 26.5114C147.656 26.3144 147.568 26.1572 147.398 26.0398C147.227 25.9186 146.96 25.8239 146.597 25.7557L145.074 25.4659C144.199 25.3068 143.548 25.0133 143.12 24.5852C142.691 24.1534 142.479 23.6042 142.483 22.9375C142.479 22.3542 142.635 21.8561 142.949 21.4432C143.263 21.0265 143.71 20.7083 144.29 20.4886C144.87 20.2689 145.553 20.1591 146.341 20.1591C147.523 20.1591 148.455 20.4072 149.137 20.9034C149.818 21.3958 150.195 22.0739 150.267 22.9375Z" fill="black" fill-opacity="0.8"/>
<path d="M170.086 195.131C169.305 195.912 169.305 197.179 170.086 197.96L182.814 210.688C183.595 211.469 184.861 211.469 185.642 210.688C186.423 209.906 186.423 208.64 185.642 207.859L174.328 196.545L185.642 185.232C186.423 184.451 186.423 183.184 185.642 182.403C184.861 181.622 183.595 181.622 182.814 182.403L170.086 195.131ZM213.914 197.96C214.695 197.179 214.695 195.912 213.914 195.131L201.186 182.403C200.405 181.622 199.139 181.622 198.358 182.403C197.577 183.184 197.577 184.451 198.358 185.232L209.672 196.545L198.358 207.859C197.577 208.64 197.577 209.906 198.358 210.688C199.139 211.469 200.405 211.469 201.186 210.688L213.914 197.96ZM171.5 198.545H212.5V194.545H171.5V198.545Z" fill="#B3B3B3"/>
<path d="M171.086 101.586C170.305 102.367 170.305 103.633 171.086 104.414L183.814 117.142C184.595 117.923 185.861 117.923 186.642 117.142C187.423 116.361 187.423 115.095 186.642 114.314L175.328 103L186.642 91.6863C187.423 90.9052 187.423 89.6389 186.642 88.8579C185.861 88.0768 184.595 88.0768 183.814 88.8579L171.086 101.586ZM213 105C214.105 105 215 104.105 215 103C215 101.895 214.105 101 213 101V105ZM172.5 105H213V101H172.5V105Z" fill="#B3B3B3"/>
<path d="M129.779 51C129.779 49.8954 128.884 49 127.779 49C126.675 49 125.779 49.8954 125.779 51H129.779ZM126.365 74.9142C127.146 75.6953 128.412 75.6953 129.194 74.9142L141.921 62.1863C142.702 61.4052 142.702 60.1389 141.921 59.3579C141.14 58.5768 139.874 58.5768 139.093 59.3579L127.779 70.6716L116.466 59.3579C115.685 58.5768 114.418 58.5768 113.637 59.3579C112.856 60.1389 112.856 61.4052 113.637 62.1863L126.365 74.9142ZM125.779 51V73.5H129.779V51H125.779Z" fill="#B3B3B3"/>
<path d="M40.502 51C40.502 49.8954 39.6065 49 38.502 49C37.3974 49 36.502 49.8954 36.502 51H40.502ZM37.0877 74.9142C37.8688 75.6953 39.1351 75.6953 39.9162 74.9142L52.6441 62.1863C53.4251 61.4052 53.4251 60.1389 52.6441 59.3579C51.863 58.5768 50.5967 58.5768 49.8157 59.3579L38.502 70.6716L27.1882 59.3579C26.4072 58.5768 25.1409 58.5768 24.3598 59.3579C23.5788 60.1389 23.5788 61.4052 24.3598 62.1863L37.0877 74.9142ZM36.502 51V73.5H40.502V51H36.502Z" fill="#B3B3B3"/>
<circle cx="128" cy="44" r="12" fill="#757575"/>
<path d="M124.5 49.8333C124.179 49.8333 123.904 49.7191 123.676 49.4906C123.447 49.2621 123.333 48.9875 123.333 48.6666V42.8333C123.333 42.5125 123.447 42.2378 123.676 42.0094C123.904 41.7809 124.179 41.6666 124.5 41.6666H125.083V40.5C125.083 39.693 125.367 39.0052 125.936 38.4364C126.505 37.8677 127.193 37.5833 128 37.5833C128.807 37.5833 129.494 37.8677 130.063 38.4364C130.632 39.0052 130.916 39.693 130.916 40.5V41.6666H131.5C131.821 41.6666 132.095 41.7809 132.324 42.0094C132.552 42.2378 132.666 42.5125 132.666 42.8333V48.6666C132.666 48.9875 132.552 49.2621 132.324 49.4906C132.095 49.7191 131.821 49.8333 131.5 49.8333H124.5ZM124.5 48.6666H131.5V42.8333H124.5V48.6666ZM128 46.9166C128.321 46.9166 128.595 46.8024 128.824 46.5739C129.052 46.3455 129.166 46.0708 129.166 45.75C129.166 45.4291 129.052 45.1545 128.824 44.926C128.595 44.6975 128.321 44.5833 128 44.5833C127.679 44.5833 127.404 44.6975 127.176 44.926C126.947 45.1545 126.833 45.4291 126.833 45.75C126.833 46.0708 126.947 46.3455 127.176 46.5739C127.404 46.8024 127.679 46.9166 128 46.9166ZM126.25 41.6666H129.75V40.5C129.75 40.0139 129.58 39.6007 129.239 39.2604C128.899 38.9201 128.486 38.75 128 38.75C127.514 38.75 127.1 38.9201 126.76 39.2604C126.42 39.6007 126.25 40.0139 126.25 40.5V41.6666Z" fill="#E3E3E3"/>
<circle cx="39" cy="44" r="12" fill="#757575"/>
<path d="M35.4997 49.8333C35.1788 49.8333 34.9042 49.7191 34.6757 49.4906C34.4472 49.2621 34.333 48.9875 34.333 48.6666V42.8333C34.333 42.5125 34.4472 42.2378 34.6757 42.0094C34.9042 41.7809 35.1788 41.6666 35.4997 41.6666H36.083V40.5C36.083 39.693 36.3674 39.0052 36.9361 38.4364C37.5049 37.8677 38.1927 37.5833 38.9997 37.5833C39.8066 37.5833 40.4945 37.8677 41.0632 38.4364C41.632 39.0052 41.9163 39.693 41.9163 40.5V41.6666H42.4997C42.8205 41.6666 43.0952 41.7809 43.3236 42.0094C43.5521 42.2378 43.6663 42.5125 43.6663 42.8333V48.6666C43.6663 48.9875 43.5521 49.2621 43.3236 49.4906C43.0952 49.7191 42.8205 49.8333 42.4997 49.8333H35.4997ZM35.4997 48.6666H42.4997V42.8333H35.4997V48.6666ZM38.9997 46.9166C39.3205 46.9166 39.5952 46.8024 39.8236 46.5739C40.0521 46.3455 40.1663 46.0708 40.1663 45.75C40.1663 45.4291 40.0521 45.1545 39.8236 44.926C39.5952 44.6975 39.3205 44.5833 38.9997 44.5833C38.6788 44.5833 38.4042 44.6975 38.1757 44.926C37.9472 45.1545 37.833 45.4291 37.833 45.75C37.833 46.0708 37.9472 46.3455 38.1757 46.5739C38.4042 46.8024 38.6788 46.9166 38.9997 46.9166ZM37.2497 41.6666H40.7497V40.5C40.7497 40.0139 40.5795 39.6007 40.2393 39.2604C39.899 38.9201 39.4858 38.75 38.9997 38.75C38.5136 38.75 38.1004 38.9201 37.7601 39.2604C37.4198 39.6007 37.2497 40.0139 37.2497 40.5V41.6666Z" fill="#E3E3E3"/>
<rect x="91" y="169" width="64" height="19" rx="3" fill="#FF6F00" fill-opacity="0.75"/>
<path d="M114.982 173.364L117.584 181.886H117.68L120.283 173.364H123.43L119.504 185H115.76L111.834 173.364H114.982ZM124.507 185V173.364H129.314C130.185 173.364 130.937 173.534 131.57 173.875C132.206 174.212 132.697 174.684 133.041 175.29C133.386 175.892 133.558 176.593 133.558 177.392C133.558 178.195 133.382 178.898 133.03 179.5C132.682 180.098 132.183 180.562 131.536 180.892C130.888 181.222 130.119 181.386 129.229 181.386H126.263V179.17H128.706C129.13 179.17 129.485 179.097 129.769 178.949C130.057 178.801 130.274 178.595 130.422 178.33C130.57 178.061 130.644 177.748 130.644 177.392C130.644 177.032 130.57 176.722 130.422 176.46C130.274 176.195 130.057 175.991 129.769 175.847C129.481 175.703 129.127 175.631 128.706 175.631H127.32V185H124.507ZM134.769 185V173.364H139.576C140.447 173.364 141.199 173.534 141.831 173.875C142.468 174.212 142.958 174.684 143.303 175.29C143.648 175.892 143.82 176.593 143.82 177.392C143.82 178.195 143.644 178.898 143.292 179.5C142.943 180.098 142.445 180.562 141.797 180.892C141.149 181.222 140.381 181.386 139.49 181.386H136.524V179.17H138.968C139.392 179.17 139.746 179.097 140.03 178.949C140.318 178.801 140.536 178.595 140.684 178.33C140.831 178.061 140.905 177.748 140.905 177.392C140.905 177.032 140.831 176.722 140.684 176.46C140.536 176.195 140.318 175.991 140.03 175.847C139.742 175.703 139.388 175.631 138.968 175.631H137.581V185H134.769Z" fill="white"/>
<circle cx="102.5" cy="179.5" r="6.5" fill="#757575"/>
<path d="M103.572 175.273L103.376 181.328H101.624L101.428 175.273H103.572ZM102.498 184.124C102.194 184.124 101.933 184.016 101.714 183.8C101.498 183.584 101.39 183.322 101.39 183.016C101.39 182.714 101.498 182.457 101.714 182.244C101.933 182.028 102.194 181.92 102.498 181.92C102.79 181.92 103.048 182.028 103.269 182.244C103.494 182.457 103.606 182.714 103.606 183.016C103.606 183.22 103.553 183.406 103.448 183.574C103.346 183.741 103.211 183.875 103.043 183.974C102.879 184.074 102.697 184.124 102.498 184.124Z" fill="white"/>
<path d="M130.504 132C130.504 130.895 129.608 130 128.504 130C127.399 130 126.504 130.895 126.504 132H130.504ZM127.09 153.46C127.871 154.241 129.137 154.241 129.918 153.46L142.646 140.732C143.427 139.951 143.427 138.684 142.646 137.903C141.865 137.122 140.599 137.122 139.818 137.903L128.504 149.217L117.19 137.903C116.409 137.122 115.143 137.122 114.362 137.903C113.581 138.684 113.581 139.951 114.362 140.732L127.09 153.46ZM126.504 132V152.045H130.504V132H126.504Z" fill="#B3B3B3"/>
</svg>
