<svg width="384" height="212" viewBox="0 0 384 212" fill="none" xmlns="http://www.w3.org/2000/svg">
<rect x="3" y="168.545" width="160" height="40" rx="3" fill="white" fill-opacity="0.5" stroke="#666666" stroke-width="4" stroke-linecap="round"/>
<path d="M23.9295 182.909H27.0716L29.5318 187.778H29.6341L32.0943 182.909H35.2363L30.9806 190.659V194.545H28.1852V190.659L23.9295 182.909ZM38.2975 194.71C37.3809 194.71 36.593 194.523 35.9339 194.148C35.2786 193.769 34.7729 193.242 34.4169 192.568C34.0646 191.89 33.8885 191.104 33.8885 190.21C33.8885 189.312 34.0646 188.526 34.4169 187.852C34.7729 187.174 35.2786 186.648 35.9339 186.273C36.593 185.894 37.3809 185.705 38.2975 185.705C39.2142 185.705 40.0002 185.894 40.6555 186.273C41.3146 186.648 41.8203 187.174 42.1725 187.852C42.5286 188.526 42.7066 189.312 42.7066 190.21C42.7066 191.104 42.5286 191.89 42.1725 192.568C41.8203 193.242 41.3146 193.769 40.6555 194.148C40.0002 194.523 39.2142 194.71 38.2975 194.71ZM38.3146 192.614C38.6479 192.614 38.9301 192.511 39.1612 192.307C39.3922 192.102 39.5684 191.818 39.6896 191.455C39.8146 191.091 39.8771 190.67 39.8771 190.193C39.8771 189.708 39.8146 189.284 39.6896 188.92C39.5684 188.557 39.3922 188.273 39.1612 188.068C38.9301 187.864 38.6479 187.761 38.3146 187.761C37.9699 187.761 37.6782 187.864 37.4396 188.068C37.2047 188.273 37.0248 188.557 36.8998 188.92C36.7786 189.284 36.718 189.708 36.718 190.193C36.718 190.67 36.7786 191.091 36.8998 191.455C37.0248 191.818 37.2047 192.102 37.4396 192.307C37.6782 192.511 37.9699 192.614 38.3146 192.614ZM49.5846 190.778V185.818H52.3573V194.545H49.7096V192.92H49.6187C49.4255 193.455 49.096 193.879 48.6301 194.193C48.1679 194.504 47.6092 194.659 46.9539 194.659C46.3592 194.659 45.8365 194.523 45.3857 194.25C44.935 193.977 44.5846 193.597 44.3346 193.108C44.0846 192.615 43.9577 192.04 43.9539 191.381V185.818H46.7323V190.835C46.7361 191.309 46.8611 191.682 47.1073 191.955C47.3536 192.227 47.6888 192.364 48.113 192.364C48.3895 192.364 48.6376 192.303 48.8573 192.182C49.0808 192.057 49.257 191.877 49.3857 191.642C49.5183 191.403 49.5846 191.115 49.5846 190.778ZM53.9498 194.545V185.818H56.6487V187.409H56.7396C56.8987 186.833 57.1581 186.405 57.518 186.125C57.8778 185.841 58.2964 185.699 58.7737 185.699C58.9025 185.699 59.035 185.708 59.1714 185.727C59.3078 185.742 59.4347 185.767 59.5521 185.801V188.216C59.4195 188.17 59.2453 188.134 59.0294 188.108C58.8172 188.081 58.6278 188.068 58.4612 188.068C58.1316 188.068 57.8343 188.142 57.5691 188.29C57.3078 188.434 57.1013 188.636 56.9498 188.898C56.8021 189.155 56.7282 189.458 56.7282 189.807V194.545H53.9498ZM71.389 188.483L68.8379 188.551C68.8113 188.369 68.7394 188.208 68.622 188.068C68.5045 187.924 68.3511 187.812 68.1617 187.733C67.9761 187.65 67.7602 187.608 67.514 187.608C67.192 187.608 66.9174 187.672 66.6901 187.801C66.4667 187.93 66.3568 188.104 66.3606 188.324C66.3568 188.494 66.425 188.642 66.5651 188.767C66.7091 188.892 66.9648 188.992 67.3322 189.068L69.014 189.386C69.8852 189.553 70.5329 189.83 70.9572 190.216C71.3852 190.602 71.6011 191.114 71.6049 191.75C71.6011 192.348 71.4231 192.869 71.0708 193.312C70.7223 193.756 70.2451 194.1 69.639 194.347C69.0329 194.589 68.3398 194.71 67.5595 194.71C66.3132 194.71 65.3303 194.455 64.6106 193.943C63.8947 193.428 63.4856 192.739 63.3833 191.875L66.1276 191.807C66.1882 192.125 66.3454 192.367 66.5992 192.534C66.853 192.701 67.1769 192.784 67.5708 192.784C67.9269 192.784 68.2167 192.718 68.4401 192.585C68.6636 192.453 68.7773 192.276 68.781 192.057C68.7773 191.86 68.6901 191.703 68.5197 191.585C68.3492 191.464 68.0822 191.369 67.7185 191.301L66.1958 191.011C65.3208 190.852 64.6693 190.559 64.2413 190.131C63.8132 189.699 63.6011 189.15 63.6049 188.483C63.6011 187.9 63.7564 187.401 64.0708 186.989C64.3852 186.572 64.8322 186.254 65.4117 186.034C65.9913 185.814 66.675 185.705 67.4629 185.705C68.6447 185.705 69.5765 185.953 70.2583 186.449C70.9401 186.941 71.317 187.619 71.389 188.483ZM72.7968 194.545V185.818H75.4389V187.42H75.5354C75.7173 186.89 76.0241 186.472 76.4559 186.165C76.8877 185.858 77.4029 185.705 78.0014 185.705C78.6074 185.705 79.1264 185.86 79.5582 186.17C79.99 186.481 80.2646 186.898 80.382 187.42H80.4729C80.6358 186.901 80.954 186.487 81.4275 186.176C81.901 185.862 82.4597 185.705 83.1036 185.705C83.9294 185.705 84.5998 185.97 85.115 186.5C85.6301 187.026 85.8877 187.75 85.8877 188.67V194.545H83.1093V189.307C83.1093 188.871 82.9976 188.54 82.7741 188.312C82.5506 188.081 82.2608 187.966 81.9048 187.966C81.5222 187.966 81.2211 188.091 81.0014 188.341C80.7854 188.587 80.6775 188.919 80.6775 189.335V194.545H78.007V189.278C78.007 188.873 77.8972 188.553 77.6775 188.318C77.4578 188.083 77.168 187.966 76.8082 187.966C76.5657 187.966 76.3517 188.025 76.1661 188.142C75.9805 188.256 75.8347 188.419 75.7286 188.631C75.6264 188.843 75.5752 189.093 75.5752 189.381V194.545H72.7968ZM89.8935 194.693C89.3367 194.693 88.8424 194.6 88.4106 194.415C87.9826 194.225 87.6435 193.941 87.3935 193.562C87.1473 193.18 87.0242 192.701 87.0242 192.125C87.0242 191.64 87.1094 191.231 87.2799 190.898C87.4504 190.564 87.6852 190.294 87.9844 190.085C88.2837 189.877 88.6284 189.72 89.0185 189.614C89.4087 189.504 89.8254 189.43 90.2685 189.392C90.7647 189.347 91.1644 189.299 91.4674 189.25C91.7704 189.197 91.9901 189.123 92.1265 189.028C92.2666 188.93 92.3367 188.792 92.3367 188.614V188.585C92.3367 188.294 92.2363 188.068 92.0356 187.909C91.8348 187.75 91.564 187.67 91.2231 187.67C90.8557 187.67 90.5602 187.75 90.3367 187.909C90.1132 188.068 89.9712 188.288 89.9106 188.568L87.3481 188.477C87.4238 187.947 87.6189 187.473 87.9333 187.057C88.2515 186.636 88.6871 186.307 89.2401 186.068C89.7969 185.826 90.4655 185.705 91.2458 185.705C91.8026 185.705 92.3159 185.771 92.7856 185.903C93.2553 186.032 93.6644 186.222 94.0129 186.472C94.3613 186.718 94.6303 187.021 94.8197 187.381C95.0129 187.74 95.1094 188.151 95.1094 188.614V194.545H92.4958V193.33H92.4276C92.2723 193.625 92.0735 193.875 91.831 194.08C91.5924 194.284 91.3102 194.437 90.9844 194.54C90.6625 194.642 90.2988 194.693 89.8935 194.693ZM90.7515 192.875C91.0507 192.875 91.3197 192.814 91.5583 192.693C91.8007 192.572 91.9939 192.405 92.1379 192.193C92.2818 191.977 92.3538 191.727 92.3538 191.443V190.614C92.2742 190.655 92.1776 190.693 92.064 190.727C91.9541 190.761 91.8329 190.794 91.7004 190.824C91.5678 190.854 91.4314 190.881 91.2913 190.903C91.1511 190.926 91.0166 190.947 90.8879 190.966C90.6265 191.008 90.403 191.072 90.2174 191.159C90.0356 191.246 89.8954 191.36 89.7969 191.5C89.7022 191.636 89.6549 191.799 89.6549 191.989C89.6549 192.276 89.7572 192.496 89.9617 192.648C90.1701 192.799 90.4333 192.875 90.7515 192.875ZM96.6323 194.545V185.818H99.3312V187.409H99.4221C99.5812 186.833 99.8406 186.405 100.2 186.125C100.56 185.841 100.979 185.699 101.456 185.699C101.585 185.699 101.718 185.708 101.854 185.727C101.99 185.742 102.117 185.767 102.235 185.801V188.216C102.102 188.17 101.928 188.134 101.712 188.108C101.5 188.081 101.31 188.068 101.144 188.068C100.814 188.068 100.517 188.142 100.252 188.29C99.9903 188.434 99.7838 188.636 99.6323 188.898C99.4846 189.155 99.4107 189.458 99.4107 189.807V194.545H96.6323ZM108.523 185.818V187.864H103.017V185.818H108.523ZM104.171 183.727H106.949V191.801C106.949 191.972 106.976 192.11 107.029 192.216C107.086 192.318 107.167 192.392 107.273 192.437C107.379 192.479 107.506 192.5 107.654 192.5C107.76 192.5 107.872 192.49 107.989 192.472C108.11 192.449 108.201 192.43 108.262 192.415L108.682 194.42C108.55 194.458 108.362 194.506 108.12 194.562C107.881 194.619 107.595 194.655 107.262 194.67C106.61 194.701 106.051 194.625 105.586 194.443C105.123 194.258 104.769 193.97 104.523 193.58C104.281 193.189 104.163 192.699 104.171 192.108V183.727ZM115.805 189.568V194.545H113.026V182.909H115.714V187.42H115.81C116.007 186.883 116.329 186.462 116.776 186.159C117.227 185.856 117.778 185.705 118.43 185.705C119.043 185.705 119.577 185.841 120.032 186.114C120.486 186.383 120.839 186.763 121.089 187.256C121.342 187.748 121.467 188.324 121.464 188.983V194.545H118.685V189.528C118.689 189.044 118.568 188.665 118.322 188.392C118.075 188.119 117.729 187.983 117.282 187.983C116.99 187.983 116.733 188.047 116.509 188.176C116.289 188.301 116.117 188.481 115.992 188.716C115.871 188.951 115.808 189.235 115.805 189.568ZM128.653 190.778V185.818H131.425V194.545H128.778V192.92H128.687C128.494 193.455 128.164 193.879 127.698 194.193C127.236 194.504 126.677 194.659 126.022 194.659C125.427 194.659 124.905 194.523 124.454 194.25C124.003 193.977 123.653 193.597 123.403 193.108C123.153 192.615 123.026 192.04 123.022 191.381V185.818H125.8V190.835C125.804 191.309 125.929 191.682 126.175 191.955C126.422 192.227 126.757 192.364 127.181 192.364C127.458 192.364 127.706 192.303 127.925 192.182C128.149 192.057 128.325 191.877 128.454 191.642C128.586 191.403 128.653 191.115 128.653 190.778ZM133.018 194.545V182.909H135.796V187.312H135.853C135.967 187.047 136.128 186.792 136.336 186.545C136.548 186.299 136.817 186.098 137.143 185.943C137.472 185.784 137.866 185.705 138.325 185.705C138.931 185.705 139.497 185.864 140.024 186.182C140.554 186.5 140.982 186.99 141.308 187.653C141.633 188.316 141.796 189.161 141.796 190.187C141.796 191.176 141.639 192.004 141.325 192.67C141.014 193.337 140.594 193.837 140.063 194.17C139.537 194.504 138.952 194.67 138.308 194.67C137.868 194.67 137.488 194.598 137.166 194.455C136.844 194.311 136.573 194.121 136.353 193.886C136.137 193.651 135.971 193.4 135.853 193.131H135.768V194.545H133.018ZM135.74 190.182C135.74 190.651 135.802 191.061 135.927 191.409C136.056 191.758 136.24 192.028 136.478 192.222C136.721 192.411 137.01 192.506 137.347 192.506C137.688 192.506 137.978 192.411 138.217 192.222C138.455 192.028 138.635 191.758 138.757 191.409C138.882 191.061 138.944 190.651 138.944 190.182C138.944 189.712 138.882 189.305 138.757 188.96C138.635 188.615 138.455 188.348 138.217 188.159C137.982 187.97 137.692 187.875 137.347 187.875C137.007 187.875 136.717 187.968 136.478 188.153C136.24 188.339 136.056 188.604 135.927 188.949C135.802 189.294 135.74 189.705 135.74 190.182Z" fill="black" fill-opacity="0.8"/>
<rect x="221" y="168.545" width="160" height="40" rx="3" fill="white" fill-opacity="0.5" stroke="#666666" stroke-width="4" stroke-linecap="round"/>
<path d="M251.144 182.909H254.286L256.746 187.778H256.849L259.309 182.909H262.451L258.195 190.659V194.545H255.4V190.659L251.144 182.909ZM265.512 194.71C264.596 194.71 263.808 194.523 263.149 194.148C262.493 193.769 261.988 193.242 261.631 192.568C261.279 191.89 261.103 191.104 261.103 190.21C261.103 189.312 261.279 188.526 261.631 187.852C261.988 187.174 262.493 186.648 263.149 186.273C263.808 185.894 264.596 185.705 265.512 185.705C266.429 185.705 267.215 185.894 267.87 186.273C268.529 186.648 269.035 187.174 269.387 187.852C269.743 188.526 269.921 189.312 269.921 190.21C269.921 191.104 269.743 191.89 269.387 192.568C269.035 193.242 268.529 193.769 267.87 194.148C267.215 194.523 266.429 194.71 265.512 194.71ZM265.529 192.614C265.863 192.614 266.145 192.511 266.376 192.307C266.607 192.102 266.783 191.818 266.904 191.455C267.029 191.091 267.092 190.67 267.092 190.193C267.092 189.708 267.029 189.284 266.904 188.92C266.783 188.557 266.607 188.273 266.376 188.068C266.145 187.864 265.863 187.761 265.529 187.761C265.185 187.761 264.893 187.864 264.654 188.068C264.419 188.273 264.239 188.557 264.114 188.92C263.993 189.284 263.933 189.708 263.933 190.193C263.933 190.67 263.993 191.091 264.114 191.455C264.239 191.818 264.419 192.102 264.654 192.307C264.893 192.511 265.185 192.614 265.529 192.614ZM276.799 190.778V185.818H279.572V194.545H276.924V192.92H276.833C276.64 193.455 276.311 193.879 275.845 194.193C275.383 194.504 274.824 194.659 274.169 194.659C273.574 194.659 273.051 194.523 272.6 194.25C272.15 193.977 271.799 193.597 271.549 193.108C271.299 192.615 271.172 192.04 271.169 191.381V185.818H273.947V190.835C273.951 191.309 274.076 191.682 274.322 191.955C274.568 192.227 274.903 192.364 275.328 192.364C275.604 192.364 275.852 192.303 276.072 192.182C276.295 192.057 276.472 191.877 276.6 191.642C276.733 191.403 276.799 191.115 276.799 190.778ZM281.164 194.545V185.818H283.863V187.409H283.954C284.113 186.833 284.373 186.405 284.733 186.125C285.092 185.841 285.511 185.699 285.988 185.699C286.117 185.699 286.25 185.708 286.386 185.727C286.522 185.742 286.649 185.767 286.767 185.801V188.216C286.634 188.17 286.46 188.134 286.244 188.108C286.032 188.081 285.842 188.068 285.676 188.068C285.346 188.068 285.049 188.142 284.784 188.29C284.522 188.434 284.316 188.636 284.164 188.898C284.017 189.155 283.943 189.458 283.943 189.807V194.545H281.164ZM294.172 194.67C293.528 194.67 292.943 194.504 292.416 194.17C291.89 193.837 291.469 193.337 291.155 192.67C290.84 192.004 290.683 191.176 290.683 190.187C290.683 189.161 290.846 188.316 291.172 187.653C291.498 186.99 291.924 186.5 292.45 186.182C292.981 185.864 293.551 185.705 294.16 185.705C294.619 185.705 295.011 185.784 295.337 185.943C295.662 186.098 295.931 186.299 296.143 186.545C296.356 186.792 296.517 187.047 296.626 187.312H296.683V182.909H299.462V194.545H296.712V193.131H296.626C296.509 193.4 296.342 193.651 296.126 193.886C295.91 194.121 295.64 194.311 295.314 194.455C294.992 194.598 294.611 194.67 294.172 194.67ZM295.138 192.506C295.475 192.506 295.763 192.411 296.001 192.222C296.24 192.028 296.424 191.758 296.552 191.409C296.681 191.061 296.746 190.651 296.746 190.182C296.746 189.705 296.681 189.294 296.552 188.949C296.427 188.604 296.244 188.339 296.001 188.153C295.763 187.968 295.475 187.875 295.138 187.875C294.793 187.875 294.501 187.97 294.263 188.159C294.024 188.348 293.842 188.615 293.717 188.96C293.596 189.305 293.535 189.712 293.535 190.182C293.535 190.651 293.598 191.061 293.723 191.409C293.848 191.758 294.028 192.028 294.263 192.222C294.501 192.411 294.793 192.506 295.138 192.506ZM305.122 194.71C304.209 194.71 303.421 194.53 302.759 194.17C302.1 193.807 301.592 193.29 301.236 192.619C300.884 191.945 300.707 191.144 300.707 190.216C300.707 189.314 300.885 188.526 301.242 187.852C301.598 187.174 302.1 186.648 302.747 186.273C303.395 185.894 304.158 185.705 305.037 185.705C305.658 185.705 306.226 185.801 306.742 185.994C307.257 186.187 307.702 186.473 308.077 186.852C308.452 187.231 308.743 187.699 308.952 188.256C309.16 188.809 309.264 189.443 309.264 190.159V190.852H301.679V189.239H306.679C306.675 188.943 306.605 188.68 306.469 188.449C306.332 188.218 306.145 188.038 305.906 187.909C305.671 187.776 305.401 187.71 305.094 187.71C304.783 187.71 304.505 187.78 304.259 187.92C304.012 188.057 303.817 188.244 303.673 188.483C303.529 188.718 303.454 188.985 303.446 189.284V190.926C303.446 191.282 303.516 191.595 303.656 191.864C303.796 192.129 303.995 192.335 304.253 192.483C304.51 192.631 304.817 192.705 305.173 192.705C305.42 192.705 305.643 192.67 305.844 192.602C306.045 192.534 306.217 192.434 306.361 192.301C306.505 192.169 306.613 192.006 306.685 191.812L309.236 191.886C309.13 192.458 308.897 192.956 308.537 193.381C308.181 193.801 307.713 194.129 307.134 194.364C306.554 194.595 305.884 194.71 305.122 194.71ZM318.739 185.818L315.745 194.545H312.563L309.574 185.818H312.5L314.108 191.83H314.199L315.813 185.818H318.739ZM319.628 194.545V185.818H322.407V194.545H319.628ZM321.02 184.801C320.63 184.801 320.295 184.672 320.015 184.415C319.734 184.153 319.594 183.839 319.594 183.472C319.594 183.108 319.734 182.797 320.015 182.54C320.295 182.278 320.63 182.148 321.02 182.148C321.414 182.148 321.749 182.278 322.026 182.54C322.306 182.797 322.446 183.108 322.446 183.472C322.446 183.839 322.306 184.153 322.026 184.415C321.749 184.672 321.414 184.801 321.02 184.801ZM328.073 194.71C327.152 194.71 326.363 194.521 325.704 194.142C325.048 193.763 324.545 193.237 324.192 192.562C323.84 191.884 323.664 191.1 323.664 190.21C323.664 189.316 323.84 188.532 324.192 187.858C324.548 187.18 325.054 186.651 325.709 186.273C326.368 185.894 327.154 185.705 328.067 185.705C328.874 185.705 329.577 185.85 330.175 186.142C330.777 186.434 331.247 186.847 331.584 187.381C331.925 187.911 332.105 188.534 332.124 189.25H329.527C329.474 188.803 329.323 188.453 329.073 188.199C328.827 187.945 328.505 187.818 328.107 187.818C327.785 187.818 327.503 187.909 327.26 188.091C327.018 188.269 326.829 188.534 326.692 188.886C326.56 189.235 326.493 189.667 326.493 190.182C326.493 190.697 326.56 191.133 326.692 191.489C326.829 191.841 327.018 192.108 327.26 192.29C327.503 192.468 327.785 192.557 328.107 192.557C328.365 192.557 328.592 192.502 328.789 192.392C328.99 192.282 329.154 192.121 329.283 191.909C329.412 191.693 329.493 191.432 329.527 191.125H332.124C332.098 191.845 331.918 192.473 331.584 193.011C331.255 193.549 330.791 193.968 330.192 194.267C329.598 194.562 328.891 194.71 328.073 194.71ZM337.449 194.71C336.537 194.71 335.749 194.53 335.086 194.17C334.427 193.807 333.919 193.29 333.563 192.619C333.211 191.945 333.035 191.144 333.035 190.216C333.035 189.314 333.213 188.526 333.569 187.852C333.925 187.174 334.427 186.648 335.074 186.273C335.722 185.894 336.485 185.705 337.364 185.705C337.985 185.705 338.554 185.801 339.069 185.994C339.584 186.187 340.029 186.473 340.404 186.852C340.779 187.231 341.071 187.699 341.279 188.256C341.487 188.809 341.592 189.443 341.592 190.159V190.852H334.006V189.239H339.006C339.003 188.943 338.932 188.68 338.796 188.449C338.66 188.218 338.472 188.038 338.234 187.909C337.999 187.776 337.728 187.71 337.421 187.71C337.11 187.71 336.832 187.78 336.586 187.92C336.34 188.057 336.145 188.244 336.001 188.483C335.857 188.718 335.781 188.985 335.773 189.284V190.926C335.773 191.282 335.843 191.595 335.984 191.864C336.124 192.129 336.323 192.335 336.58 192.483C336.838 192.631 337.145 192.705 337.501 192.705C337.747 192.705 337.97 192.67 338.171 192.602C338.372 192.534 338.544 192.434 338.688 192.301C338.832 192.169 338.94 192.006 339.012 191.812L341.563 191.886C341.457 192.458 341.224 192.956 340.864 193.381C340.508 193.801 340.04 194.129 339.461 194.364C338.881 194.595 338.211 194.71 337.449 194.71ZM350.454 188.483L347.903 188.551C347.876 188.369 347.804 188.208 347.687 188.068C347.569 187.924 347.416 187.812 347.227 187.733C347.041 187.65 346.825 187.608 346.579 187.608C346.257 187.608 345.982 187.672 345.755 187.801C345.532 187.93 345.422 188.104 345.425 188.324C345.422 188.494 345.49 188.642 345.63 188.767C345.774 188.892 346.03 188.992 346.397 189.068L348.079 189.386C348.95 189.553 349.598 189.83 350.022 190.216C350.45 190.602 350.666 191.114 350.67 191.75C350.666 192.348 350.488 192.869 350.136 193.312C349.787 193.756 349.31 194.1 348.704 194.347C348.098 194.589 347.405 194.71 346.624 194.71C345.378 194.71 344.395 194.455 343.675 193.943C342.96 193.428 342.55 192.739 342.448 191.875L345.193 191.807C345.253 192.125 345.41 192.367 345.664 192.534C345.918 192.701 346.242 192.784 346.636 192.784C346.992 192.784 347.282 192.718 347.505 192.585C347.728 192.453 347.842 192.276 347.846 192.057C347.842 191.86 347.755 191.703 347.585 191.585C347.414 191.464 347.147 191.369 346.783 191.301L345.261 191.011C344.386 190.852 343.734 190.559 343.306 190.131C342.878 189.699 342.666 189.15 342.67 188.483C342.666 187.9 342.821 187.401 343.136 186.989C343.45 186.572 343.897 186.254 344.477 186.034C345.056 185.814 345.74 185.705 346.528 185.705C347.71 185.705 348.641 185.953 349.323 186.449C350.005 186.941 350.382 187.619 350.454 188.483Z" fill="black" fill-opacity="0.8"/>
<rect x="221" y="91" width="160" height="40" rx="3" fill="white" fill-opacity="0.5" stroke="#666666" stroke-width="4" stroke-linecap="round"/>
<path d="M266.928 109.58H264.088C264.05 109.288 263.972 109.025 263.855 108.79C263.737 108.555 263.582 108.354 263.389 108.188C263.195 108.021 262.966 107.894 262.701 107.807C262.44 107.716 262.15 107.67 261.832 107.67C261.267 107.67 260.781 107.809 260.372 108.085C259.966 108.362 259.654 108.761 259.434 109.284C259.218 109.807 259.11 110.439 259.11 111.182C259.11 111.955 259.22 112.602 259.44 113.125C259.663 113.644 259.976 114.036 260.377 114.301C260.783 114.562 261.262 114.693 261.815 114.693C262.125 114.693 262.408 114.653 262.661 114.574C262.919 114.494 263.144 114.379 263.338 114.227C263.534 114.072 263.695 113.884 263.82 113.665C263.949 113.441 264.038 113.189 264.088 112.909L266.928 112.926C266.879 113.441 266.73 113.949 266.48 114.449C266.233 114.949 265.894 115.405 265.463 115.818C265.031 116.227 264.504 116.553 263.883 116.795C263.266 117.038 262.557 117.159 261.758 117.159C260.705 117.159 259.762 116.928 258.928 116.466C258.099 116 257.444 115.322 256.963 114.432C256.481 113.542 256.241 112.458 256.241 111.182C256.241 109.902 256.485 108.816 256.974 107.926C257.463 107.036 258.124 106.36 258.957 105.898C259.79 105.436 260.724 105.205 261.758 105.205C262.463 105.205 263.114 105.303 263.713 105.5C264.311 105.693 264.838 105.977 265.292 106.352C265.747 106.723 266.116 107.18 266.4 107.722C266.684 108.263 266.86 108.883 266.928 109.58ZM272.436 117.165C271.519 117.165 270.731 116.977 270.072 116.602C269.417 116.223 268.911 115.697 268.555 115.023C268.203 114.345 268.027 113.559 268.027 112.665C268.027 111.767 268.203 110.981 268.555 110.307C268.911 109.629 269.417 109.102 270.072 108.727C270.731 108.348 271.519 108.159 272.436 108.159C273.352 108.159 274.138 108.348 274.794 108.727C275.453 109.102 275.958 109.629 276.311 110.307C276.667 110.981 276.845 111.767 276.845 112.665C276.845 113.559 276.667 114.345 276.311 115.023C275.958 115.697 275.453 116.223 274.794 116.602C274.138 116.977 273.352 117.165 272.436 117.165ZM272.453 115.068C272.786 115.068 273.068 114.966 273.299 114.761C273.53 114.557 273.707 114.273 273.828 113.909C273.953 113.545 274.015 113.125 274.015 112.648C274.015 112.163 273.953 111.739 273.828 111.375C273.707 111.011 273.53 110.727 273.299 110.523C273.068 110.318 272.786 110.216 272.453 110.216C272.108 110.216 271.816 110.318 271.578 110.523C271.343 110.727 271.163 111.011 271.038 111.375C270.917 111.739 270.856 112.163 270.856 112.648C270.856 113.125 270.917 113.545 271.038 113.909C271.163 114.273 271.343 114.557 271.578 114.761C271.816 114.966 272.108 115.068 272.453 115.068ZM278.092 117V108.273H280.734V109.875H280.831C281.013 109.345 281.319 108.926 281.751 108.619C282.183 108.312 282.698 108.159 283.297 108.159C283.903 108.159 284.422 108.314 284.853 108.625C285.285 108.936 285.56 109.352 285.677 109.875H285.768C285.931 109.356 286.249 108.941 286.723 108.631C287.196 108.316 287.755 108.159 288.399 108.159C289.225 108.159 289.895 108.424 290.41 108.955C290.925 109.481 291.183 110.205 291.183 111.125V117H288.405V111.761C288.405 111.326 288.293 110.994 288.069 110.767C287.846 110.536 287.556 110.42 287.2 110.42C286.817 110.42 286.516 110.545 286.297 110.795C286.081 111.042 285.973 111.373 285.973 111.79V117H283.302V111.733C283.302 111.328 283.192 111.008 282.973 110.773C282.753 110.538 282.463 110.42 282.103 110.42C281.861 110.42 281.647 110.479 281.461 110.597C281.276 110.71 281.13 110.873 281.024 111.085C280.922 111.297 280.87 111.547 280.87 111.835V117H278.092ZM292.729 117V108.273H295.371V109.875H295.467C295.649 109.345 295.956 108.926 296.388 108.619C296.819 108.312 297.335 108.159 297.933 108.159C298.539 108.159 299.058 108.314 299.49 108.625C299.922 108.936 300.196 109.352 300.314 109.875H300.405C300.568 109.356 300.886 108.941 301.359 108.631C301.833 108.316 302.391 108.159 303.035 108.159C303.861 108.159 304.532 108.424 305.047 108.955C305.562 109.481 305.819 110.205 305.819 111.125V117H303.041V111.761C303.041 111.326 302.929 110.994 302.706 110.767C302.482 110.536 302.193 110.42 301.837 110.42C301.454 110.42 301.153 110.545 300.933 110.795C300.717 111.042 300.609 111.373 300.609 111.79V117H297.939V111.733C297.939 111.328 297.829 111.008 297.609 110.773C297.39 110.538 297.1 110.42 296.74 110.42C296.497 110.42 296.283 110.479 296.098 110.597C295.912 110.71 295.766 110.873 295.66 111.085C295.558 111.297 295.507 111.547 295.507 111.835V117H292.729ZM312.996 113.233V108.273H315.768V117H313.121V115.375H313.03C312.837 115.909 312.507 116.333 312.041 116.648C311.579 116.958 311.02 117.114 310.365 117.114C309.77 117.114 309.248 116.977 308.797 116.705C308.346 116.432 307.996 116.051 307.746 115.562C307.496 115.07 307.369 114.494 307.365 113.835V108.273H310.143V113.29C310.147 113.763 310.272 114.136 310.518 114.409C310.765 114.682 311.1 114.818 311.524 114.818C311.801 114.818 312.049 114.758 312.268 114.636C312.492 114.511 312.668 114.331 312.797 114.097C312.929 113.858 312.996 113.57 312.996 113.233ZM320.139 112.023V117H317.361V108.273H320.003V109.875H320.1C320.293 109.341 320.622 108.922 321.088 108.619C321.554 108.312 322.109 108.159 322.753 108.159C323.367 108.159 323.899 108.297 324.35 108.574C324.804 108.847 325.156 109.229 325.406 109.722C325.66 110.21 325.785 110.782 325.781 111.438V117H323.003V111.983C323.007 111.498 322.884 111.119 322.634 110.847C322.387 110.574 322.045 110.438 321.605 110.438C321.314 110.438 321.056 110.502 320.833 110.631C320.613 110.756 320.442 110.936 320.321 111.17C320.204 111.405 320.143 111.689 320.139 112.023ZM327.326 117V108.273H330.104V117H327.326ZM328.718 107.256C328.327 107.256 327.992 107.127 327.712 106.869C327.432 106.608 327.291 106.294 327.291 105.926C327.291 105.562 327.432 105.252 327.712 104.994C327.992 104.733 328.327 104.602 328.718 104.602C329.112 104.602 329.447 104.733 329.723 104.994C330.004 105.252 330.144 105.562 330.144 105.926C330.144 106.294 330.004 106.608 329.723 106.869C329.447 107.127 329.112 107.256 328.718 107.256ZM336.623 108.273V110.318H331.117V108.273H336.623ZM332.27 106.182H335.049V114.256C335.049 114.426 335.075 114.564 335.128 114.67C335.185 114.773 335.267 114.847 335.373 114.892C335.479 114.934 335.606 114.955 335.753 114.955C335.859 114.955 335.971 114.945 336.088 114.926C336.21 114.903 336.301 114.884 336.361 114.869L336.782 116.875C336.649 116.913 336.462 116.96 336.219 117.017C335.981 117.074 335.695 117.11 335.361 117.125C334.71 117.155 334.151 117.08 333.685 116.898C333.223 116.712 332.869 116.424 332.623 116.034C332.38 115.644 332.263 115.153 332.27 114.562V106.182ZM339.563 120.273C339.23 120.273 338.915 120.246 338.62 120.193C338.324 120.144 338.071 120.078 337.859 119.994L338.472 117.977C338.745 118.068 338.991 118.121 339.211 118.136C339.434 118.152 339.626 118.116 339.785 118.028C339.948 117.945 340.073 117.795 340.16 117.58L340.268 117.318L337.165 108.273H340.074L341.682 114.5H341.773L343.404 108.273H346.33L343.04 117.835C342.881 118.313 342.656 118.733 342.364 119.097C342.076 119.464 341.703 119.752 341.245 119.96C340.79 120.169 340.23 120.273 339.563 120.273Z" fill="black" fill-opacity="0.8"/>
<path d="M106.261 156H104.398L108.585 144.364H110.614L114.801 156H112.938L109.648 146.477H109.557L106.261 156ZM106.574 151.443H112.619V152.92H106.574V151.443ZM116.306 156V144.364H120.453C121.359 144.364 122.109 144.528 122.703 144.858C123.298 145.187 123.743 145.638 124.038 146.21C124.334 146.778 124.482 147.419 124.482 148.131C124.482 148.847 124.332 149.491 124.033 150.062C123.737 150.631 123.29 151.081 122.692 151.415C122.097 151.744 121.349 151.909 120.448 151.909H117.595V150.42H120.288C120.86 150.42 121.324 150.322 121.681 150.125C122.037 149.924 122.298 149.652 122.465 149.307C122.631 148.962 122.715 148.57 122.715 148.131C122.715 147.691 122.631 147.301 122.465 146.96C122.298 146.619 122.035 146.352 121.675 146.159C121.319 145.966 120.849 145.869 120.266 145.869H118.061V156H116.306ZM128.12 144.364V156H126.364V144.364H128.12Z" fill="#B3B3B3"/>
<rect x="3" y="91" width="160" height="40" rx="3" fill="#FF6F00" fill-opacity="0.75" stroke="#757575" stroke-width="6" stroke-linecap="round"/>
<path d="M34.2456 117H29.9445V105.364H34.2399C35.4256 105.364 36.4464 105.597 37.3024 106.062C38.1623 106.525 38.8252 107.191 39.2911 108.062C39.757 108.93 39.9899 109.968 39.9899 111.176C39.9899 112.388 39.757 113.43 39.2911 114.301C38.829 115.172 38.168 115.841 37.3081 116.307C36.4483 116.769 35.4274 117 34.2456 117ZM32.757 114.602H34.1377C34.7892 114.602 35.3403 114.492 35.7911 114.273C36.2456 114.049 36.5884 113.688 36.8195 113.188C37.0543 112.684 37.1718 112.013 37.1718 111.176C37.1718 110.339 37.0543 109.672 36.8195 109.176C36.5846 108.676 36.2381 108.316 35.7797 108.097C35.3252 107.873 34.7646 107.761 34.0979 107.761H32.757V114.602ZM41.456 117V105.364H49.5696V107.648H44.2685V110.034H49.1549V112.324H44.2685V114.716H49.5696V117H41.456ZM51.155 117V105.364H55.9618C56.833 105.364 57.5849 105.521 58.2175 105.835C58.8539 106.146 59.3444 106.593 59.6891 107.176C60.0338 107.756 60.2061 108.443 60.2061 109.239C60.2061 110.045 60.03 110.731 59.6777 111.295C59.3255 111.856 58.8255 112.284 58.1777 112.58C57.53 112.871 56.763 113.017 55.8766 113.017H52.8368V110.801H55.3539C55.7781 110.801 56.1323 110.746 56.4164 110.636C56.7042 110.523 56.922 110.352 57.0698 110.125C57.2175 109.894 57.2914 109.598 57.2914 109.239C57.2914 108.879 57.2175 108.581 57.0698 108.347C56.922 108.108 56.7042 107.93 56.4164 107.812C56.1285 107.691 55.7743 107.631 55.3539 107.631H53.9675V117H51.155ZM57.7061 111.682L60.6039 117H57.5357L54.6948 111.682H57.7061ZM69.1354 117H64.8342V105.364H69.1297C70.3153 105.364 71.3361 105.597 72.1922 106.062C73.052 106.525 73.7149 107.191 74.1808 108.062C74.6467 108.93 74.8797 109.968 74.8797 111.176C74.8797 112.388 74.6467 113.43 74.1808 114.301C73.7187 115.172 73.0577 115.841 72.1979 116.307C71.338 116.769 70.3172 117 69.1354 117ZM67.6467 114.602H69.0274C69.6789 114.602 70.2301 114.492 70.6808 114.273C71.1354 114.049 71.4782 113.688 71.7092 113.188C71.9441 112.684 72.0615 112.013 72.0615 111.176C72.0615 110.339 71.9441 109.672 71.7092 109.176C71.4744 108.676 71.1278 108.316 70.6695 108.097C70.2149 107.873 69.6543 107.761 68.9877 107.761H67.6467V114.602ZM76.3457 117V108.273H79.1241V117H76.3457ZM77.7378 107.256C77.3476 107.256 77.0124 107.127 76.7321 106.869C76.4518 106.608 76.3116 106.294 76.3116 105.926C76.3116 105.562 76.4518 105.252 76.7321 104.994C77.0124 104.733 77.3476 104.602 77.7378 104.602C78.1317 104.602 78.467 104.733 78.7435 104.994C79.0238 105.252 79.1639 105.562 79.1639 105.926C79.1639 106.294 79.0238 106.608 78.7435 106.869C78.467 107.127 78.1317 107.256 77.7378 107.256ZM80.7166 117V108.273H83.4155V109.864H83.5064C83.6655 109.288 83.925 108.86 84.2848 108.58C84.6446 108.295 85.0632 108.153 85.5405 108.153C85.6693 108.153 85.8018 108.163 85.9382 108.182C86.0746 108.197 86.2015 108.222 86.3189 108.256V110.67C86.1863 110.625 86.0121 110.589 85.7962 110.562C85.584 110.536 85.3946 110.523 85.228 110.523C84.8984 110.523 84.6011 110.597 84.3359 110.744C84.0746 110.888 83.8681 111.091 83.7166 111.352C83.5689 111.61 83.495 111.913 83.495 112.261V117H80.7166ZM90.9014 117.165C89.9885 117.165 89.2007 116.985 88.5378 116.625C87.8787 116.261 87.3711 115.744 87.0151 115.074C86.6628 114.4 86.4866 113.598 86.4866 112.67C86.4866 111.769 86.6647 110.981 87.0207 110.307C87.3768 109.629 87.8787 109.102 88.5264 108.727C89.1741 108.348 89.9374 108.159 90.8162 108.159C91.4374 108.159 92.0056 108.256 92.5207 108.449C93.0359 108.642 93.481 108.928 93.856 109.307C94.231 109.686 94.5226 110.153 94.731 110.71C94.9393 111.263 95.0435 111.898 95.0435 112.614V113.307H87.4582V111.693H92.4582C92.4545 111.398 92.3844 111.134 92.248 110.903C92.1116 110.672 91.9241 110.492 91.6855 110.364C91.4507 110.231 91.1798 110.165 90.873 110.165C90.5624 110.165 90.284 110.235 90.0378 110.375C89.7916 110.511 89.5965 110.699 89.4526 110.938C89.3086 111.172 89.2329 111.439 89.2253 111.739V113.381C89.2253 113.737 89.2954 114.049 89.4355 114.318C89.5757 114.583 89.7745 114.79 90.0321 114.938C90.2897 115.085 90.5965 115.159 90.9526 115.159C91.1988 115.159 91.4223 115.125 91.623 115.057C91.8238 114.989 91.9961 114.888 92.1401 114.756C92.284 114.623 92.392 114.46 92.4639 114.267L95.0151 114.341C94.909 114.913 94.676 115.411 94.3162 115.835C93.9601 116.256 93.4923 116.583 92.9128 116.818C92.3332 117.049 91.6628 117.165 90.9014 117.165ZM100.36 117.165C99.4399 117.165 98.6501 116.975 97.991 116.597C97.3357 116.218 96.832 115.691 96.4797 115.017C96.1274 114.339 95.9513 113.555 95.9513 112.665C95.9513 111.771 96.1274 110.987 96.4797 110.312C96.8357 109.634 97.3414 109.106 97.9967 108.727C98.6558 108.348 99.4418 108.159 100.355 108.159C101.161 108.159 101.864 108.305 102.463 108.597C103.065 108.888 103.535 109.301 103.872 109.835C104.213 110.366 104.393 110.989 104.411 111.705H101.815C101.762 111.258 101.61 110.907 101.36 110.653C101.114 110.4 100.792 110.273 100.394 110.273C100.072 110.273 99.7903 110.364 99.5479 110.545C99.3054 110.723 99.116 110.989 98.9797 111.341C98.8471 111.689 98.7808 112.121 98.7808 112.636C98.7808 113.152 98.8471 113.587 98.9797 113.943C99.116 114.295 99.3054 114.562 99.5479 114.744C99.7903 114.922 100.072 115.011 100.394 115.011C100.652 115.011 100.879 114.956 101.076 114.847C101.277 114.737 101.442 114.576 101.571 114.364C101.699 114.148 101.781 113.886 101.815 113.58H104.411C104.385 114.299 104.205 114.928 103.872 115.466C103.542 116.004 103.078 116.422 102.48 116.722C101.885 117.017 101.179 117.165 100.36 117.165ZM110.584 108.273V110.318H105.078V108.273H110.584ZM106.231 106.182H109.01V114.256C109.01 114.426 109.036 114.564 109.089 114.67C109.146 114.773 109.227 114.847 109.334 114.892C109.44 114.934 109.566 114.955 109.714 114.955C109.82 114.955 109.932 114.945 110.049 114.926C110.171 114.903 110.262 114.884 110.322 114.869L110.743 116.875C110.61 116.913 110.423 116.96 110.18 117.017C109.941 117.074 109.655 117.11 109.322 117.125C108.671 117.155 108.112 117.08 107.646 116.898C107.184 116.712 106.83 116.424 106.584 116.034C106.341 115.644 106.224 115.153 106.231 114.562V106.182ZM115.805 117.165C114.889 117.165 114.101 116.977 113.442 116.602C112.786 116.223 112.281 115.697 111.925 115.023C111.572 114.345 111.396 113.559 111.396 112.665C111.396 111.767 111.572 110.981 111.925 110.307C112.281 109.629 112.786 109.102 113.442 108.727C114.101 108.348 114.889 108.159 115.805 108.159C116.722 108.159 117.508 108.348 118.163 108.727C118.822 109.102 119.328 109.629 119.68 110.307C120.036 110.981 120.214 111.767 120.214 112.665C120.214 113.559 120.036 114.345 119.68 115.023C119.328 115.697 118.822 116.223 118.163 116.602C117.508 116.977 116.722 117.165 115.805 117.165ZM115.822 115.068C116.156 115.068 116.438 114.966 116.669 114.761C116.9 114.557 117.076 114.273 117.197 113.909C117.322 113.545 117.385 113.125 117.385 112.648C117.385 112.163 117.322 111.739 117.197 111.375C117.076 111.011 116.9 110.727 116.669 110.523C116.438 110.318 116.156 110.216 115.822 110.216C115.478 110.216 115.186 110.318 114.947 110.523C114.712 110.727 114.533 111.011 114.408 111.375C114.286 111.739 114.226 112.163 114.226 112.648C114.226 113.125 114.286 113.545 114.408 113.909C114.533 114.273 114.712 114.557 114.947 114.761C115.186 114.966 115.478 115.068 115.822 115.068ZM121.462 117V108.273H124.16V109.864H124.251C124.41 109.288 124.67 108.86 125.03 108.58C125.39 108.295 125.808 108.153 126.285 108.153C126.414 108.153 126.547 108.163 126.683 108.182C126.82 108.197 126.946 108.222 127.064 108.256V110.67C126.931 110.625 126.757 110.589 126.541 110.562C126.329 110.536 126.14 110.523 125.973 110.523C125.643 110.523 125.346 110.597 125.081 110.744C124.82 110.888 124.613 111.091 124.462 111.352C124.314 111.61 124.24 111.913 124.24 112.261V117H121.462ZM129.984 120.273C129.651 120.273 129.337 120.246 129.041 120.193C128.746 120.144 128.492 120.078 128.28 119.994L128.894 117.977C129.166 118.068 129.413 118.121 129.632 118.136C129.856 118.152 130.047 118.116 130.206 118.028C130.369 117.945 130.494 117.795 130.581 117.58L130.689 117.318L127.587 108.273H130.496L132.104 114.5H132.195L133.825 108.273H136.752L133.462 117.835C133.303 118.313 133.077 118.733 132.786 119.097C132.498 119.464 132.125 119.752 131.666 119.96C131.212 120.169 130.651 120.273 129.984 120.273Z" fill="white"/>
<rect x="3" y="11" width="70" height="40" rx="3" fill="white" fill-opacity="0.5" stroke="#666666" stroke-width="4" stroke-linecap="round"/>
<path d="M20.5758 25.3636L23.1781 33.8864H23.2747L25.8769 25.3636H29.0247L25.0985 37H21.3542L17.4281 25.3636H20.5758ZM30.1015 37V25.3636H34.9083C35.7795 25.3636 36.5314 25.5341 37.164 25.875C37.8004 26.2121 38.2909 26.6837 38.6356 27.2898C38.9803 27.892 39.1526 28.5928 39.1526 29.392C39.1526 30.1951 38.9765 30.8977 38.6242 31.5C38.2757 32.0985 37.7776 32.5625 37.1299 32.892C36.4822 33.2216 35.7132 33.3864 34.8231 33.3864H31.8572V31.1705H34.3004C34.7246 31.1705 35.0788 31.0966 35.3629 30.9489C35.6507 30.8011 35.8685 30.5947 36.0163 30.3295C36.164 30.0606 36.2379 29.7481 36.2379 29.392C36.2379 29.0322 36.164 28.7216 36.0163 28.4602C35.8685 28.1951 35.6507 27.9905 35.3629 27.8466C35.075 27.7027 34.7208 27.6307 34.3004 27.6307H32.914V37H30.1015ZM40.363 37V25.3636H45.1698C46.041 25.3636 46.7929 25.5341 47.4255 25.875C48.0619 26.2121 48.5524 26.6837 48.8971 27.2898C49.2418 27.892 49.4141 28.5928 49.4141 29.392C49.4141 30.1951 49.238 30.8977 48.8857 31.5C48.5372 32.0985 48.0391 32.5625 47.3914 32.892C46.7437 33.2216 45.9747 33.3864 45.0846 33.3864H42.1187V31.1705H44.5619C44.9861 31.1705 45.3403 31.0966 45.6244 30.9489C45.9122 30.8011 46.13 30.5947 46.2778 30.3295C46.4255 30.0606 46.4994 29.7481 46.4994 29.392C46.4994 29.0322 46.4255 28.7216 46.2778 28.4602C46.13 28.1951 45.9122 27.9905 45.6244 27.8466C45.3365 27.7027 44.9823 27.6307 44.5619 27.6307H43.1755V37H40.363ZM58.2438 30.9375L55.6927 31.0057C55.6662 30.8239 55.5942 30.6629 55.4768 30.5227C55.3593 30.3788 55.2059 30.267 55.0165 30.1875C54.8309 30.1042 54.615 30.0625 54.3688 30.0625C54.0468 30.0625 53.7722 30.1269 53.5449 30.2557C53.3215 30.3845 53.2116 30.5587 53.2154 30.7784C53.2116 30.9489 53.2798 31.0966 53.4199 31.2216C53.5639 31.3466 53.8196 31.447 54.187 31.5227L55.8688 31.8409C56.74 32.0076 57.3878 32.2841 57.812 32.6705C58.24 33.0568 58.4559 33.5682 58.4597 34.2045C58.4559 34.803 58.2779 35.3239 57.9256 35.767C57.5771 36.2102 57.0999 36.5549 56.4938 36.8011C55.8878 37.0436 55.1946 37.1648 54.4143 37.1648C53.1681 37.1648 52.1851 36.9091 51.4654 36.3977C50.7495 35.8826 50.3404 35.1932 50.2381 34.3295L52.9824 34.2614C53.0431 34.5795 53.2003 34.822 53.454 34.9886C53.7078 35.1553 54.0317 35.2386 54.4256 35.2386C54.7817 35.2386 55.0715 35.1723 55.2949 35.0398C55.5184 34.9072 55.6321 34.7311 55.6359 34.5114C55.6321 34.3144 55.5449 34.1572 55.3745 34.0398C55.204 33.9186 54.937 33.8239 54.5734 33.7557L53.0506 33.4659C52.1756 33.3068 51.5241 33.0133 51.0961 32.5852C50.6681 32.1534 50.4559 31.6042 50.4597 30.9375C50.4559 30.3542 50.6112 29.8561 50.9256 29.4432C51.24 29.0265 51.687 28.7083 52.2665 28.4886C52.8461 28.2689 53.5298 28.1591 54.3177 28.1591C55.4995 28.1591 56.4313 28.4072 57.1131 28.9034C57.7949 29.3958 58.1718 30.0739 58.2438 30.9375Z" fill="black" fill-opacity="0.8"/>
<rect x="93" y="11" width="70" height="40" rx="3" fill="white" fill-opacity="0.5" stroke="#666666" stroke-width="4" stroke-linecap="round"/>
<path d="M116.893 31.1818C116.893 32.4621 116.647 33.5473 116.155 34.4375C115.662 35.3277 114.996 36.0038 114.155 36.4659C113.318 36.928 112.378 37.1591 111.336 37.1591C110.291 37.1591 109.35 36.9261 108.513 36.4602C107.675 35.9943 107.011 35.3182 106.518 34.4318C106.03 33.5417 105.785 32.4583 105.785 31.1818C105.785 29.9015 106.03 28.8163 106.518 27.9261C107.011 27.036 107.675 26.3598 108.513 25.8977C109.35 25.4356 110.291 25.2045 111.336 25.2045C112.378 25.2045 113.318 25.4356 114.155 25.8977C114.996 26.3598 115.662 27.036 116.155 27.9261C116.647 28.8163 116.893 29.9015 116.893 31.1818ZM114.018 31.1818C114.018 30.4242 113.91 29.7841 113.694 29.2614C113.482 28.7386 113.175 28.3428 112.774 28.0739C112.376 27.8049 111.897 27.6705 111.336 27.6705C110.78 27.6705 110.3 27.8049 109.899 28.0739C109.497 28.3428 109.189 28.7386 108.973 29.2614C108.761 29.7841 108.655 30.4242 108.655 31.1818C108.655 31.9394 108.761 32.5795 108.973 33.1023C109.189 33.625 109.497 34.0208 109.899 34.2898C110.3 34.5587 110.78 34.6932 111.336 34.6932C111.897 34.6932 112.376 34.5587 112.774 34.2898C113.175 34.0208 113.482 33.625 113.694 33.1023C113.91 32.5795 114.018 31.9394 114.018 31.1818ZM118.359 37V25.3636H126.473V27.6477H121.172V30.0341H126.058V32.3239H121.172V34.7159H126.473V37H118.359ZM128.058 25.3636H131.541L134.496 32.5682H134.632L137.587 25.3636H141.07V37H138.331V29.8523H138.234L135.439 36.9261H133.689L130.894 29.8125H130.797V37H128.058V25.3636ZM150.267 30.9375L147.716 31.0057C147.69 30.8239 147.618 30.6629 147.5 30.5227C147.383 30.3788 147.229 30.267 147.04 30.1875C146.854 30.1042 146.638 30.0625 146.392 30.0625C146.07 30.0625 145.796 30.1269 145.568 30.2557C145.345 30.3845 145.235 30.5587 145.239 30.7784C145.235 30.9489 145.303 31.0966 145.443 31.2216C145.587 31.3466 145.843 31.447 146.21 31.5227L147.892 31.8409C148.763 32.0076 149.411 32.2841 149.835 32.6705C150.263 33.0568 150.479 33.5682 150.483 34.2045C150.479 34.803 150.301 35.3239 149.949 35.767C149.601 36.2102 149.123 36.5549 148.517 36.8011C147.911 37.0436 147.218 37.1648 146.438 37.1648C145.191 37.1648 144.209 36.9091 143.489 36.3977C142.773 35.8826 142.364 35.1932 142.262 34.3295L145.006 34.2614C145.066 34.5795 145.224 34.822 145.477 34.9886C145.731 35.1553 146.055 35.2386 146.449 35.2386C146.805 35.2386 147.095 35.1723 147.318 35.0398C147.542 34.9072 147.656 34.7311 147.659 34.5114C147.656 34.3144 147.568 34.1572 147.398 34.0398C147.227 33.9186 146.96 33.8239 146.597 33.7557L145.074 33.4659C144.199 33.3068 143.548 33.0133 143.12 32.5852C142.691 32.1534 142.479 31.6042 142.483 30.9375C142.479 30.3542 142.635 29.8561 142.949 29.4432C143.263 29.0265 143.71 28.7083 144.29 28.4886C144.87 28.2689 145.553 28.1591 146.341 28.1591C147.523 28.1591 148.455 28.4072 149.137 28.9034C149.818 29.3958 150.195 30.0739 150.267 30.9375Z" fill="black" fill-opacity="0.8"/>
<path d="M170.086 187.131C169.305 187.912 169.305 189.179 170.086 189.96L182.814 202.688C183.595 203.469 184.861 203.469 185.642 202.688C186.423 201.906 186.423 200.64 185.642 199.859L174.328 188.545L185.642 177.232C186.423 176.451 186.423 175.184 185.642 174.403C184.861 173.622 183.595 173.622 182.814 174.403L170.086 187.131ZM213.914 189.96C214.695 189.179 214.695 187.912 213.914 187.131L201.186 174.403C200.405 173.622 199.139 173.622 198.358 174.403C197.577 175.184 197.577 176.451 198.358 177.232L209.672 188.545L198.358 199.859C197.577 200.64 197.577 201.906 198.358 202.688C199.139 203.469 200.405 203.469 201.186 202.688L213.914 189.96ZM171.5 190.545H212.5V186.545H171.5V190.545Z" fill="#B3B3B3"/>
<path d="M85 140C85 138.895 84.1046 138 83 138C81.8954 138 81 138.895 81 140H85ZM81.5858 161.46C82.3668 162.241 83.6332 162.241 84.4142 161.46L97.1421 148.732C97.9232 147.951 97.9232 146.684 97.1421 145.903C96.3611 145.122 95.0948 145.122 94.3137 145.903L83 157.217L71.6863 145.903C70.9052 145.122 69.6389 145.122 68.8579 145.903C68.0768 146.684 68.0768 147.951 68.8579 148.732L81.5858 161.46ZM81 140V160.045H85V140H81Z" fill="#B3B3B3"/>
<path d="M171.086 109.586C170.305 110.367 170.305 111.633 171.086 112.414L183.814 125.142C184.595 125.923 185.861 125.923 186.642 125.142C187.423 124.361 187.423 123.095 186.642 122.314L175.328 111L186.642 99.6863C187.423 98.9052 187.423 97.6389 186.642 96.8579C185.861 96.0768 184.595 96.0768 183.814 96.8579L171.086 109.586ZM213 113C214.105 113 215 112.105 215 111C215 109.895 214.105 109 213 109V113ZM172.5 113H213V109H172.5V113Z" fill="#B3B3B3"/>
<path d="M129.779 59C129.779 57.8954 128.884 57 127.779 57C126.675 57 125.779 57.8954 125.779 59H129.779ZM126.365 82.9142C127.146 83.6953 128.412 83.6953 129.194 82.9142L141.921 70.1863C142.702 69.4052 142.702 68.1389 141.921 67.3579C141.14 66.5768 139.874 66.5768 139.093 67.3579L127.779 78.6716L116.466 67.3579C115.685 66.5768 114.418 66.5768 113.637 67.3579C112.856 68.1389 112.856 69.4052 113.637 70.1863L126.365 82.9142ZM125.779 59V81.5H129.779V59H125.779Z" fill="#B3B3B3"/>
<path d="M40.5029 59C40.5029 57.8954 39.6075 57 38.5029 57C37.3984 57 36.5029 57.8954 36.5029 59H40.5029ZM37.0887 82.9142C37.8698 83.6953 39.1361 83.6953 39.9171 82.9142L52.6451 70.1863C53.4261 69.4052 53.4261 68.1389 52.6451 67.3579C51.864 66.5768 50.5977 66.5768 49.8166 67.3579L38.5029 78.6716L27.1892 67.3579C26.4082 66.5768 25.1418 66.5768 24.3608 67.3579C23.5797 68.1389 23.5797 69.4052 24.3608 70.1863L37.0887 82.9142ZM36.5029 59V81.5H40.5029V59H36.5029Z" fill="#B3B3B3"/>
<circle cx="162" cy="13" r="12" fill="#757575"/>
<path d="M158.5 18.8333C158.179 18.8333 157.905 18.7191 157.676 18.4906C157.448 18.2621 157.333 17.9875 157.333 17.6666V11.8333C157.333 11.5125 157.448 11.2378 157.676 11.0094C157.905 10.7809 158.179 10.6666 158.5 10.6666H159.083V9.49998C159.083 8.69304 159.368 8.00519 159.937 7.43644C160.505 6.86769 161.193 6.58331 162 6.58331C162.807 6.58331 163.495 6.86769 164.064 7.43644C164.632 8.00519 164.917 8.69304 164.917 9.49998V10.6666H165.5C165.821 10.6666 166.096 10.7809 166.324 11.0094C166.553 11.2378 166.667 11.5125 166.667 11.8333V17.6666C166.667 17.9875 166.553 18.2621 166.324 18.4906C166.096 18.7191 165.821 18.8333 165.5 18.8333H158.5ZM158.5 17.6666H165.5V11.8333H158.5V17.6666ZM162 15.9166C162.321 15.9166 162.596 15.8024 162.824 15.5739C163.053 15.3455 163.167 15.0708 163.167 14.75C163.167 14.4291 163.053 14.1545 162.824 13.926C162.596 13.6975 162.321 13.5833 162 13.5833C161.679 13.5833 161.405 13.6975 161.176 13.926C160.948 14.1545 160.833 14.4291 160.833 14.75C160.833 15.0708 160.948 15.3455 161.176 15.5739C161.405 15.8024 161.679 15.9166 162 15.9166ZM160.25 10.6666H163.75V9.49998C163.75 9.01387 163.58 8.60067 163.24 8.2604C162.899 7.92012 162.486 7.74998 162 7.74998C161.514 7.74998 161.101 7.92012 160.761 8.2604C160.42 8.60067 160.25 9.01387 160.25 9.49998V10.6666Z" fill="#E3E3E3"/>
<circle cx="73" cy="13" r="12" fill="#757575"/>
<path d="M69.4997 18.8333C69.1788 18.8333 68.9042 18.7191 68.6757 18.4906C68.4472 18.2621 68.333 17.9875 68.333 17.6666V11.8333C68.333 11.5125 68.4472 11.2378 68.6757 11.0094C68.9042 10.7809 69.1788 10.6666 69.4997 10.6666H70.083V9.49998C70.083 8.69304 70.3674 8.00519 70.9361 7.43644C71.5049 6.86769 72.1927 6.58331 72.9997 6.58331C73.8066 6.58331 74.4945 6.86769 75.0632 7.43644C75.632 8.00519 75.9163 8.69304 75.9163 9.49998V10.6666H76.4997C76.8205 10.6666 77.0952 10.7809 77.3236 11.0094C77.5521 11.2378 77.6663 11.5125 77.6663 11.8333V17.6666C77.6663 17.9875 77.5521 18.2621 77.3236 18.4906C77.0952 18.7191 76.8205 18.8333 76.4997 18.8333H69.4997ZM69.4997 17.6666H76.4997V11.8333H69.4997V17.6666ZM72.9997 15.9166C73.3205 15.9166 73.5952 15.8024 73.8236 15.5739C74.0521 15.3455 74.1663 15.0708 74.1663 14.75C74.1663 14.4291 74.0521 14.1545 73.8236 13.926C73.5952 13.6975 73.3205 13.5833 72.9997 13.5833C72.6788 13.5833 72.4042 13.6975 72.1757 13.926C71.9472 14.1545 71.833 14.4291 71.833 14.75C71.833 15.0708 71.9472 15.3455 72.1757 15.5739C72.4042 15.8024 72.6788 15.9166 72.9997 15.9166ZM71.2497 10.6666H74.7497V9.49998C74.7497 9.01387 74.5795 8.60067 74.2393 8.2604C73.899 7.92012 73.4858 7.74998 72.9997 7.74998C72.5136 7.74998 72.1004 7.92012 71.7601 8.2604C71.4198 8.60067 71.2497 9.01387 71.2497 9.49998V10.6666Z" fill="#E3E3E3"/>
</svg>
