<svg width="384" height="204" viewBox="0 0 384 204" fill="none" xmlns="http://www.w3.org/2000/svg">
<rect x="3" y="160.545" width="160" height="40" rx="3" fill="white" fill-opacity="0.5" stroke="#666666" stroke-width="4" stroke-linecap="round"/>
<path d="M23.9295 174.909H27.0716L29.5318 179.778H29.6341L32.0943 174.909H35.2363L30.9806 182.659V186.545H28.1852V182.659L23.9295 174.909ZM38.2975 186.71C37.3809 186.71 36.593 186.523 35.9339 186.148C35.2786 185.769 34.7729 185.242 34.4169 184.568C34.0646 183.89 33.8885 183.104 33.8885 182.21C33.8885 181.312 34.0646 180.526 34.4169 179.852C34.7729 179.174 35.2786 178.648 35.9339 178.273C36.593 177.894 37.3809 177.705 38.2975 177.705C39.2142 177.705 40.0002 177.894 40.6555 178.273C41.3146 178.648 41.8203 179.174 42.1725 179.852C42.5286 180.526 42.7066 181.312 42.7066 182.21C42.7066 183.104 42.5286 183.89 42.1725 184.568C41.8203 185.242 41.3146 185.769 40.6555 186.148C40.0002 186.523 39.2142 186.71 38.2975 186.71ZM38.3146 184.614C38.6479 184.614 38.9301 184.511 39.1612 184.307C39.3922 184.102 39.5684 183.818 39.6896 183.455C39.8146 183.091 39.8771 182.67 39.8771 182.193C39.8771 181.708 39.8146 181.284 39.6896 180.92C39.5684 180.557 39.3922 180.273 39.1612 180.068C38.9301 179.864 38.6479 179.761 38.3146 179.761C37.9699 179.761 37.6782 179.864 37.4396 180.068C37.2047 180.273 37.0248 180.557 36.8998 180.92C36.7786 181.284 36.718 181.708 36.718 182.193C36.718 182.67 36.7786 183.091 36.8998 183.455C37.0248 183.818 37.2047 184.102 37.4396 184.307C37.6782 184.511 37.9699 184.614 38.3146 184.614ZM49.5846 182.778V177.818H52.3573V186.545H49.7096V184.92H49.6187C49.4255 185.455 49.096 185.879 48.6301 186.193C48.1679 186.504 47.6092 186.659 46.9539 186.659C46.3592 186.659 45.8365 186.523 45.3857 186.25C44.935 185.977 44.5846 185.597 44.3346 185.108C44.0846 184.615 43.9577 184.04 43.9539 183.381V177.818H46.7323V182.835C46.7361 183.309 46.8611 183.682 47.1073 183.955C47.3536 184.227 47.6888 184.364 48.113 184.364C48.3895 184.364 48.6376 184.303 48.8573 184.182C49.0808 184.057 49.257 183.877 49.3857 183.642C49.5183 183.403 49.5846 183.115 49.5846 182.778ZM53.9498 186.545V177.818H56.6487V179.409H56.7396C56.8987 178.833 57.1581 178.405 57.518 178.125C57.8778 177.841 58.2964 177.699 58.7737 177.699C58.9025 177.699 59.035 177.708 59.1714 177.727C59.3078 177.742 59.4347 177.767 59.5521 177.801V180.216C59.4195 180.17 59.2453 180.134 59.0294 180.108C58.8172 180.081 58.6278 180.068 58.4612 180.068C58.1316 180.068 57.8343 180.142 57.5691 180.29C57.3078 180.434 57.1013 180.636 56.9498 180.898C56.8021 181.155 56.7282 181.458 56.7282 181.807V186.545H53.9498ZM71.389 180.483L68.8379 180.551C68.8113 180.369 68.7394 180.208 68.622 180.068C68.5045 179.924 68.3511 179.812 68.1617 179.733C67.9761 179.65 67.7602 179.608 67.514 179.608C67.192 179.608 66.9174 179.672 66.6901 179.801C66.4667 179.93 66.3568 180.104 66.3606 180.324C66.3568 180.494 66.425 180.642 66.5651 180.767C66.7091 180.892 66.9648 180.992 67.3322 181.068L69.014 181.386C69.8852 181.553 70.5329 181.83 70.9572 182.216C71.3852 182.602 71.6011 183.114 71.6049 183.75C71.6011 184.348 71.4231 184.869 71.0708 185.312C70.7223 185.756 70.2451 186.1 69.639 186.347C69.0329 186.589 68.3398 186.71 67.5595 186.71C66.3132 186.71 65.3303 186.455 64.6106 185.943C63.8947 185.428 63.4856 184.739 63.3833 183.875L66.1276 183.807C66.1882 184.125 66.3454 184.367 66.5992 184.534C66.853 184.701 67.1769 184.784 67.5708 184.784C67.9269 184.784 68.2167 184.718 68.4401 184.585C68.6636 184.453 68.7773 184.276 68.781 184.057C68.7773 183.86 68.6901 183.703 68.5197 183.585C68.3492 183.464 68.0822 183.369 67.7185 183.301L66.1958 183.011C65.3208 182.852 64.6693 182.559 64.2413 182.131C63.8132 181.699 63.6011 181.15 63.6049 180.483C63.6011 179.9 63.7564 179.401 64.0708 178.989C64.3852 178.572 64.8322 178.254 65.4117 178.034C65.9913 177.814 66.675 177.705 67.4629 177.705C68.6447 177.705 69.5765 177.953 70.2583 178.449C70.9401 178.941 71.317 179.619 71.389 180.483ZM72.7968 186.545V177.818H75.4389V179.42H75.5354C75.7173 178.89 76.0241 178.472 76.4559 178.165C76.8877 177.858 77.4029 177.705 78.0014 177.705C78.6074 177.705 79.1264 177.86 79.5582 178.17C79.99 178.481 80.2646 178.898 80.382 179.42H80.4729C80.6358 178.901 80.954 178.487 81.4275 178.176C81.901 177.862 82.4597 177.705 83.1036 177.705C83.9294 177.705 84.5998 177.97 85.115 178.5C85.6301 179.026 85.8877 179.75 85.8877 180.67V186.545H83.1093V181.307C83.1093 180.871 82.9976 180.54 82.7741 180.312C82.5506 180.081 82.2608 179.966 81.9048 179.966C81.5222 179.966 81.2211 180.091 81.0014 180.341C80.7854 180.587 80.6775 180.919 80.6775 181.335V186.545H78.007V181.278C78.007 180.873 77.8972 180.553 77.6775 180.318C77.4578 180.083 77.168 179.966 76.8082 179.966C76.5657 179.966 76.3517 180.025 76.1661 180.142C75.9805 180.256 75.8347 180.419 75.7286 180.631C75.6264 180.843 75.5752 181.093 75.5752 181.381V186.545H72.7968ZM89.8935 186.693C89.3367 186.693 88.8424 186.6 88.4106 186.415C87.9826 186.225 87.6435 185.941 87.3935 185.562C87.1473 185.18 87.0242 184.701 87.0242 184.125C87.0242 183.64 87.1094 183.231 87.2799 182.898C87.4504 182.564 87.6852 182.294 87.9844 182.085C88.2837 181.877 88.6284 181.72 89.0185 181.614C89.4087 181.504 89.8254 181.43 90.2685 181.392C90.7647 181.347 91.1644 181.299 91.4674 181.25C91.7704 181.197 91.9901 181.123 92.1265 181.028C92.2666 180.93 92.3367 180.792 92.3367 180.614V180.585C92.3367 180.294 92.2363 180.068 92.0356 179.909C91.8348 179.75 91.564 179.67 91.2231 179.67C90.8557 179.67 90.5602 179.75 90.3367 179.909C90.1132 180.068 89.9712 180.288 89.9106 180.568L87.3481 180.477C87.4238 179.947 87.6189 179.473 87.9333 179.057C88.2515 178.636 88.6871 178.307 89.2401 178.068C89.7969 177.826 90.4655 177.705 91.2458 177.705C91.8026 177.705 92.3159 177.771 92.7856 177.903C93.2553 178.032 93.6644 178.222 94.0129 178.472C94.3613 178.718 94.6303 179.021 94.8197 179.381C95.0129 179.74 95.1094 180.151 95.1094 180.614V186.545H92.4958V185.33H92.4276C92.2723 185.625 92.0735 185.875 91.831 186.08C91.5924 186.284 91.3102 186.437 90.9844 186.54C90.6625 186.642 90.2988 186.693 89.8935 186.693ZM90.7515 184.875C91.0507 184.875 91.3197 184.814 91.5583 184.693C91.8007 184.572 91.9939 184.405 92.1379 184.193C92.2818 183.977 92.3538 183.727 92.3538 183.443V182.614C92.2742 182.655 92.1776 182.693 92.064 182.727C91.9541 182.761 91.8329 182.794 91.7004 182.824C91.5678 182.854 91.4314 182.881 91.2913 182.903C91.1511 182.926 91.0166 182.947 90.8879 182.966C90.6265 183.008 90.403 183.072 90.2174 183.159C90.0356 183.246 89.8954 183.36 89.7969 183.5C89.7022 183.636 89.6549 183.799 89.6549 183.989C89.6549 184.276 89.7572 184.496 89.9617 184.648C90.1701 184.799 90.4333 184.875 90.7515 184.875ZM96.6323 186.545V177.818H99.3312V179.409H99.4221C99.5812 178.833 99.8406 178.405 100.2 178.125C100.56 177.841 100.979 177.699 101.456 177.699C101.585 177.699 101.718 177.708 101.854 177.727C101.99 177.742 102.117 177.767 102.235 177.801V180.216C102.102 180.17 101.928 180.134 101.712 180.108C101.5 180.081 101.31 180.068 101.144 180.068C100.814 180.068 100.517 180.142 100.252 180.29C99.9903 180.434 99.7838 180.636 99.6323 180.898C99.4846 181.155 99.4107 181.458 99.4107 181.807V186.545H96.6323ZM108.523 177.818V179.864H103.017V177.818H108.523ZM104.171 175.727H106.949V183.801C106.949 183.972 106.976 184.11 107.029 184.216C107.086 184.318 107.167 184.392 107.273 184.437C107.379 184.479 107.506 184.5 107.654 184.5C107.76 184.5 107.872 184.49 107.989 184.472C108.11 184.449 108.201 184.43 108.262 184.415L108.682 186.42C108.55 186.458 108.362 186.506 108.12 186.562C107.881 186.619 107.595 186.655 107.262 186.67C106.61 186.701 106.051 186.625 105.586 186.443C105.123 186.258 104.769 185.97 104.523 185.58C104.281 185.189 104.163 184.699 104.171 184.108V175.727ZM115.805 181.568V186.545H113.026V174.909H115.714V179.42H115.81C116.007 178.883 116.329 178.462 116.776 178.159C117.227 177.856 117.778 177.705 118.43 177.705C119.043 177.705 119.577 177.841 120.032 178.114C120.486 178.383 120.839 178.763 121.089 179.256C121.342 179.748 121.467 180.324 121.464 180.983V186.545H118.685V181.528C118.689 181.044 118.568 180.665 118.322 180.392C118.075 180.119 117.729 179.983 117.282 179.983C116.99 179.983 116.733 180.047 116.509 180.176C116.289 180.301 116.117 180.481 115.992 180.716C115.871 180.951 115.808 181.235 115.805 181.568ZM128.653 182.778V177.818H131.425V186.545H128.778V184.92H128.687C128.494 185.455 128.164 185.879 127.698 186.193C127.236 186.504 126.677 186.659 126.022 186.659C125.427 186.659 124.905 186.523 124.454 186.25C124.003 185.977 123.653 185.597 123.403 185.108C123.153 184.615 123.026 184.04 123.022 183.381V177.818H125.8V182.835C125.804 183.309 125.929 183.682 126.175 183.955C126.422 184.227 126.757 184.364 127.181 184.364C127.458 184.364 127.706 184.303 127.925 184.182C128.149 184.057 128.325 183.877 128.454 183.642C128.586 183.403 128.653 183.115 128.653 182.778ZM133.018 186.545V174.909H135.796V179.312H135.853C135.967 179.047 136.128 178.792 136.336 178.545C136.548 178.299 136.817 178.098 137.143 177.943C137.472 177.784 137.866 177.705 138.325 177.705C138.931 177.705 139.497 177.864 140.024 178.182C140.554 178.5 140.982 178.99 141.308 179.653C141.633 180.316 141.796 181.161 141.796 182.187C141.796 183.176 141.639 184.004 141.325 184.67C141.014 185.337 140.594 185.837 140.063 186.17C139.537 186.504 138.952 186.67 138.308 186.67C137.868 186.67 137.488 186.598 137.166 186.455C136.844 186.311 136.573 186.121 136.353 185.886C136.137 185.651 135.971 185.4 135.853 185.131H135.768V186.545H133.018ZM135.74 182.182C135.74 182.651 135.802 183.061 135.927 183.409C136.056 183.758 136.24 184.028 136.478 184.222C136.721 184.411 137.01 184.506 137.347 184.506C137.688 184.506 137.978 184.411 138.217 184.222C138.455 184.028 138.635 183.758 138.757 183.409C138.882 183.061 138.944 182.651 138.944 182.182C138.944 181.712 138.882 181.305 138.757 180.96C138.635 180.615 138.455 180.348 138.217 180.159C137.982 179.97 137.692 179.875 137.347 179.875C137.007 179.875 136.717 179.968 136.478 180.153C136.24 180.339 136.056 180.604 135.927 180.949C135.802 181.294 135.74 181.705 135.74 182.182Z" fill="black" fill-opacity="0.8"/>
<rect x="221" y="160.545" width="160" height="40" rx="3" fill="white" fill-opacity="0.5" stroke="#666666" stroke-width="4" stroke-linecap="round"/>
<path d="M251.144 174.909H254.286L256.746 179.778H256.849L259.309 174.909H262.451L258.195 182.659V186.545H255.4V182.659L251.144 174.909ZM265.512 186.71C264.596 186.71 263.808 186.523 263.149 186.148C262.493 185.769 261.988 185.242 261.631 184.568C261.279 183.89 261.103 183.104 261.103 182.21C261.103 181.312 261.279 180.526 261.631 179.852C261.988 179.174 262.493 178.648 263.149 178.273C263.808 177.894 264.596 177.705 265.512 177.705C266.429 177.705 267.215 177.894 267.87 178.273C268.529 178.648 269.035 179.174 269.387 179.852C269.743 180.526 269.921 181.312 269.921 182.21C269.921 183.104 269.743 183.89 269.387 184.568C269.035 185.242 268.529 185.769 267.87 186.148C267.215 186.523 266.429 186.71 265.512 186.71ZM265.529 184.614C265.863 184.614 266.145 184.511 266.376 184.307C266.607 184.102 266.783 183.818 266.904 183.455C267.029 183.091 267.092 182.67 267.092 182.193C267.092 181.708 267.029 181.284 266.904 180.92C266.783 180.557 266.607 180.273 266.376 180.068C266.145 179.864 265.863 179.761 265.529 179.761C265.185 179.761 264.893 179.864 264.654 180.068C264.419 180.273 264.239 180.557 264.114 180.92C263.993 181.284 263.933 181.708 263.933 182.193C263.933 182.67 263.993 183.091 264.114 183.455C264.239 183.818 264.419 184.102 264.654 184.307C264.893 184.511 265.185 184.614 265.529 184.614ZM276.799 182.778V177.818H279.572V186.545H276.924V184.92H276.833C276.64 185.455 276.311 185.879 275.845 186.193C275.383 186.504 274.824 186.659 274.169 186.659C273.574 186.659 273.051 186.523 272.6 186.25C272.15 185.977 271.799 185.597 271.549 185.108C271.299 184.615 271.172 184.04 271.169 183.381V177.818H273.947V182.835C273.951 183.309 274.076 183.682 274.322 183.955C274.568 184.227 274.903 184.364 275.328 184.364C275.604 184.364 275.852 184.303 276.072 184.182C276.295 184.057 276.472 183.877 276.6 183.642C276.733 183.403 276.799 183.115 276.799 182.778ZM281.164 186.545V177.818H283.863V179.409H283.954C284.113 178.833 284.373 178.405 284.733 178.125C285.092 177.841 285.511 177.699 285.988 177.699C286.117 177.699 286.25 177.708 286.386 177.727C286.522 177.742 286.649 177.767 286.767 177.801V180.216C286.634 180.17 286.46 180.134 286.244 180.108C286.032 180.081 285.842 180.068 285.676 180.068C285.346 180.068 285.049 180.142 284.784 180.29C284.522 180.434 284.316 180.636 284.164 180.898C284.017 181.155 283.943 181.458 283.943 181.807V186.545H281.164ZM294.172 186.67C293.528 186.67 292.943 186.504 292.416 186.17C291.89 185.837 291.469 185.337 291.155 184.67C290.84 184.004 290.683 183.176 290.683 182.187C290.683 181.161 290.846 180.316 291.172 179.653C291.498 178.99 291.924 178.5 292.45 178.182C292.981 177.864 293.551 177.705 294.16 177.705C294.619 177.705 295.011 177.784 295.337 177.943C295.662 178.098 295.931 178.299 296.143 178.545C296.356 178.792 296.517 179.047 296.626 179.312H296.683V174.909H299.462V186.545H296.712V185.131H296.626C296.509 185.4 296.342 185.651 296.126 185.886C295.91 186.121 295.64 186.311 295.314 186.455C294.992 186.598 294.611 186.67 294.172 186.67ZM295.138 184.506C295.475 184.506 295.763 184.411 296.001 184.222C296.24 184.028 296.424 183.758 296.552 183.409C296.681 183.061 296.746 182.651 296.746 182.182C296.746 181.705 296.681 181.294 296.552 180.949C296.427 180.604 296.244 180.339 296.001 180.153C295.763 179.968 295.475 179.875 295.138 179.875C294.793 179.875 294.501 179.97 294.263 180.159C294.024 180.348 293.842 180.615 293.717 180.96C293.596 181.305 293.535 181.712 293.535 182.182C293.535 182.651 293.598 183.061 293.723 183.409C293.848 183.758 294.028 184.028 294.263 184.222C294.501 184.411 294.793 184.506 295.138 184.506ZM305.122 186.71C304.209 186.71 303.421 186.53 302.759 186.17C302.1 185.807 301.592 185.29 301.236 184.619C300.884 183.945 300.707 183.144 300.707 182.216C300.707 181.314 300.885 180.526 301.242 179.852C301.598 179.174 302.1 178.648 302.747 178.273C303.395 177.894 304.158 177.705 305.037 177.705C305.658 177.705 306.226 177.801 306.742 177.994C307.257 178.187 307.702 178.473 308.077 178.852C308.452 179.231 308.743 179.699 308.952 180.256C309.16 180.809 309.264 181.443 309.264 182.159V182.852H301.679V181.239H306.679C306.675 180.943 306.605 180.68 306.469 180.449C306.332 180.218 306.145 180.038 305.906 179.909C305.671 179.776 305.401 179.71 305.094 179.71C304.783 179.71 304.505 179.78 304.259 179.92C304.012 180.057 303.817 180.244 303.673 180.483C303.529 180.718 303.454 180.985 303.446 181.284V182.926C303.446 183.282 303.516 183.595 303.656 183.864C303.796 184.129 303.995 184.335 304.253 184.483C304.51 184.631 304.817 184.705 305.173 184.705C305.42 184.705 305.643 184.67 305.844 184.602C306.045 184.534 306.217 184.434 306.361 184.301C306.505 184.169 306.613 184.006 306.685 183.812L309.236 183.886C309.13 184.458 308.897 184.956 308.537 185.381C308.181 185.801 307.713 186.129 307.134 186.364C306.554 186.595 305.884 186.71 305.122 186.71ZM318.739 177.818L315.745 186.545H312.563L309.574 177.818H312.5L314.108 183.83H314.199L315.813 177.818H318.739ZM319.628 186.545V177.818H322.407V186.545H319.628ZM321.02 176.801C320.63 176.801 320.295 176.672 320.015 176.415C319.734 176.153 319.594 175.839 319.594 175.472C319.594 175.108 319.734 174.797 320.015 174.54C320.295 174.278 320.63 174.148 321.02 174.148C321.414 174.148 321.749 174.278 322.026 174.54C322.306 174.797 322.446 175.108 322.446 175.472C322.446 175.839 322.306 176.153 322.026 176.415C321.749 176.672 321.414 176.801 321.02 176.801ZM328.073 186.71C327.152 186.71 326.363 186.521 325.704 186.142C325.048 185.763 324.545 185.237 324.192 184.562C323.84 183.884 323.664 183.1 323.664 182.21C323.664 181.316 323.84 180.532 324.192 179.858C324.548 179.18 325.054 178.651 325.709 178.273C326.368 177.894 327.154 177.705 328.067 177.705C328.874 177.705 329.577 177.85 330.175 178.142C330.777 178.434 331.247 178.847 331.584 179.381C331.925 179.911 332.105 180.534 332.124 181.25H329.527C329.474 180.803 329.323 180.453 329.073 180.199C328.827 179.945 328.505 179.818 328.107 179.818C327.785 179.818 327.503 179.909 327.26 180.091C327.018 180.269 326.829 180.534 326.692 180.886C326.56 181.235 326.493 181.667 326.493 182.182C326.493 182.697 326.56 183.133 326.692 183.489C326.829 183.841 327.018 184.108 327.26 184.29C327.503 184.468 327.785 184.557 328.107 184.557C328.365 184.557 328.592 184.502 328.789 184.392C328.99 184.282 329.154 184.121 329.283 183.909C329.412 183.693 329.493 183.432 329.527 183.125H332.124C332.098 183.845 331.918 184.473 331.584 185.011C331.255 185.549 330.791 185.968 330.192 186.267C329.598 186.562 328.891 186.71 328.073 186.71ZM337.449 186.71C336.537 186.71 335.749 186.53 335.086 186.17C334.427 185.807 333.919 185.29 333.563 184.619C333.211 183.945 333.035 183.144 333.035 182.216C333.035 181.314 333.213 180.526 333.569 179.852C333.925 179.174 334.427 178.648 335.074 178.273C335.722 177.894 336.485 177.705 337.364 177.705C337.985 177.705 338.554 177.801 339.069 177.994C339.584 178.187 340.029 178.473 340.404 178.852C340.779 179.231 341.071 179.699 341.279 180.256C341.487 180.809 341.592 181.443 341.592 182.159V182.852H334.006V181.239H339.006C339.003 180.943 338.932 180.68 338.796 180.449C338.66 180.218 338.472 180.038 338.234 179.909C337.999 179.776 337.728 179.71 337.421 179.71C337.11 179.71 336.832 179.78 336.586 179.92C336.34 180.057 336.145 180.244 336.001 180.483C335.857 180.718 335.781 180.985 335.773 181.284V182.926C335.773 183.282 335.843 183.595 335.984 183.864C336.124 184.129 336.323 184.335 336.58 184.483C336.838 184.631 337.145 184.705 337.501 184.705C337.747 184.705 337.97 184.67 338.171 184.602C338.372 184.534 338.544 184.434 338.688 184.301C338.832 184.169 338.94 184.006 339.012 183.812L341.563 183.886C341.457 184.458 341.224 184.956 340.864 185.381C340.508 185.801 340.04 186.129 339.461 186.364C338.881 186.595 338.211 186.71 337.449 186.71ZM350.454 180.483L347.903 180.551C347.876 180.369 347.804 180.208 347.687 180.068C347.569 179.924 347.416 179.812 347.227 179.733C347.041 179.65 346.825 179.608 346.579 179.608C346.257 179.608 345.982 179.672 345.755 179.801C345.532 179.93 345.422 180.104 345.425 180.324C345.422 180.494 345.49 180.642 345.63 180.767C345.774 180.892 346.03 180.992 346.397 181.068L348.079 181.386C348.95 181.553 349.598 181.83 350.022 182.216C350.45 182.602 350.666 183.114 350.67 183.75C350.666 184.348 350.488 184.869 350.136 185.312C349.787 185.756 349.31 186.1 348.704 186.347C348.098 186.589 347.405 186.71 346.624 186.71C345.378 186.71 344.395 186.455 343.675 185.943C342.96 185.428 342.55 184.739 342.448 183.875L345.193 183.807C345.253 184.125 345.41 184.367 345.664 184.534C345.918 184.701 346.242 184.784 346.636 184.784C346.992 184.784 347.282 184.718 347.505 184.585C347.728 184.453 347.842 184.276 347.846 184.057C347.842 183.86 347.755 183.703 347.585 183.585C347.414 183.464 347.147 183.369 346.783 183.301L345.261 183.011C344.386 182.852 343.734 182.559 343.306 182.131C342.878 181.699 342.666 181.15 342.67 180.483C342.666 179.9 342.821 179.401 343.136 178.989C343.45 178.572 343.897 178.254 344.477 178.034C345.056 177.814 345.74 177.705 346.528 177.705C347.71 177.705 348.641 177.953 349.323 178.449C350.005 178.941 350.382 179.619 350.454 180.483Z" fill="black" fill-opacity="0.8"/>
<rect x="221" y="83" width="160" height="40" rx="3" fill="white" fill-opacity="0.5" stroke="#666666" stroke-width="4" stroke-linecap="round"/>
<path d="M266.928 101.58H264.088C264.05 101.288 263.972 101.025 263.855 100.79C263.737 100.555 263.582 100.354 263.389 100.188C263.195 100.021 262.966 99.8939 262.701 99.8068C262.44 99.7159 262.15 99.6705 261.832 99.6705C261.267 99.6705 260.781 99.8087 260.372 100.085C259.966 100.362 259.654 100.761 259.434 101.284C259.218 101.807 259.11 102.439 259.11 103.182C259.11 103.955 259.22 104.602 259.44 105.125C259.663 105.644 259.976 106.036 260.377 106.301C260.783 106.562 261.262 106.693 261.815 106.693C262.125 106.693 262.408 106.653 262.661 106.574C262.919 106.494 263.144 106.379 263.338 106.227C263.534 106.072 263.695 105.884 263.82 105.665C263.949 105.441 264.038 105.189 264.088 104.909L266.928 104.926C266.879 105.441 266.73 105.949 266.48 106.449C266.233 106.949 265.894 107.405 265.463 107.818C265.031 108.227 264.504 108.553 263.883 108.795C263.266 109.038 262.557 109.159 261.758 109.159C260.705 109.159 259.762 108.928 258.928 108.466C258.099 108 257.444 107.322 256.963 106.432C256.481 105.542 256.241 104.458 256.241 103.182C256.241 101.902 256.485 100.816 256.974 99.9261C257.463 99.036 258.124 98.3598 258.957 97.8977C259.79 97.4356 260.724 97.2045 261.758 97.2045C262.463 97.2045 263.114 97.303 263.713 97.5C264.311 97.6932 264.838 97.9773 265.292 98.3523C265.747 98.7235 266.116 99.1799 266.4 99.7216C266.684 100.263 266.86 100.883 266.928 101.58ZM272.436 109.165C271.519 109.165 270.731 108.977 270.072 108.602C269.417 108.223 268.911 107.697 268.555 107.023C268.203 106.345 268.027 105.559 268.027 104.665C268.027 103.767 268.203 102.981 268.555 102.307C268.911 101.629 269.417 101.102 270.072 100.727C270.731 100.348 271.519 100.159 272.436 100.159C273.352 100.159 274.138 100.348 274.794 100.727C275.453 101.102 275.958 101.629 276.311 102.307C276.667 102.981 276.845 103.767 276.845 104.665C276.845 105.559 276.667 106.345 276.311 107.023C275.958 107.697 275.453 108.223 274.794 108.602C274.138 108.977 273.352 109.165 272.436 109.165ZM272.453 107.068C272.786 107.068 273.068 106.966 273.299 106.761C273.53 106.557 273.707 106.273 273.828 105.909C273.953 105.545 274.015 105.125 274.015 104.648C274.015 104.163 273.953 103.739 273.828 103.375C273.707 103.011 273.53 102.727 273.299 102.523C273.068 102.318 272.786 102.216 272.453 102.216C272.108 102.216 271.816 102.318 271.578 102.523C271.343 102.727 271.163 103.011 271.038 103.375C270.917 103.739 270.856 104.163 270.856 104.648C270.856 105.125 270.917 105.545 271.038 105.909C271.163 106.273 271.343 106.557 271.578 106.761C271.816 106.966 272.108 107.068 272.453 107.068ZM278.092 109V100.273H280.734V101.875H280.831C281.013 101.345 281.319 100.926 281.751 100.619C282.183 100.312 282.698 100.159 283.297 100.159C283.903 100.159 284.422 100.314 284.853 100.625C285.285 100.936 285.56 101.352 285.677 101.875H285.768C285.931 101.356 286.249 100.941 286.723 100.631C287.196 100.316 287.755 100.159 288.399 100.159C289.225 100.159 289.895 100.424 290.41 100.955C290.925 101.481 291.183 102.205 291.183 103.125V109H288.405V103.761C288.405 103.326 288.293 102.994 288.069 102.767C287.846 102.536 287.556 102.42 287.2 102.42C286.817 102.42 286.516 102.545 286.297 102.795C286.081 103.042 285.973 103.373 285.973 103.79V109H283.302V103.733C283.302 103.328 283.192 103.008 282.973 102.773C282.753 102.538 282.463 102.42 282.103 102.42C281.861 102.42 281.647 102.479 281.461 102.597C281.276 102.71 281.13 102.873 281.024 103.085C280.922 103.297 280.87 103.547 280.87 103.835V109H278.092ZM292.729 109V100.273H295.371V101.875H295.467C295.649 101.345 295.956 100.926 296.388 100.619C296.819 100.312 297.335 100.159 297.933 100.159C298.539 100.159 299.058 100.314 299.49 100.625C299.922 100.936 300.196 101.352 300.314 101.875H300.405C300.568 101.356 300.886 100.941 301.359 100.631C301.833 100.316 302.391 100.159 303.035 100.159C303.861 100.159 304.532 100.424 305.047 100.955C305.562 101.481 305.819 102.205 305.819 103.125V109H303.041V103.761C303.041 103.326 302.929 102.994 302.706 102.767C302.482 102.536 302.193 102.42 301.837 102.42C301.454 102.42 301.153 102.545 300.933 102.795C300.717 103.042 300.609 103.373 300.609 103.79V109H297.939V103.733C297.939 103.328 297.829 103.008 297.609 102.773C297.39 102.538 297.1 102.42 296.74 102.42C296.497 102.42 296.283 102.479 296.098 102.597C295.912 102.71 295.766 102.873 295.66 103.085C295.558 103.297 295.507 103.547 295.507 103.835V109H292.729ZM312.996 105.233V100.273H315.768V109H313.121V107.375H313.03C312.837 107.909 312.507 108.333 312.041 108.648C311.579 108.958 311.02 109.114 310.365 109.114C309.77 109.114 309.248 108.977 308.797 108.705C308.346 108.432 307.996 108.051 307.746 107.562C307.496 107.07 307.369 106.494 307.365 105.835V100.273H310.143V105.29C310.147 105.763 310.272 106.136 310.518 106.409C310.765 106.682 311.1 106.818 311.524 106.818C311.801 106.818 312.049 106.758 312.268 106.636C312.492 106.511 312.668 106.331 312.797 106.097C312.929 105.858 312.996 105.57 312.996 105.233ZM320.139 104.023V109H317.361V100.273H320.003V101.875H320.1C320.293 101.341 320.622 100.922 321.088 100.619C321.554 100.312 322.109 100.159 322.753 100.159C323.367 100.159 323.899 100.297 324.35 100.574C324.804 100.847 325.156 101.229 325.406 101.722C325.66 102.21 325.785 102.782 325.781 103.438V109H323.003V103.983C323.007 103.498 322.884 103.119 322.634 102.847C322.387 102.574 322.045 102.438 321.605 102.438C321.314 102.438 321.056 102.502 320.833 102.631C320.613 102.756 320.442 102.936 320.321 103.17C320.204 103.405 320.143 103.689 320.139 104.023ZM327.326 109V100.273H330.104V109H327.326ZM328.718 99.2557C328.327 99.2557 327.992 99.1269 327.712 98.8693C327.432 98.608 327.291 98.2936 327.291 97.9261C327.291 97.5625 327.432 97.2519 327.712 96.9943C327.992 96.733 328.327 96.6023 328.718 96.6023C329.112 96.6023 329.447 96.733 329.723 96.9943C330.004 97.2519 330.144 97.5625 330.144 97.9261C330.144 98.2936 330.004 98.608 329.723 98.8693C329.447 99.1269 329.112 99.2557 328.718 99.2557ZM336.623 100.273V102.318H331.117V100.273H336.623ZM332.27 98.1818H335.049V106.256C335.049 106.426 335.075 106.564 335.128 106.67C335.185 106.773 335.267 106.847 335.373 106.892C335.479 106.934 335.606 106.955 335.753 106.955C335.859 106.955 335.971 106.945 336.088 106.926C336.21 106.903 336.301 106.884 336.361 106.869L336.782 108.875C336.649 108.913 336.462 108.96 336.219 109.017C335.981 109.074 335.695 109.11 335.361 109.125C334.71 109.155 334.151 109.08 333.685 108.898C333.223 108.712 332.869 108.424 332.623 108.034C332.38 107.644 332.263 107.153 332.27 106.562V98.1818ZM339.563 112.273C339.23 112.273 338.915 112.246 338.62 112.193C338.324 112.144 338.071 112.078 337.859 111.994L338.472 109.977C338.745 110.068 338.991 110.121 339.211 110.136C339.434 110.152 339.626 110.116 339.785 110.028C339.948 109.945 340.073 109.795 340.16 109.58L340.268 109.318L337.165 100.273H340.074L341.682 106.5H341.773L343.404 100.273H346.33L343.04 109.835C342.881 110.313 342.656 110.733 342.364 111.097C342.076 111.464 341.703 111.752 341.245 111.96C340.79 112.169 340.23 112.273 339.563 112.273Z" fill="black" fill-opacity="0.8"/>
<path d="M106.261 148H104.398L108.585 136.364H110.614L114.801 148H112.938L109.648 138.477H109.557L106.261 148ZM106.574 143.443H112.619V144.92H106.574V143.443ZM116.306 148V136.364H120.453C121.359 136.364 122.109 136.528 122.703 136.858C123.298 137.187 123.743 137.638 124.038 138.21C124.334 138.778 124.482 139.419 124.482 140.131C124.482 140.847 124.332 141.491 124.033 142.062C123.737 142.631 123.29 143.081 122.692 143.415C122.097 143.744 121.349 143.909 120.448 143.909H117.595V142.42H120.288C120.86 142.42 121.324 142.322 121.681 142.125C122.037 141.924 122.298 141.652 122.465 141.307C122.631 140.962 122.715 140.57 122.715 140.131C122.715 139.691 122.631 139.301 122.465 138.96C122.298 138.619 122.035 138.352 121.675 138.159C121.319 137.966 120.849 137.869 120.266 137.869H118.061V148H116.306ZM128.12 136.364V148H126.364V136.364H128.12Z" fill="#B3B3B3"/>
<rect x="3" y="83" width="160" height="40" rx="3" fill="#FF6F00" fill-opacity="0.75" stroke="#757575" stroke-width="6" stroke-linecap="round"/>
<path d="M34.2456 109H29.9445V97.3636H34.2399C35.4256 97.3636 36.4464 97.5966 37.3024 98.0625C38.1623 98.5246 38.8252 99.1913 39.2911 100.062C39.757 100.93 39.9899 101.968 39.9899 103.176C39.9899 104.388 39.757 105.43 39.2911 106.301C38.829 107.172 38.168 107.841 37.3081 108.307C36.4483 108.769 35.4274 109 34.2456 109ZM32.757 106.602H34.1377C34.7892 106.602 35.3403 106.492 35.7911 106.273C36.2456 106.049 36.5884 105.688 36.8195 105.188C37.0543 104.684 37.1718 104.013 37.1718 103.176C37.1718 102.339 37.0543 101.672 36.8195 101.176C36.5846 100.676 36.2381 100.316 35.7797 100.097C35.3252 99.8731 34.7646 99.7614 34.0979 99.7614H32.757V106.602ZM41.456 109V97.3636H49.5696V99.6477H44.2685V102.034H49.1549V104.324H44.2685V106.716H49.5696V109H41.456ZM51.155 109V97.3636H55.9618C56.833 97.3636 57.5849 97.5208 58.2175 97.8352C58.8539 98.1458 59.3444 98.5928 59.6891 99.1761C60.0338 99.7557 60.2061 100.443 60.2061 101.239C60.2061 102.045 60.03 102.731 59.6777 103.295C59.3255 103.856 58.8255 104.284 58.1777 104.58C57.53 104.871 56.763 105.017 55.8766 105.017H52.8368V102.801H55.3539C55.7781 102.801 56.1323 102.746 56.4164 102.636C56.7042 102.523 56.922 102.352 57.0698 102.125C57.2175 101.894 57.2914 101.598 57.2914 101.239C57.2914 100.879 57.2175 100.581 57.0698 100.347C56.922 100.108 56.7042 99.9299 56.4164 99.8125C56.1285 99.6913 55.7743 99.6307 55.3539 99.6307H53.9675V109H51.155ZM57.7061 103.682L60.6039 109H57.5357L54.6948 103.682H57.7061ZM69.1354 109H64.8342V97.3636H69.1297C70.3153 97.3636 71.3361 97.5966 72.1922 98.0625C73.052 98.5246 73.7149 99.1913 74.1808 100.062C74.6467 100.93 74.8797 101.968 74.8797 103.176C74.8797 104.388 74.6467 105.43 74.1808 106.301C73.7187 107.172 73.0577 107.841 72.1979 108.307C71.338 108.769 70.3172 109 69.1354 109ZM67.6467 106.602H69.0274C69.6789 106.602 70.2301 106.492 70.6808 106.273C71.1354 106.049 71.4782 105.688 71.7092 105.188C71.9441 104.684 72.0615 104.013 72.0615 103.176C72.0615 102.339 71.9441 101.672 71.7092 101.176C71.4744 100.676 71.1278 100.316 70.6695 100.097C70.2149 99.8731 69.6543 99.7614 68.9877 99.7614H67.6467V106.602ZM76.3457 109V100.273H79.1241V109H76.3457ZM77.7378 99.2557C77.3476 99.2557 77.0124 99.1269 76.7321 98.8693C76.4518 98.608 76.3116 98.2936 76.3116 97.9261C76.3116 97.5625 76.4518 97.2519 76.7321 96.9943C77.0124 96.733 77.3476 96.6023 77.7378 96.6023C78.1317 96.6023 78.467 96.733 78.7435 96.9943C79.0238 97.2519 79.1639 97.5625 79.1639 97.9261C79.1639 98.2936 79.0238 98.608 78.7435 98.8693C78.467 99.1269 78.1317 99.2557 77.7378 99.2557ZM80.7166 109V100.273H83.4155V101.864H83.5064C83.6655 101.288 83.925 100.86 84.2848 100.58C84.6446 100.295 85.0632 100.153 85.5405 100.153C85.6693 100.153 85.8018 100.163 85.9382 100.182C86.0746 100.197 86.2015 100.222 86.3189 100.256V102.67C86.1863 102.625 86.0121 102.589 85.7962 102.562C85.584 102.536 85.3946 102.523 85.228 102.523C84.8984 102.523 84.6011 102.597 84.3359 102.744C84.0746 102.888 83.8681 103.091 83.7166 103.352C83.5689 103.61 83.495 103.913 83.495 104.261V109H80.7166ZM90.9014 109.165C89.9885 109.165 89.2007 108.985 88.5378 108.625C87.8787 108.261 87.3711 107.744 87.0151 107.074C86.6628 106.4 86.4866 105.598 86.4866 104.67C86.4866 103.769 86.6647 102.981 87.0207 102.307C87.3768 101.629 87.8787 101.102 88.5264 100.727C89.1741 100.348 89.9374 100.159 90.8162 100.159C91.4374 100.159 92.0056 100.256 92.5207 100.449C93.0359 100.642 93.481 100.928 93.856 101.307C94.231 101.686 94.5226 102.153 94.731 102.71C94.9393 103.263 95.0435 103.898 95.0435 104.614V105.307H87.4582V103.693H92.4582C92.4545 103.398 92.3844 103.134 92.248 102.903C92.1116 102.672 91.9241 102.492 91.6855 102.364C91.4507 102.231 91.1798 102.165 90.873 102.165C90.5624 102.165 90.284 102.235 90.0378 102.375C89.7916 102.511 89.5965 102.699 89.4526 102.938C89.3086 103.172 89.2329 103.439 89.2253 103.739V105.381C89.2253 105.737 89.2954 106.049 89.4355 106.318C89.5757 106.583 89.7745 106.79 90.0321 106.938C90.2897 107.085 90.5965 107.159 90.9526 107.159C91.1988 107.159 91.4223 107.125 91.623 107.057C91.8238 106.989 91.9961 106.888 92.1401 106.756C92.284 106.623 92.392 106.46 92.4639 106.267L95.0151 106.341C94.909 106.913 94.676 107.411 94.3162 107.835C93.9601 108.256 93.4923 108.583 92.9128 108.818C92.3332 109.049 91.6628 109.165 90.9014 109.165ZM100.36 109.165C99.4399 109.165 98.6501 108.975 97.991 108.597C97.3357 108.218 96.832 107.691 96.4797 107.017C96.1274 106.339 95.9513 105.555 95.9513 104.665C95.9513 103.771 96.1274 102.987 96.4797 102.312C96.8357 101.634 97.3414 101.106 97.9967 100.727C98.6558 100.348 99.4418 100.159 100.355 100.159C101.161 100.159 101.864 100.305 102.463 100.597C103.065 100.888 103.535 101.301 103.872 101.835C104.213 102.366 104.393 102.989 104.411 103.705H101.815C101.762 103.258 101.61 102.907 101.36 102.653C101.114 102.4 100.792 102.273 100.394 102.273C100.072 102.273 99.7903 102.364 99.5479 102.545C99.3054 102.723 99.116 102.989 98.9797 103.341C98.8471 103.689 98.7808 104.121 98.7808 104.636C98.7808 105.152 98.8471 105.587 98.9797 105.943C99.116 106.295 99.3054 106.562 99.5479 106.744C99.7903 106.922 100.072 107.011 100.394 107.011C100.652 107.011 100.879 106.956 101.076 106.847C101.277 106.737 101.442 106.576 101.571 106.364C101.699 106.148 101.781 105.886 101.815 105.58H104.411C104.385 106.299 104.205 106.928 103.872 107.466C103.542 108.004 103.078 108.422 102.48 108.722C101.885 109.017 101.179 109.165 100.36 109.165ZM110.584 100.273V102.318H105.078V100.273H110.584ZM106.231 98.1818H109.01V106.256C109.01 106.426 109.036 106.564 109.089 106.67C109.146 106.773 109.227 106.847 109.334 106.892C109.44 106.934 109.566 106.955 109.714 106.955C109.82 106.955 109.932 106.945 110.049 106.926C110.171 106.903 110.262 106.884 110.322 106.869L110.743 108.875C110.61 108.913 110.423 108.96 110.18 109.017C109.941 109.074 109.655 109.11 109.322 109.125C108.671 109.155 108.112 109.08 107.646 108.898C107.184 108.712 106.83 108.424 106.584 108.034C106.341 107.644 106.224 107.153 106.231 106.562V98.1818ZM115.805 109.165C114.889 109.165 114.101 108.977 113.442 108.602C112.786 108.223 112.281 107.697 111.925 107.023C111.572 106.345 111.396 105.559 111.396 104.665C111.396 103.767 111.572 102.981 111.925 102.307C112.281 101.629 112.786 101.102 113.442 100.727C114.101 100.348 114.889 100.159 115.805 100.159C116.722 100.159 117.508 100.348 118.163 100.727C118.822 101.102 119.328 101.629 119.68 102.307C120.036 102.981 120.214 103.767 120.214 104.665C120.214 105.559 120.036 106.345 119.68 107.023C119.328 107.697 118.822 108.223 118.163 108.602C117.508 108.977 116.722 109.165 115.805 109.165ZM115.822 107.068C116.156 107.068 116.438 106.966 116.669 106.761C116.9 106.557 117.076 106.273 117.197 105.909C117.322 105.545 117.385 105.125 117.385 104.648C117.385 104.163 117.322 103.739 117.197 103.375C117.076 103.011 116.9 102.727 116.669 102.523C116.438 102.318 116.156 102.216 115.822 102.216C115.478 102.216 115.186 102.318 114.947 102.523C114.712 102.727 114.533 103.011 114.408 103.375C114.286 103.739 114.226 104.163 114.226 104.648C114.226 105.125 114.286 105.545 114.408 105.909C114.533 106.273 114.712 106.557 114.947 106.761C115.186 106.966 115.478 107.068 115.822 107.068ZM121.462 109V100.273H124.16V101.864H124.251C124.41 101.288 124.67 100.86 125.03 100.58C125.39 100.295 125.808 100.153 126.285 100.153C126.414 100.153 126.547 100.163 126.683 100.182C126.82 100.197 126.946 100.222 127.064 100.256V102.67C126.931 102.625 126.757 102.589 126.541 102.562C126.329 102.536 126.14 102.523 125.973 102.523C125.643 102.523 125.346 102.597 125.081 102.744C124.82 102.888 124.613 103.091 124.462 103.352C124.314 103.61 124.24 103.913 124.24 104.261V109H121.462ZM129.984 112.273C129.651 112.273 129.337 112.246 129.041 112.193C128.746 112.144 128.492 112.078 128.28 111.994L128.894 109.977C129.166 110.068 129.413 110.121 129.632 110.136C129.856 110.152 130.047 110.116 130.206 110.028C130.369 109.945 130.494 109.795 130.581 109.58L130.689 109.318L127.587 100.273H130.496L132.104 106.5H132.195L133.825 100.273H136.752L133.462 109.835C133.303 110.313 133.077 110.733 132.786 111.097C132.498 111.464 132.125 111.752 131.666 111.96C131.212 112.169 130.651 112.273 129.984 112.273Z" fill="white"/>
<rect x="3" y="3" width="70" height="40" rx="3" fill="white" fill-opacity="0.5" stroke="#666666" stroke-width="4" stroke-linecap="round"/>
<path d="M20.5758 17.3636L23.1781 25.8864H23.2747L25.8769 17.3636H29.0247L25.0985 29H21.3542L17.4281 17.3636H20.5758ZM30.1015 29V17.3636H34.9083C35.7795 17.3636 36.5314 17.5341 37.164 17.875C37.8004 18.2121 38.2909 18.6837 38.6356 19.2898C38.9803 19.892 39.1526 20.5928 39.1526 21.392C39.1526 22.1951 38.9765 22.8977 38.6242 23.5C38.2757 24.0985 37.7776 24.5625 37.1299 24.892C36.4822 25.2216 35.7132 25.3864 34.8231 25.3864H31.8572V23.1705H34.3004C34.7246 23.1705 35.0788 23.0966 35.3629 22.9489C35.6507 22.8011 35.8685 22.5947 36.0163 22.3295C36.164 22.0606 36.2379 21.7481 36.2379 21.392C36.2379 21.0322 36.164 20.7216 36.0163 20.4602C35.8685 20.1951 35.6507 19.9905 35.3629 19.8466C35.075 19.7027 34.7208 19.6307 34.3004 19.6307H32.914V29H30.1015ZM40.363 29V17.3636H45.1698C46.041 17.3636 46.7929 17.5341 47.4255 17.875C48.0619 18.2121 48.5524 18.6837 48.8971 19.2898C49.2418 19.892 49.4141 20.5928 49.4141 21.392C49.4141 22.1951 49.238 22.8977 48.8857 23.5C48.5372 24.0985 48.0391 24.5625 47.3914 24.892C46.7437 25.2216 45.9747 25.3864 45.0846 25.3864H42.1187V23.1705H44.5619C44.9861 23.1705 45.3403 23.0966 45.6244 22.9489C45.9122 22.8011 46.13 22.5947 46.2778 22.3295C46.4255 22.0606 46.4994 21.7481 46.4994 21.392C46.4994 21.0322 46.4255 20.7216 46.2778 20.4602C46.13 20.1951 45.9122 19.9905 45.6244 19.8466C45.3365 19.7027 44.9823 19.6307 44.5619 19.6307H43.1755V29H40.363ZM58.2438 22.9375L55.6927 23.0057C55.6662 22.8239 55.5942 22.6629 55.4768 22.5227C55.3593 22.3788 55.2059 22.267 55.0165 22.1875C54.8309 22.1042 54.615 22.0625 54.3688 22.0625C54.0468 22.0625 53.7722 22.1269 53.5449 22.2557C53.3215 22.3845 53.2116 22.5587 53.2154 22.7784C53.2116 22.9489 53.2798 23.0966 53.4199 23.2216C53.5639 23.3466 53.8196 23.447 54.187 23.5227L55.8688 23.8409C56.74 24.0076 57.3878 24.2841 57.812 24.6705C58.24 25.0568 58.4559 25.5682 58.4597 26.2045C58.4559 26.803 58.2779 27.3239 57.9256 27.767C57.5771 28.2102 57.0999 28.5549 56.4938 28.8011C55.8878 29.0436 55.1946 29.1648 54.4143 29.1648C53.1681 29.1648 52.1851 28.9091 51.4654 28.3977C50.7495 27.8826 50.3404 27.1932 50.2381 26.3295L52.9824 26.2614C53.0431 26.5795 53.2003 26.822 53.454 26.9886C53.7078 27.1553 54.0317 27.2386 54.4256 27.2386C54.7817 27.2386 55.0715 27.1723 55.2949 27.0398C55.5184 26.9072 55.6321 26.7311 55.6359 26.5114C55.6321 26.3144 55.5449 26.1572 55.3745 26.0398C55.204 25.9186 54.937 25.8239 54.5734 25.7557L53.0506 25.4659C52.1756 25.3068 51.5241 25.0133 51.0961 24.5852C50.6681 24.1534 50.4559 23.6042 50.4597 22.9375C50.4559 22.3542 50.6112 21.8561 50.9256 21.4432C51.24 21.0265 51.687 20.7083 52.2665 20.4886C52.8461 20.2689 53.5298 20.1591 54.3177 20.1591C55.4995 20.1591 56.4313 20.4072 57.1131 20.9034C57.7949 21.3958 58.1718 22.0739 58.2438 22.9375Z" fill="black" fill-opacity="0.8"/>
<rect x="93" y="3" width="70" height="40" rx="3" fill="white" fill-opacity="0.5" stroke="#666666" stroke-width="4" stroke-linecap="round"/>
<path d="M116.893 23.1818C116.893 24.4621 116.647 25.5473 116.155 26.4375C115.662 27.3277 114.996 28.0038 114.155 28.4659C113.318 28.928 112.378 29.1591 111.336 29.1591C110.291 29.1591 109.35 28.9261 108.513 28.4602C107.675 27.9943 107.011 27.3182 106.518 26.4318C106.03 25.5417 105.785 24.4583 105.785 23.1818C105.785 21.9015 106.03 20.8163 106.518 19.9261C107.011 19.036 107.675 18.3598 108.513 17.8977C109.35 17.4356 110.291 17.2045 111.336 17.2045C112.378 17.2045 113.318 17.4356 114.155 17.8977C114.996 18.3598 115.662 19.036 116.155 19.9261C116.647 20.8163 116.893 21.9015 116.893 23.1818ZM114.018 23.1818C114.018 22.4242 113.91 21.7841 113.694 21.2614C113.482 20.7386 113.175 20.3428 112.774 20.0739C112.376 19.8049 111.897 19.6705 111.336 19.6705C110.78 19.6705 110.3 19.8049 109.899 20.0739C109.497 20.3428 109.189 20.7386 108.973 21.2614C108.761 21.7841 108.655 22.4242 108.655 23.1818C108.655 23.9394 108.761 24.5795 108.973 25.1023C109.189 25.625 109.497 26.0208 109.899 26.2898C110.3 26.5587 110.78 26.6932 111.336 26.6932C111.897 26.6932 112.376 26.5587 112.774 26.2898C113.175 26.0208 113.482 25.625 113.694 25.1023C113.91 24.5795 114.018 23.9394 114.018 23.1818ZM118.359 29V17.3636H126.473V19.6477H121.172V22.0341H126.058V24.3239H121.172V26.7159H126.473V29H118.359ZM128.058 17.3636H131.541L134.496 24.5682H134.632L137.587 17.3636H141.07V29H138.331V21.8523H138.234L135.439 28.9261H133.689L130.894 21.8125H130.797V29H128.058V17.3636ZM150.267 22.9375L147.716 23.0057C147.69 22.8239 147.618 22.6629 147.5 22.5227C147.383 22.3788 147.229 22.267 147.04 22.1875C146.854 22.1042 146.638 22.0625 146.392 22.0625C146.07 22.0625 145.796 22.1269 145.568 22.2557C145.345 22.3845 145.235 22.5587 145.239 22.7784C145.235 22.9489 145.303 23.0966 145.443 23.2216C145.587 23.3466 145.843 23.447 146.21 23.5227L147.892 23.8409C148.763 24.0076 149.411 24.2841 149.835 24.6705C150.263 25.0568 150.479 25.5682 150.483 26.2045C150.479 26.803 150.301 27.3239 149.949 27.767C149.601 28.2102 149.123 28.5549 148.517 28.8011C147.911 29.0436 147.218 29.1648 146.438 29.1648C145.191 29.1648 144.209 28.9091 143.489 28.3977C142.773 27.8826 142.364 27.1932 142.262 26.3295L145.006 26.2614C145.066 26.5795 145.224 26.822 145.477 26.9886C145.731 27.1553 146.055 27.2386 146.449 27.2386C146.805 27.2386 147.095 27.1723 147.318 27.0398C147.542 26.9072 147.656 26.7311 147.659 26.5114C147.656 26.3144 147.568 26.1572 147.398 26.0398C147.227 25.9186 146.96 25.8239 146.597 25.7557L145.074 25.4659C144.199 25.3068 143.548 25.0133 143.12 24.5852C142.691 24.1534 142.479 23.6042 142.483 22.9375C142.479 22.3542 142.635 21.8561 142.949 21.4432C143.263 21.0265 143.71 20.7083 144.29 20.4886C144.87 20.2689 145.553 20.1591 146.341 20.1591C147.523 20.1591 148.455 20.4072 149.137 20.9034C149.818 21.3958 150.195 22.0739 150.267 22.9375Z" fill="black" fill-opacity="0.8"/>
<path d="M170.086 179.131C169.305 179.912 169.305 181.179 170.086 181.96L182.814 194.688C183.595 195.469 184.861 195.469 185.642 194.688C186.423 193.906 186.423 192.64 185.642 191.859L174.328 180.545L185.642 169.232C186.423 168.451 186.423 167.184 185.642 166.403C184.861 165.622 183.595 165.622 182.814 166.403L170.086 179.131ZM213.914 181.96C214.695 181.179 214.695 179.912 213.914 179.131L201.186 166.403C200.405 165.622 199.139 165.622 198.358 166.403C197.577 167.184 197.577 168.451 198.358 169.232L209.672 180.545L198.358 191.859C197.577 192.64 197.577 193.906 198.358 194.688C199.139 195.469 200.405 195.469 201.186 194.688L213.914 181.96ZM171.5 182.545H212.5V178.545H171.5V182.545Z" fill="#B3B3B3"/>
<path d="M85 132C85 130.895 84.1046 130 83 130C81.8954 130 81 130.895 81 132H85ZM81.5858 153.46C82.3668 154.241 83.6332 154.241 84.4142 153.46L97.1421 140.732C97.9232 139.951 97.9232 138.684 97.1421 137.903C96.3611 137.122 95.0948 137.122 94.3137 137.903L83 149.217L71.6863 137.903C70.9052 137.122 69.6389 137.122 68.8579 137.903C68.0768 138.684 68.0768 139.951 68.8579 140.732L81.5858 153.46ZM81 132V152.045H85V132H81Z" fill="#B3B3B3"/>
<path d="M171.086 101.586C170.305 102.367 170.305 103.633 171.086 104.414L183.814 117.142C184.595 117.923 185.861 117.923 186.642 117.142C187.423 116.361 187.423 115.095 186.642 114.314L175.328 103L186.642 91.6863C187.423 90.9052 187.423 89.6389 186.642 88.8579C185.861 88.0768 184.595 88.0768 183.814 88.8579L171.086 101.586ZM213 105C214.105 105 215 104.105 215 103C215 101.895 214.105 101 213 101V105ZM172.5 105H213V101H172.5V105Z" fill="#B3B3B3"/>
<path d="M129.779 51C129.779 49.8954 128.884 49 127.779 49C126.675 49 125.779 49.8954 125.779 51H129.779ZM126.365 74.9142C127.146 75.6953 128.412 75.6953 129.194 74.9142L141.921 62.1863C142.702 61.4052 142.702 60.1389 141.921 59.3579C141.14 58.5768 139.874 58.5768 139.093 59.3579L127.779 70.6716L116.466 59.3579C115.685 58.5768 114.418 58.5768 113.637 59.3579C112.856 60.1389 112.856 61.4052 113.637 62.1863L126.365 74.9142ZM125.779 51V73.5H129.779V51H125.779Z" fill="#B3B3B3"/>
<path d="M40.502 51C40.502 49.8954 39.6065 49 38.502 49C37.3974 49 36.502 49.8954 36.502 51H40.502ZM37.0877 74.9142C37.8688 75.6953 39.1351 75.6953 39.9162 74.9142L52.6441 62.1863C53.4251 61.4052 53.4251 60.1389 52.6441 59.3579C51.863 58.5768 50.5967 58.5768 49.8157 59.3579L38.502 70.6716L27.1882 59.3579C26.4072 58.5768 25.1409 58.5768 24.3598 59.3579C23.5788 60.1389 23.5788 61.4052 24.3598 62.1863L37.0877 74.9142ZM36.502 51V73.5H40.502V51H36.502Z" fill="#B3B3B3"/>
<circle cx="128" cy="44" r="12" fill="#757575"/>
<path d="M124.5 49.8333C124.179 49.8333 123.904 49.7191 123.676 49.4906C123.447 49.2621 123.333 48.9875 123.333 48.6666V42.8333C123.333 42.5125 123.447 42.2378 123.676 42.0094C123.904 41.7809 124.179 41.6666 124.5 41.6666H125.083V40.5C125.083 39.693 125.367 39.0052 125.936 38.4364C126.505 37.8677 127.193 37.5833 128 37.5833C128.807 37.5833 129.494 37.8677 130.063 38.4364C130.632 39.0052 130.916 39.693 130.916 40.5V41.6666H131.5C131.821 41.6666 132.095 41.7809 132.324 42.0094C132.552 42.2378 132.666 42.5125 132.666 42.8333V48.6666C132.666 48.9875 132.552 49.2621 132.324 49.4906C132.095 49.7191 131.821 49.8333 131.5 49.8333H124.5ZM124.5 48.6666H131.5V42.8333H124.5V48.6666ZM128 46.9166C128.321 46.9166 128.595 46.8024 128.824 46.5739C129.052 46.3455 129.166 46.0708 129.166 45.75C129.166 45.4291 129.052 45.1545 128.824 44.926C128.595 44.6975 128.321 44.5833 128 44.5833C127.679 44.5833 127.404 44.6975 127.176 44.926C126.947 45.1545 126.833 45.4291 126.833 45.75C126.833 46.0708 126.947 46.3455 127.176 46.5739C127.404 46.8024 127.679 46.9166 128 46.9166ZM126.25 41.6666H129.75V40.5C129.75 40.0139 129.58 39.6007 129.239 39.2604C128.899 38.9201 128.486 38.75 128 38.75C127.514 38.75 127.1 38.9201 126.76 39.2604C126.42 39.6007 126.25 40.0139 126.25 40.5V41.6666Z" fill="#E3E3E3"/>
<circle cx="39" cy="44" r="12" fill="#757575"/>
<path d="M35.4997 49.8333C35.1788 49.8333 34.9042 49.7191 34.6757 49.4906C34.4472 49.2621 34.333 48.9875 34.333 48.6666V42.8333C34.333 42.5125 34.4472 42.2378 34.6757 42.0094C34.9042 41.7809 35.1788 41.6666 35.4997 41.6666H36.083V40.5C36.083 39.693 36.3674 39.0052 36.9361 38.4364C37.5049 37.8677 38.1927 37.5833 38.9997 37.5833C39.8066 37.5833 40.4945 37.8677 41.0632 38.4364C41.632 39.0052 41.9163 39.693 41.9163 40.5V41.6666H42.4997C42.8205 41.6666 43.0952 41.7809 43.3236 42.0094C43.5521 42.2378 43.6663 42.5125 43.6663 42.8333V48.6666C43.6663 48.9875 43.5521 49.2621 43.3236 49.4906C43.0952 49.7191 42.8205 49.8333 42.4997 49.8333H35.4997ZM35.4997 48.6666H42.4997V42.8333H35.4997V48.6666ZM38.9997 46.9166C39.3205 46.9166 39.5952 46.8024 39.8236 46.5739C40.0521 46.3455 40.1663 46.0708 40.1663 45.75C40.1663 45.4291 40.0521 45.1545 39.8236 44.926C39.5952 44.6975 39.3205 44.5833 38.9997 44.5833C38.6788 44.5833 38.4042 44.6975 38.1757 44.926C37.9472 45.1545 37.833 45.4291 37.833 45.75C37.833 46.0708 37.9472 46.3455 38.1757 46.5739C38.4042 46.8024 38.6788 46.9166 38.9997 46.9166ZM37.2497 41.6666H40.7497V40.5C40.7497 40.0139 40.5795 39.6007 40.2393 39.2604C39.899 38.9201 39.4858 38.75 38.9997 38.75C38.5136 38.75 38.1004 38.9201 37.7601 39.2604C37.4198 39.6007 37.2497 40.0139 37.2497 40.5V41.6666Z" fill="#E3E3E3"/>
</svg>
