<svg width="384" height="236" viewBox="0 0 384 236" fill="none" xmlns="http://www.w3.org/2000/svg">
<rect x="3" y="160.545" width="160" height="72" rx="6" fill="white" fill-opacity="0.5" stroke="#666666" stroke-width="4" stroke-linecap="round"/>
<path d="M23.9295 193.909H27.0716L29.5318 198.778H29.6341L32.0943 193.909H35.2363L30.9806 201.659V205.545H28.1852V201.659L23.9295 193.909ZM38.2975 205.71C37.3809 205.71 36.593 205.523 35.9339 205.148C35.2786 204.769 34.7729 204.242 34.4169 203.568C34.0646 202.89 33.8885 202.104 33.8885 201.21C33.8885 200.312 34.0646 199.526 34.4169 198.852C34.7729 198.174 35.2786 197.648 35.9339 197.273C36.593 196.894 37.3809 196.705 38.2975 196.705C39.2142 196.705 40.0002 196.894 40.6555 197.273C41.3146 197.648 41.8203 198.174 42.1725 198.852C42.5286 199.526 42.7066 200.312 42.7066 201.21C42.7066 202.104 42.5286 202.89 42.1725 203.568C41.8203 204.242 41.3146 204.769 40.6555 205.148C40.0002 205.523 39.2142 205.71 38.2975 205.71ZM38.3146 203.614C38.6479 203.614 38.9301 203.511 39.1612 203.307C39.3922 203.102 39.5684 202.818 39.6896 202.455C39.8146 202.091 39.8771 201.67 39.8771 201.193C39.8771 200.708 39.8146 200.284 39.6896 199.92C39.5684 199.557 39.3922 199.273 39.1612 199.068C38.9301 198.864 38.6479 198.761 38.3146 198.761C37.9699 198.761 37.6782 198.864 37.4396 199.068C37.2047 199.273 37.0248 199.557 36.8998 199.92C36.7786 200.284 36.718 200.708 36.718 201.193C36.718 201.67 36.7786 202.091 36.8998 202.455C37.0248 202.818 37.2047 203.102 37.4396 203.307C37.6782 203.511 37.9699 203.614 38.3146 203.614ZM49.5846 201.778V196.818H52.3573V205.545H49.7096V203.92H49.6187C49.4255 204.455 49.096 204.879 48.6301 205.193C48.1679 205.504 47.6092 205.659 46.9539 205.659C46.3592 205.659 45.8365 205.523 45.3857 205.25C44.935 204.977 44.5846 204.597 44.3346 204.108C44.0846 203.615 43.9577 203.04 43.9539 202.381V196.818H46.7323V201.835C46.7361 202.309 46.8611 202.682 47.1073 202.955C47.3536 203.227 47.6888 203.364 48.113 203.364C48.3895 203.364 48.6376 203.303 48.8573 203.182C49.0808 203.057 49.257 202.877 49.3857 202.642C49.5183 202.403 49.5846 202.115 49.5846 201.778ZM53.9498 205.545V196.818H56.6487V198.409H56.7396C56.8987 197.833 57.1581 197.405 57.518 197.125C57.8778 196.841 58.2964 196.699 58.7737 196.699C58.9025 196.699 59.035 196.708 59.1714 196.727C59.3078 196.742 59.4347 196.767 59.5521 196.801V199.216C59.4195 199.17 59.2453 199.134 59.0294 199.108C58.8172 199.081 58.6278 199.068 58.4612 199.068C58.1316 199.068 57.8343 199.142 57.5691 199.29C57.3078 199.434 57.1013 199.636 56.9498 199.898C56.8021 200.155 56.7282 200.458 56.7282 200.807V205.545H53.9498ZM71.389 199.483L68.8379 199.551C68.8113 199.369 68.7394 199.208 68.622 199.068C68.5045 198.924 68.3511 198.812 68.1617 198.733C67.9761 198.65 67.7602 198.608 67.514 198.608C67.192 198.608 66.9174 198.672 66.6901 198.801C66.4667 198.93 66.3568 199.104 66.3606 199.324C66.3568 199.494 66.425 199.642 66.5651 199.767C66.7091 199.892 66.9648 199.992 67.3322 200.068L69.014 200.386C69.8852 200.553 70.5329 200.83 70.9572 201.216C71.3852 201.602 71.6011 202.114 71.6049 202.75C71.6011 203.348 71.4231 203.869 71.0708 204.312C70.7223 204.756 70.2451 205.1 69.639 205.347C69.0329 205.589 68.3398 205.71 67.5595 205.71C66.3132 205.71 65.3303 205.455 64.6106 204.943C63.8947 204.428 63.4856 203.739 63.3833 202.875L66.1276 202.807C66.1882 203.125 66.3454 203.367 66.5992 203.534C66.853 203.701 67.1769 203.784 67.5708 203.784C67.9269 203.784 68.2167 203.718 68.4401 203.585C68.6636 203.453 68.7773 203.276 68.781 203.057C68.7773 202.86 68.6901 202.703 68.5197 202.585C68.3492 202.464 68.0822 202.369 67.7185 202.301L66.1958 202.011C65.3208 201.852 64.6693 201.559 64.2413 201.131C63.8132 200.699 63.6011 200.15 63.6049 199.483C63.6011 198.9 63.7564 198.401 64.0708 197.989C64.3852 197.572 64.8322 197.254 65.4117 197.034C65.9913 196.814 66.675 196.705 67.4629 196.705C68.6447 196.705 69.5765 196.953 70.2583 197.449C70.9401 197.941 71.317 198.619 71.389 199.483ZM72.7968 205.545V196.818H75.4389V198.42H75.5354C75.7173 197.89 76.0241 197.472 76.4559 197.165C76.8877 196.858 77.4029 196.705 78.0014 196.705C78.6074 196.705 79.1264 196.86 79.5582 197.17C79.99 197.481 80.2646 197.898 80.382 198.42H80.4729C80.6358 197.901 80.954 197.487 81.4275 197.176C81.901 196.862 82.4597 196.705 83.1036 196.705C83.9294 196.705 84.5998 196.97 85.115 197.5C85.6301 198.026 85.8877 198.75 85.8877 199.67V205.545H83.1093V200.307C83.1093 199.871 82.9976 199.54 82.7741 199.312C82.5506 199.081 82.2608 198.966 81.9048 198.966C81.5222 198.966 81.2211 199.091 81.0014 199.341C80.7854 199.587 80.6775 199.919 80.6775 200.335V205.545H78.007V200.278C78.007 199.873 77.8972 199.553 77.6775 199.318C77.4578 199.083 77.168 198.966 76.8082 198.966C76.5657 198.966 76.3517 199.025 76.1661 199.142C75.9805 199.256 75.8347 199.419 75.7286 199.631C75.6264 199.843 75.5752 200.093 75.5752 200.381V205.545H72.7968ZM89.8935 205.693C89.3367 205.693 88.8424 205.6 88.4106 205.415C87.9826 205.225 87.6435 204.941 87.3935 204.562C87.1473 204.18 87.0242 203.701 87.0242 203.125C87.0242 202.64 87.1094 202.231 87.2799 201.898C87.4504 201.564 87.6852 201.294 87.9844 201.085C88.2837 200.877 88.6284 200.72 89.0185 200.614C89.4087 200.504 89.8254 200.43 90.2685 200.392C90.7647 200.347 91.1644 200.299 91.4674 200.25C91.7704 200.197 91.9901 200.123 92.1265 200.028C92.2666 199.93 92.3367 199.792 92.3367 199.614V199.585C92.3367 199.294 92.2363 199.068 92.0356 198.909C91.8348 198.75 91.564 198.67 91.2231 198.67C90.8557 198.67 90.5602 198.75 90.3367 198.909C90.1132 199.068 89.9712 199.288 89.9106 199.568L87.3481 199.477C87.4238 198.947 87.6189 198.473 87.9333 198.057C88.2515 197.636 88.6871 197.307 89.2401 197.068C89.7969 196.826 90.4655 196.705 91.2458 196.705C91.8026 196.705 92.3159 196.771 92.7856 196.903C93.2553 197.032 93.6644 197.222 94.0129 197.472C94.3613 197.718 94.6303 198.021 94.8197 198.381C95.0129 198.74 95.1094 199.151 95.1094 199.614V205.545H92.4958V204.33H92.4276C92.2723 204.625 92.0735 204.875 91.831 205.08C91.5924 205.284 91.3102 205.437 90.9844 205.54C90.6625 205.642 90.2988 205.693 89.8935 205.693ZM90.7515 203.875C91.0507 203.875 91.3197 203.814 91.5583 203.693C91.8007 203.572 91.9939 203.405 92.1379 203.193C92.2818 202.977 92.3538 202.727 92.3538 202.443V201.614C92.2742 201.655 92.1776 201.693 92.064 201.727C91.9541 201.761 91.8329 201.794 91.7004 201.824C91.5678 201.854 91.4314 201.881 91.2913 201.903C91.1511 201.926 91.0166 201.947 90.8879 201.966C90.6265 202.008 90.403 202.072 90.2174 202.159C90.0356 202.246 89.8954 202.36 89.7969 202.5C89.7022 202.636 89.6549 202.799 89.6549 202.989C89.6549 203.276 89.7572 203.496 89.9617 203.648C90.1701 203.799 90.4333 203.875 90.7515 203.875ZM96.6323 205.545V196.818H99.3312V198.409H99.4221C99.5812 197.833 99.8406 197.405 100.2 197.125C100.56 196.841 100.979 196.699 101.456 196.699C101.585 196.699 101.718 196.708 101.854 196.727C101.99 196.742 102.117 196.767 102.235 196.801V199.216C102.102 199.17 101.928 199.134 101.712 199.108C101.5 199.081 101.31 199.068 101.144 199.068C100.814 199.068 100.517 199.142 100.252 199.29C99.9903 199.434 99.7838 199.636 99.6323 199.898C99.4846 200.155 99.4107 200.458 99.4107 200.807V205.545H96.6323ZM108.523 196.818V198.864H103.017V196.818H108.523ZM104.171 194.727H106.949V202.801C106.949 202.972 106.976 203.11 107.029 203.216C107.086 203.318 107.167 203.392 107.273 203.437C107.379 203.479 107.506 203.5 107.654 203.5C107.76 203.5 107.872 203.49 107.989 203.472C108.11 203.449 108.201 203.43 108.262 203.415L108.682 205.42C108.55 205.458 108.362 205.506 108.12 205.562C107.881 205.619 107.595 205.655 107.262 205.67C106.61 205.701 106.051 205.625 105.586 205.443C105.123 205.258 104.769 204.97 104.523 204.58C104.281 204.189 104.163 203.699 104.171 203.108V194.727ZM115.805 200.568V205.545H113.026V193.909H115.714V198.42H115.81C116.007 197.883 116.329 197.462 116.776 197.159C117.227 196.856 117.778 196.705 118.43 196.705C119.043 196.705 119.577 196.841 120.032 197.114C120.486 197.383 120.839 197.763 121.089 198.256C121.342 198.748 121.467 199.324 121.464 199.983V205.545H118.685V200.528C118.689 200.044 118.568 199.665 118.322 199.392C118.075 199.119 117.729 198.983 117.282 198.983C116.99 198.983 116.733 199.047 116.509 199.176C116.289 199.301 116.117 199.481 115.992 199.716C115.871 199.951 115.808 200.235 115.805 200.568ZM128.653 201.778V196.818H131.425V205.545H128.778V203.92H128.687C128.494 204.455 128.164 204.879 127.698 205.193C127.236 205.504 126.677 205.659 126.022 205.659C125.427 205.659 124.905 205.523 124.454 205.25C124.003 204.977 123.653 204.597 123.403 204.108C123.153 203.615 123.026 203.04 123.022 202.381V196.818H125.8V201.835C125.804 202.309 125.929 202.682 126.175 202.955C126.422 203.227 126.757 203.364 127.181 203.364C127.458 203.364 127.706 203.303 127.925 203.182C128.149 203.057 128.325 202.877 128.454 202.642C128.586 202.403 128.653 202.115 128.653 201.778ZM133.018 205.545V193.909H135.796V198.312H135.853C135.967 198.047 136.128 197.792 136.336 197.545C136.548 197.299 136.817 197.098 137.143 196.943C137.472 196.784 137.866 196.705 138.325 196.705C138.931 196.705 139.497 196.864 140.024 197.182C140.554 197.5 140.982 197.99 141.308 198.653C141.633 199.316 141.796 200.161 141.796 201.187C141.796 202.176 141.639 203.004 141.325 203.67C141.014 204.337 140.594 204.837 140.063 205.17C139.537 205.504 138.952 205.67 138.308 205.67C137.868 205.67 137.488 205.598 137.166 205.455C136.844 205.311 136.573 205.121 136.353 204.886C136.137 204.651 135.971 204.4 135.853 204.131H135.768V205.545H133.018ZM135.74 201.182C135.74 201.651 135.802 202.061 135.927 202.409C136.056 202.758 136.24 203.028 136.478 203.222C136.721 203.411 137.01 203.506 137.347 203.506C137.688 203.506 137.978 203.411 138.217 203.222C138.455 203.028 138.635 202.758 138.757 202.409C138.882 202.061 138.944 201.651 138.944 201.182C138.944 200.712 138.882 200.305 138.757 199.96C138.635 199.615 138.455 199.348 138.217 199.159C137.982 198.97 137.692 198.875 137.347 198.875C137.007 198.875 136.717 198.968 136.478 199.153C136.24 199.339 136.056 199.604 135.927 199.949C135.802 200.294 135.74 200.705 135.74 201.182Z" fill="black" fill-opacity="0.8"/>
<rect x="221" y="160.545" width="160" height="72" rx="6" fill="white" fill-opacity="0.5" stroke="#666666" stroke-width="4" stroke-linecap="round"/>
<path d="M233.699 193.909H236.841L239.302 198.778H239.404L241.864 193.909H245.006L240.75 201.659V205.545H237.955V201.659L233.699 193.909ZM248.067 205.71C247.151 205.71 246.363 205.523 245.704 205.148C245.048 204.769 244.543 204.242 244.187 203.568C243.834 202.89 243.658 202.104 243.658 201.21C243.658 200.312 243.834 199.526 244.187 198.852C244.543 198.174 245.048 197.648 245.704 197.273C246.363 196.894 247.151 196.705 248.067 196.705C248.984 196.705 249.77 196.894 250.425 197.273C251.084 197.648 251.59 198.174 251.942 198.852C252.298 199.526 252.476 200.312 252.476 201.21C252.476 202.104 252.298 202.89 251.942 203.568C251.59 204.242 251.084 204.769 250.425 205.148C249.77 205.523 248.984 205.71 248.067 205.71ZM248.084 203.614C248.418 203.614 248.7 203.511 248.931 203.307C249.162 203.102 249.338 202.818 249.459 202.455C249.584 202.091 249.647 201.67 249.647 201.193C249.647 200.708 249.584 200.284 249.459 199.92C249.338 199.557 249.162 199.273 248.931 199.068C248.7 198.864 248.418 198.761 248.084 198.761C247.74 198.761 247.448 198.864 247.209 199.068C246.974 199.273 246.795 199.557 246.67 199.92C246.548 200.284 246.488 200.708 246.488 201.193C246.488 201.67 246.548 202.091 246.67 202.455C246.795 202.818 246.974 203.102 247.209 203.307C247.448 203.511 247.74 203.614 248.084 203.614ZM259.354 201.778V196.818H262.127V205.545H259.479V203.92H259.388C259.195 204.455 258.866 204.879 258.4 205.193C257.938 205.504 257.379 205.659 256.724 205.659C256.129 205.659 255.606 205.523 255.156 205.25C254.705 204.977 254.354 204.597 254.104 204.108C253.854 203.615 253.727 203.04 253.724 202.381V196.818H256.502V201.835C256.506 202.309 256.631 202.682 256.877 202.955C257.123 203.227 257.459 203.364 257.883 203.364C258.159 203.364 258.407 203.303 258.627 203.182C258.851 203.057 259.027 202.877 259.156 202.642C259.288 202.403 259.354 202.115 259.354 201.778ZM263.72 205.545V196.818H266.418V198.409H266.509C266.668 197.833 266.928 197.405 267.288 197.125C267.648 196.841 268.066 196.699 268.543 196.699C268.672 196.699 268.805 196.708 268.941 196.727C269.078 196.742 269.204 196.767 269.322 196.801V199.216C269.189 199.17 269.015 199.134 268.799 199.108C268.587 199.081 268.398 199.068 268.231 199.068C267.901 199.068 267.604 199.142 267.339 199.29C267.078 199.434 266.871 199.636 266.72 199.898C266.572 200.155 266.498 200.458 266.498 200.807V205.545H263.72ZM277.841 205.545H273.539V193.909H277.835C279.02 193.909 280.041 194.142 280.897 194.608C281.757 195.07 282.42 195.737 282.886 196.608C283.352 197.475 283.585 198.513 283.585 199.722C283.585 200.934 283.352 201.975 282.886 202.847C282.424 203.718 281.763 204.386 280.903 204.852C280.043 205.314 279.022 205.545 277.841 205.545ZM276.352 203.148H277.733C278.384 203.148 278.935 203.038 279.386 202.818C279.841 202.595 280.183 202.233 280.414 201.733C280.649 201.229 280.767 200.559 280.767 199.722C280.767 198.884 280.649 198.218 280.414 197.722C280.18 197.222 279.833 196.862 279.375 196.642C278.92 196.419 278.36 196.307 277.693 196.307H276.352V203.148ZM285.051 205.545V193.909H293.165V196.193H287.863V198.58H292.75V200.869H287.863V203.261H293.165V205.545H285.051ZM294.75 205.545V193.909H299.557C300.428 193.909 301.18 194.066 301.812 194.381C302.449 194.691 302.939 195.138 303.284 195.722C303.629 196.301 303.801 196.989 303.801 197.784C303.801 198.591 303.625 199.276 303.273 199.841C302.92 200.401 302.42 200.83 301.773 201.125C301.125 201.417 300.358 201.562 299.472 201.562H296.432V199.347H298.949C299.373 199.347 299.727 199.292 300.011 199.182C300.299 199.068 300.517 198.898 300.665 198.67C300.812 198.439 300.886 198.144 300.886 197.784C300.886 197.424 300.812 197.127 300.665 196.892C300.517 196.653 300.299 196.475 300.011 196.358C299.723 196.237 299.369 196.176 298.949 196.176H297.562V205.545H294.75ZM301.301 200.227L304.199 205.545H301.131L298.29 200.227H301.301ZM311.617 205.67C310.973 205.67 310.388 205.504 309.861 205.17C309.334 204.837 308.914 204.337 308.6 203.67C308.285 203.004 308.128 202.176 308.128 201.187C308.128 200.161 308.291 199.316 308.617 198.653C308.942 197.99 309.369 197.5 309.895 197.182C310.425 196.864 310.995 196.705 311.605 196.705C312.064 196.705 312.456 196.784 312.781 196.943C313.107 197.098 313.376 197.299 313.588 197.545C313.8 197.792 313.961 198.047 314.071 198.312H314.128V193.909H316.906V205.545H314.156V204.131H314.071C313.954 204.4 313.787 204.651 313.571 204.886C313.355 205.121 313.084 205.311 312.759 205.455C312.437 205.598 312.056 205.67 311.617 205.67ZM312.583 203.506C312.92 203.506 313.208 203.411 313.446 203.222C313.685 203.028 313.869 202.758 313.997 202.409C314.126 202.061 314.191 201.651 314.191 201.182C314.191 200.705 314.126 200.294 313.997 199.949C313.872 199.604 313.689 199.339 313.446 199.153C313.208 198.968 312.92 198.875 312.583 198.875C312.238 198.875 311.946 198.97 311.708 199.159C311.469 199.348 311.287 199.615 311.162 199.96C311.041 200.305 310.98 200.712 310.98 201.182C310.98 201.651 311.043 202.061 311.168 202.409C311.293 202.758 311.473 203.028 311.708 203.222C311.946 203.411 312.238 203.506 312.583 203.506ZM322.567 205.71C321.654 205.71 320.866 205.53 320.203 205.17C319.544 204.807 319.037 204.29 318.681 203.619C318.328 202.945 318.152 202.144 318.152 201.216C318.152 200.314 318.33 199.526 318.686 198.852C319.042 198.174 319.544 197.648 320.192 197.273C320.84 196.894 321.603 196.705 322.482 196.705C323.103 196.705 323.671 196.801 324.186 196.994C324.702 197.187 325.147 197.473 325.522 197.852C325.897 198.231 326.188 198.699 326.397 199.256C326.605 199.809 326.709 200.443 326.709 201.159V201.852H319.124V200.239H324.124C324.12 199.943 324.05 199.68 323.914 199.449C323.777 199.218 323.59 199.038 323.351 198.909C323.116 198.776 322.846 198.71 322.539 198.71C322.228 198.71 321.95 198.78 321.703 198.92C321.457 199.057 321.262 199.244 321.118 199.483C320.974 199.718 320.899 199.985 320.891 200.284V201.926C320.891 202.282 320.961 202.595 321.101 202.864C321.241 203.129 321.44 203.335 321.698 203.483C321.955 203.631 322.262 203.705 322.618 203.705C322.864 203.705 323.088 203.67 323.289 203.602C323.489 203.534 323.662 203.434 323.806 203.301C323.95 203.169 324.058 203.006 324.13 202.812L326.681 202.886C326.575 203.458 326.342 203.956 325.982 204.381C325.626 204.801 325.158 205.129 324.578 205.364C323.999 205.595 323.328 205.71 322.567 205.71ZM336.184 196.818L333.189 205.545H330.008L327.019 196.818H329.945L331.553 202.83H331.644L333.258 196.818H336.184ZM337.073 205.545V196.818H339.851V205.545H337.073ZM338.465 195.801C338.075 195.801 337.74 195.672 337.459 195.415C337.179 195.153 337.039 194.839 337.039 194.472C337.039 194.108 337.179 193.797 337.459 193.54C337.74 193.278 338.075 193.148 338.465 193.148C338.859 193.148 339.194 193.278 339.471 193.54C339.751 193.797 339.891 194.108 339.891 194.472C339.891 194.839 339.751 195.153 339.471 195.415C339.194 195.672 338.859 195.801 338.465 195.801ZM345.518 205.71C344.597 205.71 343.808 205.521 343.148 205.142C342.493 204.763 341.989 204.237 341.637 203.562C341.285 202.884 341.109 202.1 341.109 201.21C341.109 200.316 341.285 199.532 341.637 198.858C341.993 198.18 342.499 197.651 343.154 197.273C343.813 196.894 344.599 196.705 345.512 196.705C346.319 196.705 347.022 196.85 347.62 197.142C348.222 197.434 348.692 197.847 349.029 198.381C349.37 198.911 349.55 199.534 349.569 200.25H346.972C346.919 199.803 346.768 199.453 346.518 199.199C346.272 198.945 345.95 198.818 345.552 198.818C345.23 198.818 344.948 198.909 344.705 199.091C344.463 199.269 344.273 199.534 344.137 199.886C344.005 200.235 343.938 200.667 343.938 201.182C343.938 201.697 344.005 202.133 344.137 202.489C344.273 202.841 344.463 203.108 344.705 203.29C344.948 203.468 345.23 203.557 345.552 203.557C345.809 203.557 346.037 203.502 346.234 203.392C346.434 203.282 346.599 203.121 346.728 202.909C346.857 202.693 346.938 202.432 346.972 202.125H349.569C349.542 202.845 349.362 203.473 349.029 204.011C348.7 204.549 348.236 204.968 347.637 205.267C347.042 205.562 346.336 205.71 345.518 205.71ZM354.894 205.71C353.981 205.71 353.194 205.53 352.531 205.17C351.872 204.807 351.364 204.29 351.008 203.619C350.656 202.945 350.48 202.144 350.48 201.216C350.48 200.314 350.658 199.526 351.014 198.852C351.37 198.174 351.872 197.648 352.519 197.273C353.167 196.894 353.93 196.705 354.809 196.705C355.43 196.705 355.999 196.801 356.514 196.994C357.029 197.187 357.474 197.473 357.849 197.852C358.224 198.231 358.516 198.699 358.724 199.256C358.932 199.809 359.036 200.443 359.036 201.159V201.852H351.451V200.239H356.451C356.447 199.943 356.377 199.68 356.241 199.449C356.105 199.218 355.917 199.038 355.678 198.909C355.444 198.776 355.173 198.71 354.866 198.71C354.555 198.71 354.277 198.78 354.031 198.92C353.785 199.057 353.589 199.244 353.445 199.483C353.302 199.718 353.226 199.985 353.218 200.284V201.926C353.218 202.282 353.288 202.595 353.428 202.864C353.569 203.129 353.767 203.335 354.025 203.483C354.283 203.631 354.589 203.705 354.945 203.705C355.192 203.705 355.415 203.67 355.616 203.602C355.817 203.534 355.989 203.434 356.133 203.301C356.277 203.169 356.385 203.006 356.457 202.812L359.008 202.886C358.902 203.458 358.669 203.956 358.309 204.381C357.953 204.801 357.485 205.129 356.906 205.364C356.326 205.595 355.656 205.71 354.894 205.71ZM367.899 199.483L365.348 199.551C365.321 199.369 365.249 199.208 365.132 199.068C365.014 198.924 364.861 198.812 364.671 198.733C364.486 198.65 364.27 198.608 364.024 198.608C363.702 198.608 363.427 198.672 363.2 198.801C362.976 198.93 362.867 199.104 362.87 199.324C362.867 199.494 362.935 199.642 363.075 199.767C363.219 199.892 363.475 199.992 363.842 200.068L365.524 200.386C366.395 200.553 367.043 200.83 367.467 201.216C367.895 201.602 368.111 202.114 368.115 202.75C368.111 203.348 367.933 203.869 367.581 204.312C367.232 204.756 366.755 205.1 366.149 205.347C365.543 205.589 364.85 205.71 364.069 205.71C362.823 205.71 361.84 205.455 361.12 204.943C360.404 204.428 359.995 203.739 359.893 202.875L362.637 202.807C362.698 203.125 362.855 203.367 363.109 203.534C363.363 203.701 363.687 203.784 364.081 203.784C364.437 203.784 364.726 203.718 364.95 203.585C365.173 203.453 365.287 203.276 365.291 203.057C365.287 202.86 365.2 202.703 365.029 202.585C364.859 202.464 364.592 202.369 364.228 202.301L362.706 202.011C361.831 201.852 361.179 201.559 360.751 201.131C360.323 200.699 360.111 200.15 360.115 199.483C360.111 198.9 360.266 198.401 360.581 197.989C360.895 197.572 361.342 197.254 361.921 197.034C362.501 196.814 363.185 196.705 363.973 196.705C365.154 196.705 366.086 196.953 366.768 197.449C367.45 197.941 367.827 198.619 367.899 199.483Z" fill="black" fill-opacity="0.8"/>
<rect x="221" y="83" width="160" height="40" rx="3" fill="white" fill-opacity="0.5" stroke="#666666" stroke-width="4" stroke-linecap="round"/>
<path d="M266.928 101.58H264.088C264.05 101.288 263.972 101.025 263.855 100.79C263.737 100.555 263.582 100.354 263.389 100.188C263.195 100.021 262.966 99.8939 262.701 99.8068C262.44 99.7159 262.15 99.6705 261.832 99.6705C261.267 99.6705 260.781 99.8087 260.372 100.085C259.966 100.362 259.654 100.761 259.434 101.284C259.218 101.807 259.11 102.439 259.11 103.182C259.11 103.955 259.22 104.602 259.44 105.125C259.663 105.644 259.976 106.036 260.377 106.301C260.783 106.562 261.262 106.693 261.815 106.693C262.125 106.693 262.408 106.653 262.661 106.574C262.919 106.494 263.144 106.379 263.338 106.227C263.534 106.072 263.695 105.884 263.82 105.665C263.949 105.441 264.038 105.189 264.088 104.909L266.928 104.926C266.879 105.441 266.73 105.949 266.48 106.449C266.233 106.949 265.894 107.405 265.463 107.818C265.031 108.227 264.504 108.553 263.883 108.795C263.266 109.038 262.557 109.159 261.758 109.159C260.705 109.159 259.762 108.928 258.928 108.466C258.099 108 257.444 107.322 256.963 106.432C256.481 105.542 256.241 104.458 256.241 103.182C256.241 101.902 256.485 100.816 256.974 99.9261C257.463 99.036 258.124 98.3598 258.957 97.8977C259.79 97.4356 260.724 97.2045 261.758 97.2045C262.463 97.2045 263.114 97.303 263.713 97.5C264.311 97.6932 264.838 97.9773 265.292 98.3523C265.747 98.7235 266.116 99.1799 266.4 99.7216C266.684 100.263 266.86 100.883 266.928 101.58ZM272.436 109.165C271.519 109.165 270.731 108.977 270.072 108.602C269.417 108.223 268.911 107.697 268.555 107.023C268.203 106.345 268.027 105.559 268.027 104.665C268.027 103.767 268.203 102.981 268.555 102.307C268.911 101.629 269.417 101.102 270.072 100.727C270.731 100.348 271.519 100.159 272.436 100.159C273.352 100.159 274.138 100.348 274.794 100.727C275.453 101.102 275.958 101.629 276.311 102.307C276.667 102.981 276.845 103.767 276.845 104.665C276.845 105.559 276.667 106.345 276.311 107.023C275.958 107.697 275.453 108.223 274.794 108.602C274.138 108.977 273.352 109.165 272.436 109.165ZM272.453 107.068C272.786 107.068 273.068 106.966 273.299 106.761C273.53 106.557 273.707 106.273 273.828 105.909C273.953 105.545 274.015 105.125 274.015 104.648C274.015 104.163 273.953 103.739 273.828 103.375C273.707 103.011 273.53 102.727 273.299 102.523C273.068 102.318 272.786 102.216 272.453 102.216C272.108 102.216 271.816 102.318 271.578 102.523C271.343 102.727 271.163 103.011 271.038 103.375C270.917 103.739 270.856 104.163 270.856 104.648C270.856 105.125 270.917 105.545 271.038 105.909C271.163 106.273 271.343 106.557 271.578 106.761C271.816 106.966 272.108 107.068 272.453 107.068ZM278.092 109V100.273H280.734V101.875H280.831C281.013 101.345 281.319 100.926 281.751 100.619C282.183 100.312 282.698 100.159 283.297 100.159C283.903 100.159 284.422 100.314 284.853 100.625C285.285 100.936 285.56 101.352 285.677 101.875H285.768C285.931 101.356 286.249 100.941 286.723 100.631C287.196 100.316 287.755 100.159 288.399 100.159C289.225 100.159 289.895 100.424 290.41 100.955C290.925 101.481 291.183 102.205 291.183 103.125V109H288.405V103.761C288.405 103.326 288.293 102.994 288.069 102.767C287.846 102.536 287.556 102.42 287.2 102.42C286.817 102.42 286.516 102.545 286.297 102.795C286.081 103.042 285.973 103.373 285.973 103.79V109H283.302V103.733C283.302 103.328 283.192 103.008 282.973 102.773C282.753 102.538 282.463 102.42 282.103 102.42C281.861 102.42 281.647 102.479 281.461 102.597C281.276 102.71 281.13 102.873 281.024 103.085C280.922 103.297 280.87 103.547 280.87 103.835V109H278.092ZM292.729 109V100.273H295.371V101.875H295.467C295.649 101.345 295.956 100.926 296.388 100.619C296.819 100.312 297.335 100.159 297.933 100.159C298.539 100.159 299.058 100.314 299.49 100.625C299.922 100.936 300.196 101.352 300.314 101.875H300.405C300.568 101.356 300.886 100.941 301.359 100.631C301.833 100.316 302.391 100.159 303.035 100.159C303.861 100.159 304.532 100.424 305.047 100.955C305.562 101.481 305.819 102.205 305.819 103.125V109H303.041V103.761C303.041 103.326 302.929 102.994 302.706 102.767C302.482 102.536 302.193 102.42 301.837 102.42C301.454 102.42 301.153 102.545 300.933 102.795C300.717 103.042 300.609 103.373 300.609 103.79V109H297.939V103.733C297.939 103.328 297.829 103.008 297.609 102.773C297.39 102.538 297.1 102.42 296.74 102.42C296.497 102.42 296.283 102.479 296.098 102.597C295.912 102.71 295.766 102.873 295.66 103.085C295.558 103.297 295.507 103.547 295.507 103.835V109H292.729ZM312.996 105.233V100.273H315.768V109H313.121V107.375H313.03C312.837 107.909 312.507 108.333 312.041 108.648C311.579 108.958 311.02 109.114 310.365 109.114C309.77 109.114 309.248 108.977 308.797 108.705C308.346 108.432 307.996 108.051 307.746 107.562C307.496 107.07 307.369 106.494 307.365 105.835V100.273H310.143V105.29C310.147 105.763 310.272 106.136 310.518 106.409C310.765 106.682 311.1 106.818 311.524 106.818C311.801 106.818 312.049 106.758 312.268 106.636C312.492 106.511 312.668 106.331 312.797 106.097C312.929 105.858 312.996 105.57 312.996 105.233ZM320.139 104.023V109H317.361V100.273H320.003V101.875H320.1C320.293 101.341 320.622 100.922 321.088 100.619C321.554 100.312 322.109 100.159 322.753 100.159C323.367 100.159 323.899 100.297 324.35 100.574C324.804 100.847 325.156 101.229 325.406 101.722C325.66 102.21 325.785 102.782 325.781 103.438V109H323.003V103.983C323.007 103.498 322.884 103.119 322.634 102.847C322.387 102.574 322.045 102.438 321.605 102.438C321.314 102.438 321.056 102.502 320.833 102.631C320.613 102.756 320.442 102.936 320.321 103.17C320.204 103.405 320.143 103.689 320.139 104.023ZM327.326 109V100.273H330.104V109H327.326ZM328.718 99.2557C328.327 99.2557 327.992 99.1269 327.712 98.8693C327.432 98.608 327.291 98.2936 327.291 97.9261C327.291 97.5625 327.432 97.2519 327.712 96.9943C327.992 96.733 328.327 96.6023 328.718 96.6023C329.112 96.6023 329.447 96.733 329.723 96.9943C330.004 97.2519 330.144 97.5625 330.144 97.9261C330.144 98.2936 330.004 98.608 329.723 98.8693C329.447 99.1269 329.112 99.2557 328.718 99.2557ZM336.623 100.273V102.318H331.117V100.273H336.623ZM332.27 98.1818H335.049V106.256C335.049 106.426 335.075 106.564 335.128 106.67C335.185 106.773 335.267 106.847 335.373 106.892C335.479 106.934 335.606 106.955 335.753 106.955C335.859 106.955 335.971 106.945 336.088 106.926C336.21 106.903 336.301 106.884 336.361 106.869L336.782 108.875C336.649 108.913 336.462 108.96 336.219 109.017C335.981 109.074 335.695 109.11 335.361 109.125C334.71 109.155 334.151 109.08 333.685 108.898C333.223 108.712 332.869 108.424 332.623 108.034C332.38 107.644 332.263 107.153 332.27 106.562V98.1818ZM339.563 112.273C339.23 112.273 338.915 112.246 338.62 112.193C338.324 112.144 338.071 112.078 337.859 111.994L338.472 109.977C338.745 110.068 338.991 110.121 339.211 110.136C339.434 110.152 339.626 110.116 339.785 110.028C339.948 109.945 340.073 109.795 340.16 109.58L340.268 109.318L337.165 100.273H340.074L341.682 106.5H341.773L343.404 100.273H346.33L343.04 109.835C342.881 110.313 342.656 110.733 342.364 111.097C342.076 111.464 341.703 111.752 341.245 111.96C340.79 112.169 340.23 112.273 339.563 112.273Z" fill="black" fill-opacity="0.8"/>
<path d="M86.2614 148H84.3977L88.5852 136.364H90.6136L94.8011 148H92.9375L89.6477 138.477H89.5568L86.2614 148ZM86.5739 143.443H92.6193V144.92H86.5739V143.443ZM96.3055 148V136.364H100.453C101.359 136.364 102.109 136.528 102.703 136.858C103.298 137.187 103.743 137.638 104.038 138.21C104.334 138.778 104.482 139.419 104.482 140.131C104.482 140.847 104.332 141.491 104.033 142.062C103.737 142.631 103.29 143.081 102.692 143.415C102.097 143.744 101.349 143.909 100.448 143.909H97.5953V142.42H100.288C100.86 142.42 101.324 142.322 101.681 142.125C102.037 141.924 102.298 141.652 102.465 141.307C102.631 140.962 102.715 140.57 102.715 140.131C102.715 139.691 102.631 139.301 102.465 138.96C102.298 138.619 102.035 138.352 101.675 138.159C101.319 137.966 100.849 137.869 100.266 137.869H98.0612V148H96.3055ZM108.12 136.364V148H106.364V136.364H108.12Z" fill="#B3B3B3"/>
<rect x="3" y="83" width="160" height="40" rx="3" fill="#FF6F00" fill-opacity="0.75" stroke="#757575" stroke-width="6" stroke-linecap="round"/>
<path d="M35.1293 97.3636L37.7316 105.886H37.8282L40.4304 97.3636H43.5782L39.652 109H35.9077L31.9816 97.3636H35.1293ZM44.655 109V97.3636H49.4618C50.333 97.3636 51.0849 97.5341 51.7175 97.875C52.3539 98.2121 52.8444 98.6837 53.1891 99.2898C53.5338 99.892 53.7061 100.593 53.7061 101.392C53.7061 102.195 53.53 102.898 53.1777 103.5C52.8292 104.098 52.3311 104.562 51.6834 104.892C51.0357 105.222 50.2667 105.386 49.3766 105.386H46.4107V103.17H48.8539C49.2781 103.17 49.6323 103.097 49.9164 102.949C50.2042 102.801 50.422 102.595 50.5698 102.33C50.7175 102.061 50.7914 101.748 50.7914 101.392C50.7914 101.032 50.7175 100.722 50.5698 100.46C50.422 100.195 50.2042 99.9905 49.9164 99.8466C49.6285 99.7027 49.2743 99.6307 48.8539 99.6307H47.4675V109H44.655ZM54.9165 109V97.3636H59.7233C60.5945 97.3636 61.3464 97.5341 61.979 97.875C62.6154 98.2121 63.1059 98.6837 63.4506 99.2898C63.7953 99.892 63.9676 100.593 63.9676 101.392C63.9676 102.195 63.7915 102.898 63.4392 103.5C63.0907 104.098 62.5926 104.562 61.9449 104.892C61.2972 105.222 60.5282 105.386 59.6381 105.386H56.6722V103.17H59.1154C59.5396 103.17 59.8938 103.097 60.1779 102.949C60.4657 102.801 60.6835 102.595 60.8313 102.33C60.979 102.061 61.0529 101.748 61.0529 101.392C61.0529 101.032 60.979 100.722 60.8313 100.46C60.6835 100.195 60.4657 99.9905 60.1779 99.8466C59.89 99.7027 59.5358 99.6307 59.1154 99.6307H57.729V109H54.9165ZM79.002 101.58H76.1611C76.1232 101.288 76.0456 101.025 75.9281 100.79C75.8107 100.555 75.6554 100.354 75.4622 100.188C75.269 100.021 75.0399 99.8939 74.7747 99.8068C74.5134 99.7159 74.2236 99.6705 73.9054 99.6705C73.341 99.6705 72.8543 99.8087 72.4452 100.085C72.0399 100.362 71.7274 100.761 71.5077 101.284C71.2918 101.807 71.1838 102.439 71.1838 103.182C71.1838 103.955 71.2937 104.602 71.5134 105.125C71.7368 105.644 72.0493 106.036 72.4509 106.301C72.8562 106.562 73.3353 106.693 73.8884 106.693C74.199 106.693 74.4812 106.653 74.735 106.574C74.9925 106.494 75.2179 106.379 75.4111 106.227C75.6081 106.072 75.769 105.884 75.894 105.665C76.0228 105.441 76.1118 105.189 76.1611 104.909L79.002 104.926C78.9528 105.441 78.8031 105.949 78.5531 106.449C78.3069 106.949 77.9679 107.405 77.5361 107.818C77.1043 108.227 76.5778 108.553 75.9565 108.795C75.3391 109.038 74.6308 109.159 73.8315 109.159C72.7785 109.159 71.8353 108.928 71.002 108.466C70.1725 108 69.5171 107.322 69.0361 106.432C68.555 105.542 68.3145 104.458 68.3145 103.182C68.3145 101.902 68.5588 100.816 69.0475 99.9261C69.5361 99.036 70.1971 98.3598 71.0304 97.8977C71.8637 97.4356 72.7975 97.2045 73.8315 97.2045C74.5361 97.2045 75.1876 97.303 75.7861 97.5C76.3846 97.6932 76.9111 97.9773 77.3656 98.3523C77.8202 98.7235 78.1895 99.1799 78.4736 99.7216C78.7577 100.263 78.9338 100.883 79.002 101.58ZM84.5092 109.165C83.5926 109.165 82.8047 108.977 82.1456 108.602C81.4903 108.223 80.9846 107.697 80.6286 107.023C80.2763 106.345 80.1001 105.559 80.1001 104.665C80.1001 103.767 80.2763 102.981 80.6286 102.307C80.9846 101.629 81.4903 101.102 82.1456 100.727C82.8047 100.348 83.5926 100.159 84.5092 100.159C85.4259 100.159 86.2119 100.348 86.8672 100.727C87.5263 101.102 88.032 101.629 88.3842 102.307C88.7403 102.981 88.9183 103.767 88.9183 104.665C88.9183 105.559 88.7403 106.345 88.3842 107.023C88.032 107.697 87.5263 108.223 86.8672 108.602C86.2119 108.977 85.4259 109.165 84.5092 109.165ZM84.5263 107.068C84.8596 107.068 85.1418 106.966 85.3729 106.761C85.6039 106.557 85.7801 106.273 85.9013 105.909C86.0263 105.545 86.0888 105.125 86.0888 104.648C86.0888 104.163 86.0263 103.739 85.9013 103.375C85.7801 103.011 85.6039 102.727 85.3729 102.523C85.1418 102.318 84.8596 102.216 84.5263 102.216C84.1816 102.216 83.8899 102.318 83.6513 102.523C83.4164 102.727 83.2365 103.011 83.1115 103.375C82.9903 103.739 82.9297 104.163 82.9297 104.648C82.9297 105.125 82.9903 105.545 83.1115 105.909C83.2365 106.273 83.4164 106.557 83.6513 106.761C83.8899 106.966 84.1816 107.068 84.5263 107.068ZM92.944 104.023V109H90.1656V100.273H92.8077V101.875H92.9043C93.0974 101.341 93.427 100.922 93.8929 100.619C94.3588 100.312 94.9137 100.159 95.5577 100.159C96.1713 100.159 96.7035 100.297 97.1543 100.574C97.6088 100.847 97.9611 101.229 98.2111 101.722C98.4649 102.21 98.5899 102.782 98.5861 103.438V109H95.8077V103.983C95.8115 103.498 95.6884 103.119 95.4384 102.847C95.1921 102.574 94.8493 102.438 94.4099 102.438C94.1183 102.438 93.8607 102.502 93.6372 102.631C93.4175 102.756 93.2471 102.936 93.1259 103.17C93.0084 103.405 92.9478 103.689 92.944 104.023ZM102.909 104.023V109H100.13V100.273H102.772V101.875H102.869C103.062 101.341 103.392 100.922 103.858 100.619C104.323 100.312 104.878 100.159 105.522 100.159C106.136 100.159 106.668 100.297 107.119 100.574C107.573 100.847 107.926 101.229 108.176 101.722C108.429 102.21 108.554 102.782 108.551 103.438V109H105.772V103.983C105.776 103.498 105.653 103.119 105.403 102.847C105.157 102.574 104.814 102.438 104.375 102.438C104.083 102.438 103.825 102.502 103.602 102.631C103.382 102.756 103.212 102.936 103.09 103.17C102.973 103.405 102.912 103.689 102.909 104.023ZM114.174 109.165C113.262 109.165 112.474 108.985 111.811 108.625C111.152 108.261 110.644 107.744 110.288 107.074C109.936 106.4 109.76 105.598 109.76 104.67C109.76 103.769 109.938 102.981 110.294 102.307C110.65 101.629 111.152 101.102 111.799 100.727C112.447 100.348 113.21 100.159 114.089 100.159C114.71 100.159 115.279 100.256 115.794 100.449C116.309 100.642 116.754 100.928 117.129 101.307C117.504 101.686 117.796 102.153 118.004 102.71C118.212 103.263 118.316 103.898 118.316 104.614V105.307H110.731V103.693H115.731C115.727 103.398 115.657 103.134 115.521 102.903C115.385 102.672 115.197 102.492 114.959 102.364C114.724 102.231 114.453 102.165 114.146 102.165C113.835 102.165 113.557 102.235 113.311 102.375C113.065 102.511 112.869 102.699 112.726 102.938C112.582 103.172 112.506 103.439 112.498 103.739V105.381C112.498 105.737 112.568 106.049 112.709 106.318C112.849 106.583 113.048 106.79 113.305 106.938C113.563 107.085 113.869 107.159 114.226 107.159C114.472 107.159 114.695 107.125 114.896 107.057C115.097 106.989 115.269 106.888 115.413 106.756C115.557 106.623 115.665 106.46 115.737 106.267L118.288 106.341C118.182 106.913 117.949 107.411 117.589 107.835C117.233 108.256 116.765 108.583 116.186 108.818C115.606 109.049 114.936 109.165 114.174 109.165ZM123.633 109.165C122.713 109.165 121.923 108.975 121.264 108.597C120.609 108.218 120.105 107.691 119.753 107.017C119.4 106.339 119.224 105.555 119.224 104.665C119.224 103.771 119.4 102.987 119.753 102.312C120.109 101.634 120.614 101.106 121.27 100.727C121.929 100.348 122.715 100.159 123.628 100.159C124.434 100.159 125.137 100.305 125.736 100.597C126.338 100.888 126.808 101.301 127.145 101.835C127.486 102.366 127.666 102.989 127.684 103.705H125.088C125.035 103.258 124.883 102.907 124.633 102.653C124.387 102.4 124.065 102.273 123.667 102.273C123.345 102.273 123.063 102.364 122.821 102.545C122.578 102.723 122.389 102.989 122.253 103.341C122.12 103.689 122.054 104.121 122.054 104.636C122.054 105.152 122.12 105.587 122.253 105.943C122.389 106.295 122.578 106.562 122.821 106.744C123.063 106.922 123.345 107.011 123.667 107.011C123.925 107.011 124.152 106.956 124.349 106.847C124.55 106.737 124.715 106.576 124.844 106.364C124.972 106.148 125.054 105.886 125.088 105.58H127.684C127.658 106.299 127.478 106.928 127.145 107.466C126.815 108.004 126.351 108.422 125.753 108.722C125.158 109.017 124.452 109.165 123.633 109.165ZM133.857 100.273V102.318H128.351V100.273H133.857ZM129.504 98.1818H132.283V106.256C132.283 106.426 132.309 106.564 132.362 106.67C132.419 106.773 132.5 106.847 132.607 106.892C132.713 106.934 132.839 106.955 132.987 106.955C133.093 106.955 133.205 106.945 133.322 106.926C133.444 106.903 133.535 106.884 133.595 106.869L134.016 108.875C133.883 108.913 133.696 108.96 133.453 109.017C133.214 109.074 132.928 109.11 132.595 109.125C131.944 109.155 131.385 109.08 130.919 108.898C130.457 108.712 130.103 108.424 129.857 108.034C129.614 107.644 129.497 107.153 129.504 106.562V98.1818Z" fill="white"/>
<rect x="3" y="3" width="70" height="40" rx="3" fill="white" fill-opacity="0.5" stroke="#666666" stroke-width="4" stroke-linecap="round"/>
<path d="M20.5758 17.3636L23.1781 25.8864H23.2747L25.8769 17.3636H29.0247L25.0985 29H21.3542L17.4281 17.3636H20.5758ZM30.1015 29V17.3636H34.9083C35.7795 17.3636 36.5314 17.5341 37.164 17.875C37.8004 18.2121 38.2909 18.6837 38.6356 19.2898C38.9803 19.892 39.1526 20.5928 39.1526 21.392C39.1526 22.1951 38.9765 22.8977 38.6242 23.5C38.2757 24.0985 37.7776 24.5625 37.1299 24.892C36.4822 25.2216 35.7132 25.3864 34.8231 25.3864H31.8572V23.1705H34.3004C34.7246 23.1705 35.0788 23.0966 35.3629 22.9489C35.6507 22.8011 35.8685 22.5947 36.0163 22.3295C36.164 22.0606 36.2379 21.7481 36.2379 21.392C36.2379 21.0322 36.164 20.7216 36.0163 20.4602C35.8685 20.1951 35.6507 19.9905 35.3629 19.8466C35.075 19.7027 34.7208 19.6307 34.3004 19.6307H32.914V29H30.1015ZM40.363 29V17.3636H45.1698C46.041 17.3636 46.7929 17.5341 47.4255 17.875C48.0619 18.2121 48.5524 18.6837 48.8971 19.2898C49.2418 19.892 49.4141 20.5928 49.4141 21.392C49.4141 22.1951 49.238 22.8977 48.8857 23.5C48.5372 24.0985 48.0391 24.5625 47.3914 24.892C46.7437 25.2216 45.9747 25.3864 45.0846 25.3864H42.1187V23.1705H44.5619C44.9861 23.1705 45.3403 23.0966 45.6244 22.9489C45.9122 22.8011 46.13 22.5947 46.2778 22.3295C46.4255 22.0606 46.4994 21.7481 46.4994 21.392C46.4994 21.0322 46.4255 20.7216 46.2778 20.4602C46.13 20.1951 45.9122 19.9905 45.6244 19.8466C45.3365 19.7027 44.9823 19.6307 44.5619 19.6307H43.1755V29H40.363ZM58.2438 22.9375L55.6927 23.0057C55.6662 22.8239 55.5942 22.6629 55.4768 22.5227C55.3593 22.3788 55.2059 22.267 55.0165 22.1875C54.8309 22.1042 54.615 22.0625 54.3688 22.0625C54.0468 22.0625 53.7722 22.1269 53.5449 22.2557C53.3215 22.3845 53.2116 22.5587 53.2154 22.7784C53.2116 22.9489 53.2798 23.0966 53.4199 23.2216C53.5639 23.3466 53.8196 23.447 54.187 23.5227L55.8688 23.8409C56.74 24.0076 57.3878 24.2841 57.812 24.6705C58.24 25.0568 58.4559 25.5682 58.4597 26.2045C58.4559 26.803 58.2779 27.3239 57.9256 27.767C57.5771 28.2102 57.0999 28.5549 56.4938 28.8011C55.8878 29.0436 55.1946 29.1648 54.4143 29.1648C53.1681 29.1648 52.1851 28.9091 51.4654 28.3977C50.7495 27.8826 50.3404 27.1932 50.2381 26.3295L52.9824 26.2614C53.0431 26.5795 53.2003 26.822 53.454 26.9886C53.7078 27.1553 54.0317 27.2386 54.4256 27.2386C54.7817 27.2386 55.0715 27.1723 55.2949 27.0398C55.5184 26.9072 55.6321 26.7311 55.6359 26.5114C55.6321 26.3144 55.5449 26.1572 55.3745 26.0398C55.204 25.9186 54.937 25.8239 54.5734 25.7557L53.0506 25.4659C52.1756 25.3068 51.5241 25.0133 51.0961 24.5852C50.6681 24.1534 50.4559 23.6042 50.4597 22.9375C50.4559 22.3542 50.6112 21.8561 50.9256 21.4432C51.24 21.0265 51.687 20.7083 52.2665 20.4886C52.8461 20.2689 53.5298 20.1591 54.3177 20.1591C55.4995 20.1591 56.4313 20.4072 57.1131 20.9034C57.7949 21.3958 58.1718 22.0739 58.2438 22.9375Z" fill="black" fill-opacity="0.8"/>
<rect x="93" y="3" width="70" height="40" rx="3" fill="white" fill-opacity="0.5" stroke="#666666" stroke-width="4" stroke-linecap="round"/>
<path d="M116.893 23.1818C116.893 24.4621 116.647 25.5473 116.155 26.4375C115.662 27.3277 114.996 28.0038 114.155 28.4659C113.318 28.928 112.378 29.1591 111.336 29.1591C110.291 29.1591 109.35 28.9261 108.513 28.4602C107.675 27.9943 107.011 27.3182 106.518 26.4318C106.03 25.5417 105.785 24.4583 105.785 23.1818C105.785 21.9015 106.03 20.8163 106.518 19.9261C107.011 19.036 107.675 18.3598 108.513 17.8977C109.35 17.4356 110.291 17.2045 111.336 17.2045C112.378 17.2045 113.318 17.4356 114.155 17.8977C114.996 18.3598 115.662 19.036 116.155 19.9261C116.647 20.8163 116.893 21.9015 116.893 23.1818ZM114.018 23.1818C114.018 22.4242 113.91 21.7841 113.694 21.2614C113.482 20.7386 113.175 20.3428 112.774 20.0739C112.376 19.8049 111.897 19.6705 111.336 19.6705C110.78 19.6705 110.3 19.8049 109.899 20.0739C109.497 20.3428 109.189 20.7386 108.973 21.2614C108.761 21.7841 108.655 22.4242 108.655 23.1818C108.655 23.9394 108.761 24.5795 108.973 25.1023C109.189 25.625 109.497 26.0208 109.899 26.2898C110.3 26.5587 110.78 26.6932 111.336 26.6932C111.897 26.6932 112.376 26.5587 112.774 26.2898C113.175 26.0208 113.482 25.625 113.694 25.1023C113.91 24.5795 114.018 23.9394 114.018 23.1818ZM118.359 29V17.3636H126.473V19.6477H121.172V22.0341H126.058V24.3239H121.172V26.7159H126.473V29H118.359ZM128.058 17.3636H131.541L134.496 24.5682H134.632L137.587 17.3636H141.07V29H138.331V21.8523H138.234L135.439 28.9261H133.689L130.894 21.8125H130.797V29H128.058V17.3636ZM150.267 22.9375L147.716 23.0057C147.69 22.8239 147.618 22.6629 147.5 22.5227C147.383 22.3788 147.229 22.267 147.04 22.1875C146.854 22.1042 146.638 22.0625 146.392 22.0625C146.07 22.0625 145.796 22.1269 145.568 22.2557C145.345 22.3845 145.235 22.5587 145.239 22.7784C145.235 22.9489 145.303 23.0966 145.443 23.2216C145.587 23.3466 145.843 23.447 146.21 23.5227L147.892 23.8409C148.763 24.0076 149.411 24.2841 149.835 24.6705C150.263 25.0568 150.479 25.5682 150.483 26.2045C150.479 26.803 150.301 27.3239 149.949 27.767C149.601 28.2102 149.123 28.5549 148.517 28.8011C147.911 29.0436 147.218 29.1648 146.438 29.1648C145.191 29.1648 144.209 28.9091 143.489 28.3977C142.773 27.8826 142.364 27.1932 142.262 26.3295L145.006 26.2614C145.066 26.5795 145.224 26.822 145.477 26.9886C145.731 27.1553 146.055 27.2386 146.449 27.2386C146.805 27.2386 147.095 27.1723 147.318 27.0398C147.542 26.9072 147.656 26.7311 147.659 26.5114C147.656 26.3144 147.568 26.1572 147.398 26.0398C147.227 25.9186 146.96 25.8239 146.597 25.7557L145.074 25.4659C144.199 25.3068 143.548 25.0133 143.12 24.5852C142.691 24.1534 142.479 23.6042 142.483 22.9375C142.479 22.3542 142.635 21.8561 142.949 21.4432C143.263 21.0265 143.71 20.7083 144.29 20.4886C144.87 20.2689 145.553 20.1591 146.341 20.1591C147.523 20.1591 148.455 20.4072 149.137 20.9034C149.818 21.3958 150.195 22.0739 150.267 22.9375Z" fill="black" fill-opacity="0.8"/>
<path d="M170.086 195.131C169.305 195.912 169.305 197.179 170.086 197.96L182.814 210.688C183.595 211.469 184.861 211.469 185.642 210.688C186.423 209.906 186.423 208.64 185.642 207.859L174.328 196.545L185.642 185.232C186.423 184.451 186.423 183.184 185.642 182.403C184.861 181.622 183.595 181.622 182.814 182.403L170.086 195.131ZM213.914 197.96C214.695 197.179 214.695 195.912 213.914 195.131L201.186 182.403C200.405 181.622 199.139 181.622 198.358 182.403C197.577 183.184 197.577 184.451 198.358 185.232L209.672 196.545L198.358 207.859C197.577 208.64 197.577 209.906 198.358 210.688C199.139 211.469 200.405 211.469 201.186 210.688L213.914 197.96ZM171.5 198.545H212.5V194.545H171.5V198.545Z" fill="#B3B3B3"/>
<path d="M171.086 101.586C170.305 102.367 170.305 103.633 171.086 104.414L183.814 117.142C184.595 117.923 185.861 117.923 186.642 117.142C187.423 116.361 187.423 115.095 186.642 114.314L175.328 103L186.642 91.6863C187.423 90.9052 187.423 89.6389 186.642 88.8579C185.861 88.0768 184.595 88.0768 183.814 88.8579L171.086 101.586ZM213 105C214.105 105 215 104.105 215 103C215 101.895 214.105 101 213 101V105ZM172.5 105H213V101H172.5V105Z" fill="#B3B3B3"/>
<path d="M129.779 51C129.779 49.8954 128.884 49 127.779 49C126.675 49 125.779 49.8954 125.779 51H129.779ZM126.365 74.9142C127.146 75.6953 128.412 75.6953 129.194 74.9142L141.921 62.1863C142.702 61.4052 142.702 60.1389 141.921 59.3579C141.14 58.5768 139.874 58.5768 139.093 59.3579L127.779 70.6716L116.466 59.3579C115.685 58.5768 114.418 58.5768 113.637 59.3579C112.856 60.1389 112.856 61.4052 113.637 62.1863L126.365 74.9142ZM125.779 51V73.5H129.779V51H125.779Z" fill="#B3B3B3"/>
<path d="M40.5029 51C40.5029 49.8954 39.6075 49 38.5029 49C37.3984 49 36.5029 49.8954 36.5029 51H40.5029ZM37.0887 74.9142C37.8698 75.6953 39.1361 75.6953 39.9171 74.9142L52.6451 62.1863C53.4261 61.4052 53.4261 60.1389 52.6451 59.3579C51.864 58.5768 50.5977 58.5768 49.8166 59.3579L38.5029 70.6716L27.1892 59.3579C26.4082 58.5768 25.1418 58.5768 24.3608 59.3579C23.5797 60.1389 23.5797 61.4052 24.3608 62.1863L37.0887 74.9142ZM36.5029 51V73.5H40.5029V51H36.5029Z" fill="#B3B3B3"/>
<circle cx="128" cy="44" r="12" fill="#757575"/>
<path d="M124.5 49.8333C124.179 49.8333 123.904 49.7191 123.676 49.4906C123.447 49.2621 123.333 48.9875 123.333 48.6666V42.8333C123.333 42.5125 123.447 42.2378 123.676 42.0094C123.904 41.7809 124.179 41.6666 124.5 41.6666H125.083V40.5C125.083 39.693 125.367 39.0052 125.936 38.4364C126.505 37.8677 127.193 37.5833 128 37.5833C128.807 37.5833 129.494 37.8677 130.063 38.4364C130.632 39.0052 130.916 39.693 130.916 40.5V41.6666H131.5C131.821 41.6666 132.095 41.7809 132.324 42.0094C132.552 42.2378 132.666 42.5125 132.666 42.8333V48.6666C132.666 48.9875 132.552 49.2621 132.324 49.4906C132.095 49.7191 131.821 49.8333 131.5 49.8333H124.5ZM124.5 48.6666H131.5V42.8333H124.5V48.6666ZM128 46.9166C128.321 46.9166 128.595 46.8024 128.824 46.5739C129.052 46.3455 129.166 46.0708 129.166 45.75C129.166 45.4291 129.052 45.1545 128.824 44.926C128.595 44.6975 128.321 44.5833 128 44.5833C127.679 44.5833 127.404 44.6975 127.176 44.926C126.947 45.1545 126.833 45.4291 126.833 45.75C126.833 46.0708 126.947 46.3455 127.176 46.5739C127.404 46.8024 127.679 46.9166 128 46.9166ZM126.25 41.6666H129.75V40.5C129.75 40.0139 129.58 39.6007 129.239 39.2604C128.899 38.9201 128.486 38.75 128 38.75C127.514 38.75 127.1 38.9201 126.76 39.2604C126.42 39.6007 126.25 40.0139 126.25 40.5V41.6666Z" fill="#E3E3E3"/>
<circle cx="39" cy="44" r="12" fill="#757575"/>
<path d="M35.4997 49.8333C35.1788 49.8333 34.9042 49.7191 34.6757 49.4906C34.4472 49.2621 34.333 48.9875 34.333 48.6666V42.8333C34.333 42.5125 34.4472 42.2378 34.6757 42.0094C34.9042 41.7809 35.1788 41.6666 35.4997 41.6666H36.083V40.5C36.083 39.693 36.3674 39.0052 36.9361 38.4364C37.5049 37.8677 38.1927 37.5833 38.9997 37.5833C39.8066 37.5833 40.4945 37.8677 41.0632 38.4364C41.632 39.0052 41.9163 39.693 41.9163 40.5V41.6666H42.4997C42.8205 41.6666 43.0952 41.7809 43.3236 42.0094C43.5521 42.2378 43.6663 42.5125 43.6663 42.8333V48.6666C43.6663 48.9875 43.5521 49.2621 43.3236 49.4906C43.0952 49.7191 42.8205 49.8333 42.4997 49.8333H35.4997ZM35.4997 48.6666H42.4997V42.8333H35.4997V48.6666ZM38.9997 46.9166C39.3205 46.9166 39.5952 46.8024 39.8236 46.5739C40.0521 46.3455 40.1663 46.0708 40.1663 45.75C40.1663 45.4291 40.0521 45.1545 39.8236 44.926C39.5952 44.6975 39.3205 44.5833 38.9997 44.5833C38.6788 44.5833 38.4042 44.6975 38.1757 44.926C37.9472 45.1545 37.833 45.4291 37.833 45.75C37.833 46.0708 37.9472 46.3455 38.1757 46.5739C38.4042 46.8024 38.6788 46.9166 38.9997 46.9166ZM37.2497 41.6666H40.7497V40.5C40.7497 40.0139 40.5795 39.6007 40.2393 39.2604C39.899 38.9201 39.4858 38.75 38.9997 38.75C38.5136 38.75 38.1004 38.9201 37.7601 39.2604C37.4198 39.6007 37.2497 40.0139 37.2497 40.5V41.6666Z" fill="#E3E3E3"/>
<rect x="91" y="169" width="64" height="19" rx="3" fill="#FF6F00" fill-opacity="0.75"/>
<path d="M114.982 173.364L117.584 181.886H117.68L120.283 173.364H123.43L119.504 185H115.76L111.834 173.364H114.982ZM124.507 185V173.364H129.314C130.185 173.364 130.937 173.534 131.57 173.875C132.206 174.212 132.697 174.684 133.041 175.29C133.386 175.892 133.558 176.593 133.558 177.392C133.558 178.195 133.382 178.898 133.03 179.5C132.682 180.098 132.183 180.562 131.536 180.892C130.888 181.222 130.119 181.386 129.229 181.386H126.263V179.17H128.706C129.13 179.17 129.485 179.097 129.769 178.949C130.057 178.801 130.274 178.595 130.422 178.33C130.57 178.061 130.644 177.748 130.644 177.392C130.644 177.032 130.57 176.722 130.422 176.46C130.274 176.195 130.057 175.991 129.769 175.847C129.481 175.703 129.127 175.631 128.706 175.631H127.32V185H124.507ZM134.769 185V173.364H139.576C140.447 173.364 141.199 173.534 141.831 173.875C142.468 174.212 142.958 174.684 143.303 175.29C143.648 175.892 143.82 176.593 143.82 177.392C143.82 178.195 143.644 178.898 143.292 179.5C142.943 180.098 142.445 180.562 141.797 180.892C141.149 181.222 140.381 181.386 139.49 181.386H136.524V179.17H138.968C139.392 179.17 139.746 179.097 140.03 178.949C140.318 178.801 140.536 178.595 140.684 178.33C140.831 178.061 140.905 177.748 140.905 177.392C140.905 177.032 140.831 176.722 140.684 176.46C140.536 176.195 140.318 175.991 140.03 175.847C139.742 175.703 139.388 175.631 138.968 175.631H137.581V185H134.769Z" fill="white"/>
<circle cx="102.5" cy="179.5" r="6.5" fill="#757575"/>
<path d="M103.572 175.273L103.376 181.328H101.624L101.428 175.273H103.572ZM102.498 184.124C102.194 184.124 101.933 184.016 101.714 183.8C101.498 183.584 101.39 183.322 101.39 183.016C101.39 182.714 101.498 182.457 101.714 182.244C101.933 182.028 102.194 181.92 102.498 181.92C102.79 181.92 103.048 182.028 103.269 182.244C103.494 182.457 103.606 182.714 103.606 183.016C103.606 183.22 103.553 183.406 103.448 183.574C103.346 183.741 103.211 183.875 103.043 183.974C102.879 184.074 102.697 184.124 102.498 184.124Z" fill="white"/>
<path d="M130.503 132C130.503 130.895 129.607 130 128.503 130C127.398 130 126.503 130.895 126.503 132H130.503ZM127.089 153.46C127.87 154.241 129.136 154.241 129.917 153.46L142.645 140.732C143.426 139.951 143.426 138.684 142.645 137.903C141.864 137.122 140.598 137.122 139.817 137.903L128.503 149.217L117.189 137.903C116.408 137.122 115.142 137.122 114.361 137.903C113.58 138.684 113.58 139.951 114.361 140.732L127.089 153.46ZM126.503 132V152.045H130.503V132H126.503Z" fill="#B3B3B3"/>
</svg>
